<svg xmlns="http://www.w3.org/2000/svg" viewBox="0 0 25.52 25.53"><circle cx="9.28" cy="16.25" r="9.28" style="fill:#ddeff8"/><path d="M12.47,15.59A5.92,5.92,0,0,0,14,17a6.92,6.92,0,0,0,4.22,1.19A8.87,8.87,0,0,0,19.64,18l3.61,1.89V16.39a4.73,4.73,0,0,0,1.32-1.83c1.53-3.76-2-7.07-6.36-7.07-4.59,0-8.28,3.76-6.06,7.61Z" transform="translate(-0.17 -0.61)" style="fill:none;stroke:#43a8d8;stroke-width:1.5px"/><path d="M14.81,1.36c-4.66,0-8.44,3.17-8.44,7.07a6.37,6.37,0,0,0,1.69,4.23v4.61l4.08-2.14a9.67,9.67,0,0,0,2.67.37c4.66,0,8.44-3.16,8.44-7.07S19.47,1.36,14.81,1.36Z" transform="translate(-0.17 -0.61)" style="fill:#faf9fd;stroke:#214159;stroke-linecap:square;stroke-width:1.5px"/><ellipse cx="11.05" cy="7.72" rx="0.84" ry="0.87" style="fill:#43a8d8"/><ellipse cx="14.64" cy="7.72" rx="0.84" ry="0.87" style="fill:#43a8d8"/><ellipse cx="18.24" cy="7.72" rx="0.84" ry="0.87" style="fill:#43a8d8"/></svg>