<svg
    xmlns="http://www.w3.org/2000/svg"
    viewBox="0 0 90.01 90.31"
>
    <path
    d="M83.16,37a38.52,38.52,0,0,1,0,16l-9.57-2.72A28.33,28.33,0,0,0,74.06,45a28.68,28.68,0,0,0-.5-5.31Z"
    transform="translate(0.01 0.34)"
    />
    <path
    d="M53,6.81l-2.78,9.6a28,28,0,0,0-5.25-.5,28.36,28.36,0,0,0-5.28.5L37,6.81a40.21,40.21,0,0,1,16.06,0Z"
    transform="translate(0.01 0.34)"
    />
    <path
    d="M6.81,36.94l9.6,2.75a28.68,28.68,0,0,0-.5,5.31,28.36,28.36,0,0,0,.5,5.28L6.81,53a40.36,40.36,0,0,1,0-16.09Z"
    transform="translate(0.01 0.34)"
    />
    <path
    d="M50.28,73.59,53,83.19a40.21,40.21,0,0,1-16.06,0l2.75-9.6a28,28,0,0,0,10.56,0Z"
    transform="translate(0.01 0.34)"
    />
    <path
    d="M90,45a44.33,44.33,0,0,1-1.69,12.12,3.1,3.1,0,0,1-.15.6v.09a.6.6,0,0,1-.06.19,45,45,0,0,1-86.18-.16v-.09a2.46,2.46,0,0,1-.15-.53v-.06A45,45,0,1,1,90,45Zm-6,0a39.8,39.8,0,0,0-.84-8l-9.6,2.72a28.68,28.68,0,0,1,.5,5.31,28.33,28.33,0,0,1-.47,5.28L83.16,53A39.09,39.09,0,0,0,84,45ZM71.88,34l9.62-2.75A39,39,0,0,0,58.78,8.5L56,18.09A29.25,29.25,0,0,1,71.88,34ZM81.5,58.75,71.91,56A29.25,29.25,0,0,1,56,71.88l2.75,9.62A39,39,0,0,0,81.5,58.75ZM68.09,45A23.08,23.08,0,1,0,45,68.06h0a23.05,23.05,0,0,0,23.09-23ZM50.25,16.41,53,6.81a40.21,40.21,0,0,0-16.06,0l2.75,9.6a28.13,28.13,0,0,1,10.56,0ZM53,83.19l-2.75-9.6a28,28,0,0,1-10.56,0L37,83.19a40.21,40.21,0,0,0,16.06,0ZM34,18.09,31.22,8.5A39,39,0,0,0,8.5,31.19L18.12,34A29.25,29.25,0,0,1,34,18.09ZM31.19,81.5,34,71.91A29.27,29.27,0,0,1,18.09,56L8.5,58.78A39.06,39.06,0,0,0,31.19,81.5ZM16.41,39.69l-9.6-2.75A40.36,40.36,0,0,0,6.81,53l9.6-2.75a28.36,28.36,0,0,1-.5-5.28A28.68,28.68,0,0,1,16.41,39.69Z"
    transform="translate(0.01 0.34)"
    />
</svg>