<svg xmlns="http://www.w3.org/2000/svg" viewBox="0 0 95.32 79.61"><path d="M30.51,36.1a25.09,25.09,0,0,0-7-1,21.92,21.92,0,0,0-8.75,1.79c2.2-8,7.48-22,18-23.51a2.5,2.5,0,0,0,2-1.8l2.3-8.23A2.48,2.48,0,0,0,35.44.24h0L35.07.16A16.9,16.9,0,0,0,32.71,0C20.07,0,7.56,13.21,2.28,32.09c-3.1,11.07-4,27.74,3.63,38.23,4.27,5.86,10.5,9,18.52,9.31h.1a22.18,22.18,0,0,0,6-43.53Z" transform="translate(0 -0.02)" /><path d="M92.47,46.57A22.25,22.25,0,0,0,79.14,36.1a25.09,25.09,0,0,0-7-1,21.92,21.92,0,0,0-8.75,1.79c2.2-8,7.48-22,18-23.51a2.5,2.5,0,0,0,2-1.8l2.3-8.23a2.52,2.52,0,0,0-.32-2A2.46,2.46,0,0,0,83.69.16,16.75,16.75,0,0,0,81.34,0C68.7,0,56.19,13.21,50.9,32.09c-3.09,11.08-4,27.74,3.63,38.23,4.28,5.86,10.51,9,18.53,9.31h.1A22.17,22.17,0,0,0,92.47,46.57Z" transform="translate(0 -0.02)"/></svg>