<svg xmlns="http://www.w3.org/2000/svg" viewBox="0 0 1024 768">
  <path d="M732,170a92,92,0,1,0,92,92A92,92,0,0,0,732,170Zm0,136a44,44,0,1,1,44-44A44,44,0,0,1,732,306Z" style="fill: #fff;opacity: 0.05"/>
  <path d="M732,584.13a92,92,0,1,0,92,92A92,92,0,0,0,732,584.13Zm0,136a44,44,0,1,1,44-44A44,44,0,0,1,732,720.13Z" style="fill: #fff;opacity: 0.05"/>
  <path d="M0,588.05v53.06a43.93,43.93,0,0,1,17.36,35A43.92,43.92,0,0,1,0,711.14v53.07a92,92,0,0,0,65.36-88.08A92,92,0,0,0,0,588.05Z" style="fill: #fff;opacity: 0.05"/>
  <path d="M0,174.05v53.06a43.93,43.93,0,0,1,17.36,35A43.92,43.92,0,0,1,0,297.14v53.07a92,92,0,0,0,65.36-88.08A92,92,0,0,0,0,174.05Z" style="fill: #fff;opacity: 0.05"/>
  <path d="M568.37,325.28h0a20,20,0,0,0-26.07,11l-47,115.4-66-26.89a20,20,0,0,0-26.07,11h0a20,20,0,0,0,11,26.07l66,26.89h0a40,40,0,0,0,52.13-22l47-115.4A20,20,0,0,0,568.37,325.28Z" style="fill: #fff;opacity: 0.05"/>
  <path d="M568.37-82.45h0a20,20,0,0,0-26.07,11l-47,115.4L429.27,17A20,20,0,0,0,403.2,28h0a20,20,0,0,0,11,26.07l66,26.9h0a40,40,0,0,0,52.13-22l47-115.39A20,20,0,0,0,568.37-82.45Z" style="fill: #fff;opacity: 0.05"/>
  <path d="M568.37,738.49h0a20,20,0,0,0-26.07,11l-47,115.41-66-26.9a20,20,0,0,0-26.07,11h0a20,20,0,0,0,11,26.07l66,26.9h0a40,40,0,0,0,52.13-22l47-115.4A20,20,0,0,0,568.37,738.49Z" style="fill: #fff;opacity: 0.05"/>
  <path d="M396.94,635.07l12.88-12.88a20,20,0,0,0,0-28.28h0a20,20,0,0,0-28.28,0l-12.88,12.88-12.88-12.88a20,20,0,0,0-28.28,0h0a20,20,0,0,0,0,28.28l12.88,12.88L327.5,648a20,20,0,0,0,0,28.28h0a20,20,0,0,0,28.28,0l12.88-12.88,12.88,12.88a20,20,0,0,0,28.28,0h0a20,20,0,0,0,0-28.28Z" style="fill: #fff;opacity: 0.05"/>
  <path d="M396.94,217l12.88-12.88a20,20,0,0,0,0-28.28h0a20,20,0,0,0-28.28,0l-12.88,12.88-12.88-12.88a20,20,0,0,0-28.28,0h0a20,20,0,0,0,0,28.28L340.38,217,327.5,229.9a20,20,0,0,0,0,28.28h0a20,20,0,0,0,28.28,0l12.88-12.88,12.88,12.88a20,20,0,0,0,28.28,0h0a20,20,0,0,0,0-28.28Z" style="fill: #fff;opacity: 0.05"/>
  <path d="M1066.28,635.07l12.88-12.88a20,20,0,0,0,0-28.28h0a20,20,0,0,0-28.28,0L1038,606.79l-12.88-12.88a20,20,0,0,0-28.28,0h0a20,20,0,0,0,0,28.28l12.88,12.88L996.84,648a20,20,0,0,0,0,28.28h0a20,20,0,0,0,28.28,0L1038,663.35l12.88,12.88a20,20,0,0,0,28.28,0h0a20,20,0,0,0,0-28.28Z" style="fill: #fff;opacity: 0.05"/>
  <path d="M1072.28,217l12.88-12.88a20,20,0,0,0,0-28.28h0a20,20,0,0,0-28.28,0L1044,188.74l-12.88-12.88a20,20,0,0,0-28.28,0h0a20,20,0,0,0,0,28.28L1015.72,217l-12.88,12.88a20,20,0,0,0,0,28.28h0a20,20,0,0,0,28.28,0L1044,245.3l12.88,12.88a20,20,0,0,0,28.28,0h0a20,20,0,0,0,0-28.28Z" style="fill: #fff;opacity: 0.05"/>
  <g style="opacity: 0.05">
    <rect x="86.35" y="457.59" width="260" height="20" rx="10" transform="translate(-267.27 289.94) rotate(-45)" style="fill: #fff"/>
    <rect x="60.35" y="431.6" width="260" height="20" rx="10" transform="translate(-256.5 263.94) rotate(-45)" style="fill: #fff"/>
    <rect x="34.36" y="405.6" width="260" height="20" rx="10" transform="translate(-245.73 237.94) rotate(-45)" style="fill: #fff"/>
  </g>
  <g style="opacity: 0.05">
    <rect x="86.35" y="52.91" width="260" height="20" rx="10" transform="translate(18.88 171.41) rotate(-45)" style="fill: #fff"/>
    <rect x="60.35" y="26.92" width="260" height="20" rx="10" transform="translate(29.65 145.41) rotate(-45)" style="fill: #fff"/>
    <rect x="34.36" y="0.92" width="260" height="20" rx="10" transform="translate(40.42 119.42) rotate(-45)" style="fill: #fff"/>
  </g>
  <g style="opacity: 0.05">
    <rect x="829.36" y="52.91" width="260" height="20" rx="10" transform="translate(236.5 696.79) rotate(-45)" style="fill: #fff"/>
    <rect x="803.36" y="26.92" width="260" height="20" rx="10" transform="translate(247.27 670.8) rotate(-45)" style="fill: #fff"/>
    <rect x="777.36" y="0.92" width="260" height="20" rx="10" transform="translate(258.04 644.8) rotate(-45)" style="fill: #fff"/>
  </g>
  <g style="opacity: 0.05">
    <rect x="829.36" y="457.59" width="260" height="20" rx="10" transform="translate(-49.65 815.32) rotate(-45)" style="fill: #fff"/>
    <rect x="803.36" y="431.6" width="260" height="20" rx="10" transform="translate(-38.88 789.33) rotate(-45)" style="fill: #fff"/>
    <rect x="777.36" y="405.6" width="260" height="20" rx="10" transform="translate(-28.11 763.33) rotate(-45)" style="fill: #fff"/>
  </g>
</svg>
