<svg xmlns="http://www.w3.org/2000/svg" viewBox="0 0 1205.37 988.8">
  <path d="M732,170a92,92,0,1,0,92,92A92,92,0,0,0,732,170Zm0,136a44,44,0,1,1,44-44A44,44,0,0,1,732,306Z" transform="translate(105.97 83.93)" style="fill: #fff"/>
  <path d="M732,584.13a92,92,0,1,0,92,92A92,92,0,0,0,732,584.13Zm0,136a44,44,0,1,1,44-44A44,44,0,0,1,732,720.13Z" transform="translate(105.97 83.93)" style="fill: #fff"/>
  <path d="M568.37,325.28h0a20,20,0,0,0-26.07,11l-47,115.4-66-26.89a20,20,0,0,0-26.07,11h0a20,20,0,0,0,11,26.07l66,26.89h0a40,40,0,0,0,52.13-22l47-115.4A20,20,0,0,0,568.37,325.28Z" transform="translate(105.97 83.93)" style="fill: #fff"/>
  <path d="M568.37-82.45h0a20,20,0,0,0-26.07,11l-47,115.4L429.27,17A20,20,0,0,0,403.2,28h0a20,20,0,0,0,11,26.07l66,26.9h0a40,40,0,0,0,52.13-22l47-115.39A20,20,0,0,0,568.37-82.45Z" transform="translate(105.97 83.93)" style="fill: #fff"/>
  <path d="M568.37,738.49h0a20,20,0,0,0-26.07,11l-47,115.41-66-26.9a20,20,0,0,0-26.07,11h0a20,20,0,0,0,11,26.07l66,26.9h0a40,40,0,0,0,52.13-22l47-115.4A20,20,0,0,0,568.37,738.49Z" transform="translate(105.97 83.93)" style="fill: #fff"/>
  <path d="M396.51,217.16l42-42a18.32,18.32,0,0,0,0-25.92l-2.1-2.11a18.34,18.34,0,0,0-25.93,0l-42,42-42-42a18.32,18.32,0,0,0-25.92,0l-2.11,2.11a18.32,18.32,0,0,0,0,25.92l42,42-42,42a18.32,18.32,0,0,0,0,25.92l2.11,2.11a18.32,18.32,0,0,0,25.92,0l42-42,42,42a18.34,18.34,0,0,0,25.93,0l2.1-2.11a18.32,18.32,0,0,0,0-25.92Z" transform="translate(105.97 83.93)" style="fill: #fff"/>
  <rect x="170.53" y="344.04" width="39.64" height="195.1" rx="18.33" transform="translate(473.98 78.67) rotate(45)" style="fill: #fff"/>
  <path d="M396.51,632.13l42-42a18.34,18.34,0,0,0,0-25.93l-2.1-2.11a18.35,18.35,0,0,0-25.93,0l-42,42-42-42a18.34,18.34,0,0,0-25.92,0l-2.11,2.11a18.34,18.34,0,0,0,0,25.93l42,42-42,42a18.32,18.32,0,0,0,0,25.92l2.11,2.11a18.32,18.32,0,0,0,25.92,0l42-42,42,42a18.34,18.34,0,0,0,25.93,0l2.1-2.11a18.32,18.32,0,0,0,0-25.92Z" transform="translate(105.97 83.93)" style="fill: #fff"/>
  <path d="M1052,632.13l42-42a18.34,18.34,0,0,0,0-25.93l-2.11-2.11a18.34,18.34,0,0,0-25.92,0l-42,42-42-42a18.34,18.34,0,0,0-25.92,0L954,564.2a18.34,18.34,0,0,0,0,25.93l42,42-42,42a18.32,18.32,0,0,0,0,25.92l2.11,2.11a18.32,18.32,0,0,0,25.92,0l42-42,42,42a18.32,18.32,0,0,0,25.92,0l2.11-2.11a18.32,18.32,0,0,0,0-25.92Z" transform="translate(105.97 83.93)" style="fill: #fff"/>
  <path d="M1052,217.16l42-42a18.32,18.32,0,0,0,0-25.92l-2.11-2.11a18.32,18.32,0,0,0-25.92,0l-42,42-42-42a18.32,18.32,0,0,0-25.92,0L954,149.23a18.32,18.32,0,0,0,0,25.92l42,42-42,42a18.32,18.32,0,0,0,0,25.92l2.11,2.11a18.32,18.32,0,0,0,25.92,0l42-42,42,42a18.32,18.32,0,0,0,25.92,0l2.11-2.11a18.32,18.32,0,0,0,0-25.92Z" transform="translate(105.97 83.93)" style="fill: #fff"/>
  <rect x="170.53" y="-41.36" width="39.64" height="195.1" rx="18.33" transform="translate(201.46 -34.21) rotate(45)" style="fill: #fff"/>
  <rect x="902.07" y="-41.36" width="39.64" height="195.1" rx="18.33" transform="translate(415.72 -551.48) rotate(45)" style="fill: #fff"/>
  <rect x="902.07" y="344.04" width="39.64" height="195.1" rx="18.33" transform="translate(688.24 -438.6) rotate(45)" style="fill: #fff"/>
  <path d="M-14,170a92,92,0,0,0-92,92,92,92,0,0,0,92,92,92,92,0,0,0,92-92A92,92,0,0,0-14,170Zm0,136a44,44,0,0,1-44-44,44,44,0,0,1,44-44,44,44,0,0,1,44,44A44,44,0,0,1-14,306Z" transform="translate(105.97 83.93)" style="fill: #fff"/>
  <path d="M-14,584.13a92,92,0,0,0-92,92,92,92,0,0,0,92,92,92,92,0,0,0,92-92A92,92,0,0,0-14,584.13Zm0,136a44,44,0,0,1-44-44,44,44,0,0,1,44-44,44,44,0,0,1,44,44A44,44,0,0,1-14,720.13Z" transform="translate(105.97 83.93)" style="fill: #fff"/>
</svg>
