<svg xmlns="http://www.w3.org/2000/svg" xmlns:xlink="http://www.w3.org/1999/xlink" width="193.75" height="30.12" viewBox="0 0 193.75 30.12"><defs><linearGradient id="a" x1="9.09" y1="30.38" x2="22.22" y2="17.25" gradientUnits="userSpaceOnUse"><stop offset="0" stop-color="#a4e9fd"/><stop offset="1" stop-color="#43a8d8"/></linearGradient><linearGradient id="b" x1="3.61" y1="24.91" x2="15.35" y2="13.18" xlink:href="#a"/><linearGradient id="c" x1="3.06" y1="14.79" x2="16.39" y2="1.47" xlink:href="#a"/><linearGradient id="d" x1="1.73" y1="20.23" x2="11.74" y2="10.22" xlink:href="#a"/><linearGradient id="e" x1="14.76" y1="16.93" x2="26.5" y2="5.2" xlink:href="#a"/><linearGradient id="f" x1="18.38" y1="19.91" x2="28.39" y2="9.89" xlink:href="#a"/><linearGradient id="g" x1="13.73" y1="28.65" x2="27.06" y2="15.33" xlink:href="#a"/><linearGradient id="h" x1="7.9" y1="12.87" x2="21.04" y2="-0.26" xlink:href="#a"/></defs><path d="M20.53,15.59l.26.23Z" style="fill:none"/><path d="M15.82,9.34a2.73,2.73,0,0,0-.23.25A2.73,2.73,0,0,1,15.82,9.34Z" style="fill:none"/><path d="M15.49,30.11h.24l.3,0,.19,0h.1l.15,0,.16,0h0l.12,0,.09,0,.1,0,.18,0,.07,0,.13,0,.16-.05h0l.15,0,.15-.05.05,0h0l.12,0,.11-.05h0l.05,0,.13-.06h0l.16-.07h0l.12-.06.06,0,.11-.06.16-.08h0l.15-.09a1.18,1.18,0,0,0,.19-.11l.12-.07h0l.15-.1.15-.1h0l.25-.18h0a.1.1,0,0,0,.05,0h0l.1-.07.14-.11h0l.13-.12h0l.12-.1.13-.12.15-.15.1-.1h0l.23-.25.1-.12h0l.11-.14h0l.11-.13a1.71,1.71,0,0,1,.11-.14l.11-.15.1-.14.1-.15h0l.08-.13h0l.09-.15a.75.75,0,0,1,.07-.12v0l0,0,.05-.1,0,0,.08-.13a.8.8,0,0,1,.08-.16l.06-.14,0,0a1,1,0,0,1,.07-.15h0a1.11,1.11,0,0,1,.07-.16l.06-.17a.69.69,0,0,0,.05-.13.14.14,0,0,0,0-.06l.06-.15a.88.88,0,0,1,.05-.15v0s0-.09,0-.14l.06-.2,0-.14v0l0-.15v0l0-.12s0,0,0-.07v0a.52.52,0,0,0,0-.11v0c0-.16.05-.31.06-.47v-.09a.45.45,0,0,0,0-.11v-.26a.53.53,0,0,0,0-.13v-.13h0v-.35s0-.09,0-.14v-.1a2.45,2.45,0,0,0,0-.27c0-.06,0-.12,0-.18a.19.19,0,0,1,0-.08s0-.05,0-.07,0-.06,0-.08,0-.21,0-.31a.29.29,0,0,1,0-.09v0s0-.07,0-.1l0-.1c0-.07,0-.13,0-.2s0-.12,0-.19l0-.11,0-.1a1.39,1.39,0,0,0-.06-.19.19.19,0,0,0,0-.08.24.24,0,0,1,0-.08.49.49,0,0,1,0-.11l0-.05s0-.09-.05-.13a9.25,9.25,0,0,0-.48-1.06l-.06-.1-.13-.23-.06-.09-.13-.2a.86.86,0,0,0-.07-.1l0-.06L21.8,17l0-.05-.15-.2-.07-.09-.08-.1-.08-.09-.16-.18,0,0-.13-.15L21,16l-.07-.07-.1-.1-.26-.23-.18-.16-.09-.07h0L20,15.13l-.1-.07-.1-.06-.18-.13-.1-.06-.09-.06-.21-.12-.1-.06-.19-.1-.6.59,3.21,3.21a2.29,2.29,0,0,1-3.13,3.35.29.29,0,0,1,0,.09l0,.11a2.33,2.33,0,0,1-.07.25l0,.12a7.59,7.59,0,0,1-.41,1.09l0,.12,0,.05-.05.11a.25.25,0,0,1,0,.07l0,.07a1.62,1.62,0,0,0-.1.18l-.05.09-.06.1-.1.17c0,.05-.07.11-.11.17l-.06.08a.56.56,0,0,1,0,.08v0l-.06.07-.19.26,0,.06-.05.06-.05.06-.11.13-.19.21-.07.07-.09.11-.1.09a.94.94,0,0,1-.1.1l0,.05h0l-.1.09-.09.09,0,0,0,.05-.05,0-.06.05-.09.07-.07.06-.38.29h0l-.1.06s0,0,0,0l0,0-.11.07,0,0-.12.08,0,0-.12.07-.19.11-.12.07h0l-.14.08-.15.07-.05,0-.13.06-.16.07-.17.07h0l-.16.06h0l-.15.05-.17.06-.14,0-.06,0-.1,0h-.07l-.14,0-.17,0h0L12,28h0l-.18,0-.17,0-.18,0-.17,0-.18,0h0l-.18,0H9.66l-.18,0h0l-.17,0H9.09l-.3,0h0l-.17,0-.17,0h0l-.13,0-.21,0-.17-.05h0l-.17-.05-.12,0-.06,0-.13-.05h0l-.16-.06h0l-.14-.05-.05,0H7l-.12-.05-.11-.05h0l0,0-.14-.07-.14-.07,0,0-.14-.07L6.15,27l-.07,0-.15-.09-.09-.05-.08-.05-.1-.07,0,0-.14-.1-.12-.08h0l-.08-.06h0l-.15-.11-.24-.2-.1-.08h0l0-.05,0,0-.09-.08-.12-.11,0,0h0l0,0,.06.07,0,0h0l0,0,0,0h0l.06.07,0,0h0l.12.1.06.06.17.15.16.13,0,0,.2.16.19.15h0l.18.14h0l.19.14.23.16,0,0,.1.07h0l.16.1.09.06.11.08H7l.09.06.22.13.1.06.13.08.14.08.1.06.06,0,.12.06.36.19.15.07h0l.17.08,0,0,.14.06,0,0,.07,0,.05,0H9l.17.07.06,0h0l.07,0h0l.15.06,0,0h0l.06,0,.11,0h0l.19.07.06,0h.09l.08,0,.07,0,.08,0,.2.06h.06l.4.12h0l.18.05.24.06.11,0,.2.05h0l.2,0,.12,0,.17,0h0l.15,0,.17,0h0l.17,0c.3,0,.6.09.9.11.12,0,.24,0,.36,0h1.5Z" style="fill:url(#a)"/><path d="M4.72,26l0,0,0,.05h0l.1.08.24.2.15.11h0l.08.06h0l.12.08.14.1,0,0,.1.07.08.05.09.05.15.09.07,0,.12.07.14.07,0,0,.14.07.14.07,0,0h0l.11.05.12.05h0l.05,0,.14.05h0l.16.06h0l.13.05.06,0,.12,0,.17.05h0l.17.05.21,0,.13,0h0l.17,0,.17,0h0l.3,0h.22l.17,0h0l.18,0h1.23l.18,0h0l.18,0,.17,0,.18,0,.17,0L12,28h0l.15,0h0l.17,0,.14,0h.07l.1,0,.06,0,.14,0,.17-.06.15-.05h0l.16-.06h0l.17-.07.16-.07.13-.06.05,0,.15-.07.14-.08h0l.12-.07.19-.11.12-.07,0,0,.12-.08,0,0,.11-.07,0,0s0,0,0,0l.1-.06h0l.38-.29.07-.06.09-.07.06-.05.05,0,0-.05,0,0,.09-.09.1-.09h0l0-.05a.94.94,0,0,0,.1-.1l.1-.09.09-.11.07-.07.19-.21.11-.13.05-.06L16.8,25l0-.06.19-.26.06-.07v0a.56.56,0,0,0,0-.08l.06-.08c0-.06.07-.12.11-.17l.1-.17.06-.1.05-.09a1.62,1.62,0,0,1,.1-.18l0-.07a.25.25,0,0,0,0-.07l.05-.11,0-.05,0-.12a7.59,7.59,0,0,0,.41-1.09l0-.12a2.33,2.33,0,0,0,.07-.25l0-.11a.29.29,0,0,0,0-.09,1.14,1.14,0,0,0-.11-.11L15.66,18.9a9.74,9.74,0,0,1-.6,1,9.08,9.08,0,0,1-.62.77l-.12.13,0,0-.07.07-.05.06a8.37,8.37,0,0,1-.7.62l-.09.07-.22.17-.15.1-.33.22-.09.06-.22.13-.11.06-.11,0-.22.12-.09,0-.13.06-.1.05-.24.09-.11,0-.11,0h0l-.22.08-.12,0-.12,0-.11,0-.15,0-.1,0-.12,0-.1,0h0l-.11,0-.12,0-.13,0-.12,0-.23,0H9.07l-.4,0H7.35l-.47-.06h0l-.12,0h0l-.08,0H6.6l-.17,0h0l-.15,0-.09,0L6,23l-.14,0,0,0-.12,0h0l-.14-.05-.06,0-.13-.05-.15-.06h0l-.1,0-.14-.07-.09,0h0l-.12-.05-.34-.18-.09-.05,0,0,0,0L4,22.18l-.17-.1L3.74,22h0l-.15-.1-.14-.11-.15-.1-.14-.11L3,21.46l-.13-.1,0,0-.12-.1L2.5,21h0l-.1-.1-.14-.15-.12-.13L2,20.49v0l-.11-.13h0a1.34,1.34,0,0,0-.11-.14.86.86,0,0,1-.07-.1h0l0-.05h0l-.18-.25h0l-.1-.15-.09-.13-.21-.35A.54.54,0,0,1,1,19L1,19l-.06-.11-.1-.19-.06-.12-.09-.22a1.17,1.17,0,0,1-.05-.11l0,0-.06-.14,0-.12v0a.14.14,0,0,0,0-.06l0-.13h0c0-.05,0-.09,0-.14l0,0v0s0-.09,0-.14l0-.13h0a.25.25,0,0,1,0-.07l0-.13a.14.14,0,0,1,0-.06s0,0,0-.08,0-.07,0-.1a.5.5,0,0,1,0-.12v0l0-.15a1,1,0,0,1,0-.16s0-.06,0-.1h0a1.23,1.23,0,0,1,0-.19,1.55,1.55,0,0,1,0-.31.53.53,0,0,1,0-.13H0a.25.25,0,0,1,0-.08c0-.11,0-.21,0-.31v0H0v.67A.49.49,0,0,1,0,16v.05s0,0,0,.06,0,.12,0,.18,0,.12,0,.18,0,.09,0,.14h0l0,.23a1.36,1.36,0,0,1,0,.2,2.89,2.89,0,0,1,0,.29c0,.12,0,.25.07.38l0,.14V18l0,.12a.13.13,0,0,0,0,.06s0,0,0,.06l0,.13s0,.06,0,.1l.06.25c0,.09,0,.18.07.27s0,0,0,.06l0,.12,0,.07,0,.1,0,.13.06.19,0,.1,0,.1,0,.08a.19.19,0,0,1,0,.07h0l.06.15v.06a.17.17,0,0,0,0,.05l0,.09v0l0,.05v0H1v0H1v0H1a.49.49,0,0,1,0,.11v0h0a.61.61,0,0,1,0,.12c0,.06.05.12.07.17v0h0a1,1,0,0,0,0,.1l0,0h0l0,.07s0,.05,0,.08l.06.12a.08.08,0,0,0,0,0h0a.89.89,0,0,1,.08.17h0a.61.61,0,0,1,.07.14l.09.16a.36.36,0,0,0,0,.09l.11.2a1,1,0,0,0,.08.14c.07.13.14.26.22.39l.08.13.22.35a.61.61,0,0,0,.07.1l.18.28a.18.18,0,0,1,.05.07,1.71,1.71,0,0,0,.11.14v0l.15.2.12.16h0a1.47,1.47,0,0,0,.1.13l.23.28,0,.05.14.17c.06.07.12.13.17.2h0l.14.15H4l0,0H4l0,0,.07.06.09.1,0,0h0l0,0h0l0,.05h0v0h0l0,0,.06.06.06.06,0,0h0l.12.11Z" style="fill:url(#b)"/><path d="M4.05,4.79h0L4,4.9l-.19.24-.12.14h0l-.06.08L3.5,5.5a.6.6,0,0,0-.09.13l0,0-.06.1-.06.09,0,.06,0,.06-.06.11,0,.06h0L3,6.27l-.07.13v0l0,0-.07.13h0l-.06.12,0,.06v0a1.17,1.17,0,0,1-.05.11l-.06.14,0,.06a1.17,1.17,0,0,0,0,.11c0,.07-.05.14-.08.22s0,.08,0,.13l-.06.2a.56.56,0,0,0,0,.12l0,.06,0,.11c0,.13-.07.26-.1.4l0,.15,0,.17h0c0,.1,0,.2,0,.3h0a.15.15,0,0,1,0,.07v0s0,.08,0,.12a1,1,0,0,0,0,.17H2c0,.06,0,.12,0,.18v0a.92.92,0,0,1,0,.16V10a1.48,1.48,0,0,0,0,.21v.15H2c0,.11,0,.22,0,.34a.81.81,0,0,1,0,.16v0C2,11,2,11,2,11.07a1.1,1.1,0,0,0,0,.18,1.11,1.11,0,0,0,0,.17l0,.17a.57.57,0,0,0,0,.18l0,.18h0a.83.83,0,0,0,0,.15,1.42,1.42,0,0,0,0,.2l0,.1s0,0,0,0,0,0,0,.05l0,.1.12.37,0,.13v0a.36.36,0,0,0,0,.09.58.58,0,0,0,0,.14,1,1,0,0,0,0,.1l0,0,.06.15.06.13,0,.06.06.12,0,0a.37.37,0,0,0,.05.11l0,.05.08.12a1.14,1.14,0,0,0,.1.19l0,.08.08.12v0l.09.14,0,0,.05.07v0a.86.86,0,0,0,.07.1h0c.09.13.18.26.28.38l.06.07.07.09,0,.06,0,.05,0,0,0,0,.09.09.09.1h0l0,0,.1.1.09.1.11.09a.46.46,0,0,0,.07.07l.31.27.09.08.06.05.07,0,.18.14.1.08.1.07.11.07.09.06,0,0,.09,0L6,17.4l.09.05.13.08.1,0,.11.06.11.06.22.1h0l.1.05.11.05.24.09.1,0,.14.05.1,0,.23.07.11,0,.12,0,.25.07.11,0,.09,0a1.14,1.14,0,0,0,.11-.11l2.62-2.61a8.85,8.85,0,0,1-1-.6,9.08,9.08,0,0,1-.77-.62l-.13-.12v0l-.08-.07,0-.05a8.47,8.47,0,0,1-.63-.7l-.07-.09-.17-.22L8.24,13,8,12.69l0-.09-.14-.22-.06-.11a.54.54,0,0,0,0-.11,1.51,1.51,0,0,1-.11-.22l-.05-.09-.06-.13,0-.1a2.44,2.44,0,0,1-.1-.24l-.05-.11,0-.11v0a2,2,0,0,1-.08-.22.56.56,0,0,1,0-.12s0-.08,0-.12l0-.11a.83.83,0,0,1,0-.15l0-.1,0-.12s0-.07,0-.1v0s0-.07,0-.11a.5.5,0,0,1,0-.12l0-.13a.5.5,0,0,0,0-.12l0-.23s0,0,0-.07,0,0,0-.08,0-.08,0-.13l0-.4v-.1a.66.66,0,0,0,0-.14V8.08h0V7.94c0-.05,0-.09,0-.14V7.7a.15.15,0,0,0,0-.07V7.55a.45.45,0,0,1,0-.11.28.28,0,0,1,0-.09c0-.15,0-.31.06-.47h0a.5.5,0,0,1,0-.12v0s0-.05,0-.08V6.6l0-.17H7l0-.15,0-.09a1.94,1.94,0,0,1,0-.2c0-.05,0-.09,0-.14l0,0a.56.56,0,0,1,0-.12v0l0-.14a.14.14,0,0,1,0-.06.69.69,0,0,1,.05-.13l.06-.15v0s0-.07.05-.1l.06-.14a.36.36,0,0,1,0-.09v0a.61.61,0,0,0,0-.12l.18-.34a.41.41,0,0,0,0-.09l0,0,0,0L7.94,4,8,3.87a.57.57,0,0,0,.08-.13h0l.1-.15a1.71,1.71,0,0,1,.11-.14l.1-.15a1.71,1.71,0,0,0,.11-.14L8.66,3l.1-.13,0,0,.1-.12.23-.25h0l.11-.1a.93.93,0,0,1,.14-.14l.13-.12L9.63,2h0l.13-.11h0l.14-.11.1-.07h0l.05,0h0l.24-.18h0l.14-.1.14-.09L11,1.07,11.08,1l.05,0,.11-.06.19-.1.12-.06.22-.09.11-.05.06,0,.13-.06.12,0h0l.06,0,.13,0h0l.14,0,0,0h0l.14,0,.13,0h0l.07,0,.12,0,.07,0,.07,0,.1,0,.12,0h0l.16,0,.15,0,.1,0h0l.18,0a1.55,1.55,0,0,1,.31,0h0l-.28,0-.54,0h-.32l-.21,0-.18,0-.15,0-.21,0-.17,0-.18,0h0L12,.31l-.12,0-.26.06-.32.08-.17,0L11,.56l-.1,0-.08,0-.17.05h0L10.5.7h0l-.2.06h0l-.12,0L10,.89h0L9.78,1l0,0h0l0,0h0l-.16.06h0l-.12,0,0,0L9,1.28H9l-.13.06h0l-.15.07h0l-.15.07-.15.07L8,1.76a2.69,2.69,0,0,1-.29.16l-.31.18-.16.1-.15.09-.45.3-.15.1h0l-.2.14,0,0L6.1,3,6,3l-.16.13-.16.12-.08.06-.14.12,0,0-.14.12-.08.07-.15.13L5,3.85l0,0-.05,0,0,0L4.8,4l0,0h0l-.1.09,0,0,0,0h0l0,0h0l0,0h0l0,0-.14.14h0l-.21.23Z" style="fill:url(#c)"/><path d="M0,15.59H0a.53.53,0,0,0,0,.13,1.55,1.55,0,0,0,0,.31,1.23,1.23,0,0,0,0,.19h0s0,.07,0,.1a1,1,0,0,0,0,.16l0,.15v0a.5.5,0,0,0,0,.12s0,.07,0,.1,0,.05,0,.08a.14.14,0,0,0,0,.06l0,.13a.25.25,0,0,0,0,.07h0l0,.13c0,.05,0,.1,0,.14v0l0,0c0,.05,0,.09,0,.14h0l0,.13a.14.14,0,0,1,0,.06v0l0,.12.06.14,0,0a1.17,1.17,0,0,0,.05.11l.09.22.06.12.1.19L1,19,1,19a.54.54,0,0,0,.05.11l.21.35.09.13.1.15h0l.18.25h0l0,.05h0a.86.86,0,0,0,.07.1,1.34,1.34,0,0,1,.11.14h0l.11.13v0l.11.12.12.13.14.15.1.1h0l.25.23.12.1,0,0,.13.1.13.11.14.11.15.1.14.11.15.1h0l.13.08.17.1.1.06,0,0,0,0,.09.05.34.18.12.05h0l.09,0,.14.07.1,0h0l.15.06.13.05.06,0,.14.05h0l.12,0,0,0L6,23l.2.06.09,0,.15,0h0l.17,0h.05l.08,0h0l.12,0h0l.47.06H8.67l.4,0h.28l.23,0,.12,0,.13,0,.12,0,.11,0h0l.1,0,.12,0,.1,0,.15,0,.11,0,.12,0,.12,0,.22-.08h0l.11,0,.11,0,.24-.09.1-.05.13-.06.09,0,.22-.12.11,0,.11-.06.22-.13.09-.06.33-.22.15-.1.22-.17.09-.07a8.37,8.37,0,0,0,.7-.62l.05-.06.07-.07,0,0,.12-.13a9.08,9.08,0,0,0,.62-.77,9.74,9.74,0,0,0,.6-1l-.6-.6-3.21,3.21A2.29,2.29,0,0,1,8.5,18.38l-.09,0-.11,0-.25-.07-.12,0-.11,0-.23-.07-.1,0L7.35,18l-.1,0L7,17.91l-.11-.05-.1-.05h0l-.22-.1-.11-.06-.11-.06-.1,0-.13-.08L6,17.4l-.11-.07-.09,0,0,0L5.7,17.2l-.11-.07-.1-.07L5.39,17l-.18-.14-.07,0-.06-.05L5,16.67l-.31-.27a.46.46,0,0,1-.07-.07l-.11-.09-.09-.1-.1-.1,0,0h0l-.09-.1-.09-.09,0,0,0,0,0-.05,0-.06-.07-.09-.06-.07c-.1-.12-.19-.25-.28-.38h0a.86.86,0,0,1-.07-.1v0l-.05-.07,0,0-.09-.14v0l-.08-.12,0-.08a1.14,1.14,0,0,1-.1-.19l-.08-.12,0-.05A.37.37,0,0,1,2.86,14l0,0-.06-.12,0-.06-.06-.13-.06-.15,0,0a1,1,0,0,1,0-.1.58.58,0,0,1,0-.14.36.36,0,0,1,0-.09v0l0-.13-.12-.37,0-.1s0,0,0-.05,0,0,0,0l0-.1a1.42,1.42,0,0,1,0-.2.83.83,0,0,1,0-.15h0l0-.18a.57.57,0,0,1,0-.18l0-.17a1.11,1.11,0,0,1,0-.17,1.1,1.1,0,0,1,0-.18C2,11,2,11,2,10.91v0a.81.81,0,0,0,0-.16c0-.12,0-.23,0-.34H2v-.15A1.48,1.48,0,0,1,2,10V9.84a.92.92,0,0,0,0-.16v0c0-.06,0-.12,0-.18H2a1,1,0,0,1,0-.17s0-.08,0-.12v0a.15.15,0,0,0,0-.07h0c0-.1,0-.2,0-.3h0l0-.17,0-.15c0-.14.07-.27.1-.4l0-.11,0-.06a.56.56,0,0,1,0-.12l.06-.2c0-.05,0-.09,0-.13s0-.15.08-.22a1.17,1.17,0,0,1,0-.11l0-.06.06-.14a1.17,1.17,0,0,0,.05-.11v0l0-.06.06-.12h0l.07-.13,0,0v0L3,6.27l.07-.12h0l0-.06L3.18,6l0-.06,0-.06.06-.09.06-.1,0,0A.6.6,0,0,1,3.5,5.5l.09-.13.06-.08h0l.12-.14L4,4.9l.09-.1h0l0,0,.21-.23,0,0,0,0,0,0h0l0,0h0l-.11.13L4,4.89l0,0L3.85,5l-.07.08-.1.12a.69.69,0,0,0-.11.13l-.12.14-.17.21-.17.21A.64.64,0,0,1,3,6l-.15.21-.17.24-.2.3a.61.61,0,0,0-.07.1L2.36,7a.64.64,0,0,0-.08.14l0,0-.16.26L2,7.53l-.08.16-.09.16L1.75,8s-.05.08-.07.13l-.1.19a1,1,0,0,1-.07.15s-.05.11-.08.17-.05.11-.08.17L1.29,9l-.21.48,0,.08,0,.05,0,.11v0l0,.06s0,.08,0,.13l0,0v0h0l-.06.16h0a.88.88,0,0,1,0,.15l-.06.19v.07l-.06.19v0l0,.12,0,.09-.09.35,0,.12,0,.06,0,.17v0a1.06,1.06,0,0,1,0,.19.5.5,0,0,0,0,.12c0,.11,0,.22-.07.33s0,.28-.07.41a.59.59,0,0,1,0,.14c0,.06,0,.12,0,.19a.77.77,0,0,0,0,.15l0,.24h0s0,.09,0,.13,0,.12,0,.18,0,.12,0,.18v.11a.49.49,0,0,1,0,.12v.17H0v.17c0,.06,0,.12,0,.17v.16H0v0H0v.24H0c0,.1,0,.2,0,.31A.25.25,0,0,0,0,15.59Z" style="fill:url(#d)"/><path d="M25.33,4.05h0L25.22,4A2.23,2.23,0,0,0,25,3.77l-.14-.12h0l-.08-.06-.13-.09a.6.6,0,0,0-.13-.09l0,0-.1-.06-.09-.06-.06,0-.06,0L24,3.12l-.06,0h0L23.85,3l-.12-.07h0l0,0-.13-.07h0l-.12-.06-.06,0h0l-.11-.05-.14-.06-.05,0-.12,0-.22-.08-.12,0-.21-.06-.12,0-.05,0-.12,0-.39-.1-.16,0-.17,0h0l-.3,0h-.22l-.17,0h0l-.18,0H19.21l-.16,0-.18,0-.17,0-.17,0a.57.57,0,0,0-.18,0l-.17,0h0l-.15,0-.19,0-.11,0h-.09l-.1,0-.37.12-.12,0h0l-.09,0-.14,0-.1,0,0,0-.15.06-.13.06-.05,0-.13.06,0,0L16,2.91l0,0L15.85,3l-.19.1-.07,0-.13.08h0l-.14.09,0,0-.07.05h0l-.1.07h0l-.38.28-.07.06a.27.27,0,0,0-.08.07l-.07,0-.05,0,0,0,0,0-.1.09-.1.09h0l-.05,0-.1.1-.09.09-.1.11-.07.07L13.45,5l-.08.09,0,.06a.43.43,0,0,0,0,.07l-.14.18a.61.61,0,0,0-.07.1l-.08.1-.07.11-.06.09,0,0-.05.09L12.72,6l-.05.09-.08.13s0,.07-.05.1l-.06.11-.06.11-.1.22v0a.93.93,0,0,0-.05.1.54.54,0,0,1,0,.11l-.09.24a.42.42,0,0,0,0,.1.78.78,0,0,0-.05.14l0,.1c0,.07-.05.15-.07.23s0,.08,0,.11l0,.12c0,.09,0,.17-.07.25l0,.11a.29.29,0,0,0,0,.09l.11.11,2.62,2.61.1-.19.06-.1.12-.21.06-.09.06-.09a1.27,1.27,0,0,1,.13-.19l.06-.1.07-.09.22-.29h0l.07-.09.16-.18a2.73,2.73,0,0,1,.23-.25l.1-.11L16,9.16l.11-.11.15-.13,0,0,.18-.16.09-.08.1-.08.09-.07.2-.15.05,0,.09-.06.06,0,.1-.07.2-.13.09,0,.23-.14.1-.06a9.25,9.25,0,0,1,1.06-.48l.13,0h.05l.11,0,.08,0,.08,0,.19-.06.1,0,.11,0L20,7l.2-.05.1,0,.1,0h.11l.31,0h.41l.27,0h1.32c.16,0,.31,0,.47.06h0l.11,0h.09l.12,0h0l.15,0h0l.14,0,.2,0,.14,0,0,0,.15,0,.15,0,.06,0,.13.05.17.06.16.07h0l.15.06,0,0,.14.06.16.09.13.07,0,0,.1,0,0,0h0l.12.08a.6.6,0,0,1,.15.09h0l.13.08h0l.15.1.14.11.15.1.14.11.13.11h0l.14.11v0l.12.1.25.23h0l.1.11.15.14.12.13.1.12v0l.12.13h0a1.34,1.34,0,0,0,.11.14.86.86,0,0,1,.07.1h0l0,.05v0l.18.24h0a.71.71,0,0,1,.1.14l.1.15h0l.07.12L29,11l.09.15h0l.08.15.06.11,0,.06.06.12v0l.07.15h0l.06.13,0,.05v0a1.17,1.17,0,0,0,.05.11s0,.08,0,.12v0l0,0,.05.15c0,.05,0,.1,0,.15a.43.43,0,0,1,0,0l.05.15,0,.13a.19.19,0,0,1,0,.08.84.84,0,0,1,0,.17s0,.07,0,.1,0,.06,0,.09l0,.12v0l0,.16,0,.15h0v.1h0a1.37,1.37,0,0,1,0,.19,2.91,2.91,0,0,1,0,.31v.13h0v.09a.53.53,0,0,0,0,.13v.12c0-.12,0-.24,0-.36a4.53,4.53,0,0,0,0-.52c0-.12,0-.25,0-.37v-.18l0-.22c0-.22-.06-.45-.1-.67l0-.17,0-.18c0-.12-.05-.25-.07-.37l0-.12v0h0l0-.13s0-.09,0-.12a.57.57,0,0,0,0-.14,2.81,2.81,0,0,0-.08-.31l-.09-.32-.06-.19-.06-.18s0-.1-.05-.15L29.24,10h0a.43.43,0,0,0,0-.05,1.86,1.86,0,0,0-.1-.25A1.8,1.8,0,0,0,29,9.45.37.37,0,0,0,29,9.34v0l0-.05,0-.06,0,0L28.85,9l0,0-.06-.14-.07-.15v0l0-.05-.06-.12,0-.08,0-.07-.09-.17L28.36,8l-.16-.29L28,7.38,28,7.28l-.05-.08-.08-.13L27.76,7l-.08-.12-.14-.22-.11-.15-.1-.15L27.06,6v0h0l0,0h0l-.12-.16h0l-.28-.33,0,0-.16-.19L26.27,5l0,0-.1-.11,0,0-.06-.06L26,4.71l-.06-.07h0l0,0-.06-.06-.05,0h0l0,0-.05,0h0l-.06-.06,0,0h0l-.22-.21Z" style="fill:url(#e)"/><path d="M30.12,14.76a.53.53,0,0,1,0-.13v-.09h0V14.4a2.91,2.91,0,0,0,0-.31,1.37,1.37,0,0,0,0-.19h0v-.1h0l0-.15,0-.16v0l0-.12s0-.06,0-.09,0-.07,0-.1a.84.84,0,0,0,0-.17.19.19,0,0,0,0-.08l0-.13-.05-.15a.43.43,0,0,0,0,0c0-.05,0-.1,0-.15l-.05-.15,0,0v0s0-.08,0-.12a1.17,1.17,0,0,1-.05-.11v0l0-.05-.06-.13h0l-.07-.15v0l-.06-.12,0-.06-.06-.11-.08-.15h0L29,11l-.11-.19-.07-.12h0l-.1-.15a.71.71,0,0,0-.1-.14h0l-.18-.24v0l0-.05h0a.86.86,0,0,0-.07-.1,1.34,1.34,0,0,1-.11-.14h0l-.12-.13v0L28,9.51l-.12-.13-.15-.14-.1-.11h0l-.25-.23-.12-.1v0l-.14-.11h0L27,8.55l-.14-.11-.15-.1-.14-.11-.15-.1h0L26.25,8h0A.6.6,0,0,0,26.09,8L26,7.87h0l0,0-.1,0,0,0-.13-.07-.16-.09-.14-.06,0,0-.15-.06h0L25,7.38l-.17-.06-.13-.05-.06,0-.15,0-.15,0,0,0-.14,0-.2,0L23.8,7h0l-.15,0h0l-.12,0h-.09l-.11,0h0c-.16,0-.31,0-.47-.06H21.45l-.27,0h-.41l-.31,0h-.11l-.1,0-.1,0L20,7l-.19,0-.11,0-.1,0-.19.06-.08,0-.08,0-.11,0H19l-.13,0a9.25,9.25,0,0,0-1.06.48l-.1.06L17.52,8l-.09,0-.2.13-.1.07-.06,0L17,8.32l-.05,0-.2.15-.09.07-.1.08-.09.08-.18.16,0,0-.15.13L16,9.16l-.07.07-.1.11a2.73,2.73,0,0,0-.23.25l-.16.18-.07.09h0l-.22.29-.07.09-.06.1a1.27,1.27,0,0,0-.13.19l-.06.09-.06.09-.12.21-.06.1-.1.19.59.6,3.21-3.21a2.29,2.29,0,0,1,3.35,3.13l.09,0,.11,0,.25.07.12,0a9,9,0,0,1,1.09.41l.12.06.05,0,.11.05.07,0,.07,0,.18.09.09.05.1.06.17.1.17.11.08.06.08,0,0,0,.07.05.26.19.06,0,.06,0,.06.05.13.12.21.18.07.07.11.1.09.09.1.1.05.05h0l.09.1.09.09,0,0,.05.05,0,.05.05.07a.27.27,0,0,1,.07.08l.06.07.29.38v0l.06.09,0,0,0,.05.07.11,0,0,.08.13,0,0s0,.08.07.13l.11.18.07.13s0,0,0,0l.08.15.07.14,0,.05.06.13a1.22,1.22,0,0,1,.07.17l.07.16h0l.06.15v0a.88.88,0,0,1,.05.15l.06.17c0,.05,0,.1,0,.15s0,0,0,.05l0,.1a.43.43,0,0,0,0,.05v0l0,.14a1,1,0,0,1,0,.17h0l0,.15v0a1.36,1.36,0,0,0,0,.17l0,.17a1.1,1.1,0,0,0,0,.18,1.11,1.11,0,0,1,0,.17,1.1,1.1,0,0,1,0,.18h0c0,.06,0,.12,0,.18v0c0,.05,0,.1,0,.15s0,.23,0,.34v.37a1.09,1.09,0,0,0,0,.18c0,.05,0,.1,0,.15v0c0,.06,0,.12,0,.18h0a.88.88,0,0,1,0,.17s0,.08,0,.13h0a.17.17,0,0,0,0,.07h0c0,.1,0,.2,0,.3h0a1,1,0,0,0,0,.17l0,.17h0l0,.13a2.25,2.25,0,0,1,0,.22c0,.05,0,.11-.05.16h0c0,.05,0,.11-.05.16a.56.56,0,0,0,0,.12.19.19,0,0,0,0,.07l-.05.12v0l-.06.15h0a.69.69,0,0,0-.05.13l0,0s0,0,0,0l-.05.12a1.17,1.17,0,0,0-.05.11v0l0,.05c0,.05-.05.1-.07.14s-.05.09-.07.14l0,0c0,.05-.05.1-.07.14A.75.75,0,0,1,27,24,.25.25,0,0,1,27,24l-.09.16a.56.56,0,0,0-.05.08.35.35,0,0,0-.05.08l-.07.1,0,0-.1.14a.83.83,0,0,1-.08.12h0l-.05.08h0a1.71,1.71,0,0,0-.11.14l-.2.24-.08.1h0l-.05.06h0l-.08.09-.11.12,0,0h0l.1-.11h0v0l.07-.08.06-.05,0,0h0l0,0,.13-.15h0c.11-.12.22-.24.32-.37l0,0v0c.16-.19.31-.38.46-.58l.15-.2h0c0-.07.09-.13.13-.19v0a2.14,2.14,0,0,0,.13-.19l.06-.09.12-.18.14-.22h0l.06-.1.1-.17.08-.13h0a.83.83,0,0,1,.07-.13.8.8,0,0,0,.08-.16l.06-.1.05-.09,0,0a.47.47,0,0,0,.05-.1v0l.07-.13c0-.05.05-.1.07-.14h0l.06-.13a.3.3,0,0,0,0-.1l0,0,.06-.12v0l.05-.09.06-.15v0h0l0,0v0l0,0,0-.05.06-.16,0,0,0-.06a.78.78,0,0,0,.05-.14h0l0-.06v0l0-.12h0v0h0L29.3,20l0-.07,0-.08c0-.11.07-.22.1-.32l0-.05v0l.09-.3c0-.06,0-.12.05-.18s0-.11.05-.17a.85.85,0,0,1,0-.17l0-.13,0-.12a.83.83,0,0,0,0-.15l0-.15,0-.16,0-.17,0-.18c0-.07,0-.13,0-.2a.68.68,0,0,1,0-.14l0-.28a1,1,0,0,0,0-.16l0-.26v0l0-.36a1,1,0,0,0,0-.17,1.09,1.09,0,0,0,0-.18,1.09,1.09,0,0,0,0-.18c0-.06,0-.12,0-.18v-.66Z" style="fill:url(#f)"/><path d="M26,25.4h0l.05-.06h0l.08-.1.2-.24a1.71,1.71,0,0,1,.11-.14h0l.05-.08h0a.83.83,0,0,0,.08-.12l.1-.14,0,0,.07-.1a.35.35,0,0,1,.05-.08.56.56,0,0,1,.05-.08L27,24A.25.25,0,0,0,27,24a.75.75,0,0,0,.07-.12s.05-.09.07-.14l0,0c0-.05.05-.09.07-.14s0-.09.07-.14l0-.05v0a1.17,1.17,0,0,1,.05-.11l.05-.12s0,0,0,0l0,0a.69.69,0,0,1,.05-.13h0l.06-.15v0l.05-.12a.19.19,0,0,1,0-.07.56.56,0,0,1,0-.12c0-.05,0-.11.05-.16h0c0-.05,0-.11.05-.16a2.25,2.25,0,0,0,0-.22l0-.13h0l0-.17a1,1,0,0,1,0-.17h0c0-.1,0-.2,0-.3h0a.17.17,0,0,1,0-.07h0c0-.05,0-.09,0-.13a.88.88,0,0,0,0-.17h0c0-.06,0-.12,0-.18v0c0-.05,0-.1,0-.15a1.09,1.09,0,0,1,0-.18v-.37c0-.11,0-.22,0-.34s0-.1,0-.15v0c0-.06,0-.12,0-.18h0a1.1,1.1,0,0,0,0-.18,1.11,1.11,0,0,0,0-.17,1.1,1.1,0,0,1,0-.18l0-.17a1.36,1.36,0,0,1,0-.17v0l0-.15h0a1,1,0,0,0,0-.17l0-.14v0a.43.43,0,0,1,0-.05l0-.1s0,0,0-.05,0-.1,0-.15l-.06-.17a.88.88,0,0,0-.05-.15v0l-.06-.15h0l-.07-.16a1.22,1.22,0,0,0-.07-.17l-.06-.13,0-.05-.07-.14L27.2,16s0,0,0,0l-.07-.13L27,15.67c0-.05-.05-.09-.07-.13l0,0-.08-.13,0,0-.07-.11,0-.05,0,0-.06-.09v0l-.29-.38-.06-.07a.27.27,0,0,0-.07-.08l-.05-.07,0-.05-.05-.05,0,0L26,14.24l-.09-.1h0l-.05-.05-.1-.1-.09-.09-.11-.1-.07-.07-.21-.18-.13-.12L25,13.37l-.06,0-.06,0-.26-.19L24.59,13l0,0-.08,0-.08-.06-.17-.11-.17-.1-.1-.06-.09-.05-.18-.09-.07,0-.07,0-.11-.05-.05,0-.12-.06a9,9,0,0,0-1.09-.41l-.12,0-.25-.07-.11,0-.09,0-.11.11L18.9,14.47l.19.1.1.06.21.12.09.06.1.06.18.13.1.06.1.07.28.22h0l.09.07.18.16.26.23.1.1L21,16l.11.11.13.15,0,0,.16.18.08.09.08.1.07.09.15.2,0,.05.06.09,0,.06a.86.86,0,0,1,.07.1l.13.2.06.09.13.23.06.1a9.25,9.25,0,0,1,.48,1.06s0,.09.05.13l0,.05a.49.49,0,0,0,0,.11.24.24,0,0,0,0,.08.19.19,0,0,1,0,.08,1.39,1.39,0,0,1,.06.19l0,.1,0,.11c0,.07,0,.13,0,.19s0,.13,0,.2l0,.1s0,.07,0,.1v0a.29.29,0,0,0,0,.09c0,.1,0,.2,0,.31s0,.05,0,.08,0,0,0,.07a.19.19,0,0,0,0,.08c0,.06,0,.12,0,.18a2.45,2.45,0,0,1,0,.27v.1c0,.05,0,.1,0,.14V22h0v.13a.53.53,0,0,1,0,.13v.26a.45.45,0,0,1,0,.11v.09c0,.16,0,.31-.06.47v0a.52.52,0,0,1,0,.11v0s0,.05,0,.07l0,.12v0l0,.15v0l0,.14-.06.2c0,.05,0,.1,0,.14v0a.88.88,0,0,0-.05.15l-.06.15a.14.14,0,0,1,0,.06.69.69,0,0,1-.05.13l-.06.17a1.11,1.11,0,0,0-.07.16h0a1,1,0,0,0-.07.15l0,0-.06.14a.8.8,0,0,0-.08.16l-.08.13,0,0-.05.1,0,0v0a.75.75,0,0,0-.07.12l-.09.15h0l-.08.13h0l-.1.15-.1.14-.11.15a1.71,1.71,0,0,0-.11.14l-.11.13h0l-.11.14h0l-.1.12-.23.25h0l-.1.1-.15.15-.13.12-.12.1h0l-.13.12h0l-.14.11-.1.07h0a.1.1,0,0,1-.05,0h0l-.25.18h0l-.15.1-.15.1h0l-.12.07a1.18,1.18,0,0,1-.19.11l-.15.09h0l-.16.08-.11.06-.06,0-.12.06h0l-.16.07h0l-.13.06-.05,0h0l-.11.05-.12,0h0l-.05,0-.15.05-.15,0h0l-.16.05-.13,0-.07,0-.18,0-.1,0-.09,0-.12,0h0l-.16,0-.15,0h-.1l-.19,0-.3,0h.58l.18,0h.25l.45-.06.13,0h0l.21,0h0l.16,0h0l.1,0h.05l.16,0,.12,0,.18,0,.16,0,.1,0,.11,0L19,29.6h0l.07,0,.07,0,.06,0,.11,0h0l.1,0,.2-.06.19-.06.08,0,.07,0h0l.13-.05h0l.07,0,.24-.1h0l.17-.07h0l.1,0,.06,0,.13,0,0,0,.07,0,0,0h0l.07,0h0l.15-.07,0,0,.1,0h0l.09,0,.07,0,.07,0,.13-.07.12-.06.18-.1.19-.1.16-.09.21-.12.12-.08h0l.33-.21.1-.07.15-.09.13-.09.15-.11.08-.06L24,27.2l.15-.11.1-.08.16-.12.19-.16.14-.11.09-.08.1-.09.09-.07.09-.08.1-.09.1-.09,0,0h0l0,0,.07-.05,0,0,0,0,.08-.09h0l0,0h0l0,0,0,0,.06-.06,0,0,0,0h0l.11-.12Z" style="fill:url(#g)"/><path d="M14.54,0H14.4a1.55,1.55,0,0,0-.31,0l-.18,0h0l-.1,0-.15,0-.16,0h0l-.12,0-.1,0-.07,0-.07,0L13,.27l-.07,0h0l-.13,0-.14,0h0l0,0-.14,0h0l-.13,0-.06,0h0l-.12,0-.13.06-.06,0-.11.05-.22.09-.12.06-.19.1L11.13,1l-.05,0L11,1.07l-.34.21-.14.09-.14.1h0l-.24.18h0L10,1.7h0l-.1.07-.14.11h0L9.65,2h0l-.12.11-.13.12a.93.93,0,0,0-.14.14l-.11.1h0l-.23.25-.1.12,0,0L8.66,3l-.11.13a1.71,1.71,0,0,1-.11.14l-.1.15a1.71,1.71,0,0,0-.11.14l-.1.15h0A.57.57,0,0,1,8,3.87L7.94,4l-.06.1,0,0,0,0a.41.41,0,0,1,0,.09l-.18.34a.61.61,0,0,1,0,.12v0a.36.36,0,0,0,0,.09L7.44,5s0,.07-.05.1v0l-.06.15a.69.69,0,0,0-.05.13.14.14,0,0,0,0,.06l0,.14v0a.56.56,0,0,0,0,.12l0,0s0,.09,0,.14a1.94,1.94,0,0,0,0,.2l0,.09,0,.15H7l0,.17v.05s0,0,0,.08v0a.5.5,0,0,0,0,.12h0c0,.16,0,.32-.06.47a.28.28,0,0,0,0,.09.45.45,0,0,0,0,.11v.08a.15.15,0,0,1,0,.07v.1s0,.09,0,.14v.13h0v.35a.66.66,0,0,1,0,.14v.1l0,.4s0,.09,0,.13,0,.05,0,.08,0,.05,0,.07l0,.23a.5.5,0,0,1,0,.12l0,.13a.5.5,0,0,0,0,.12s0,.07,0,.11v0s0,.06,0,.1l0,.12,0,.1a.83.83,0,0,0,0,.15l0,.11s0,.08,0,.12a.56.56,0,0,0,0,.12,2,2,0,0,0,.08.22v0l0,.11.05.11a2.44,2.44,0,0,0,.1.24l0,.1.06.13.05.09a1.51,1.51,0,0,0,.11.22.54.54,0,0,1,0,.11l.06.11L8,12.6l0,.09.22.33.1.15.17.22.07.09a8.47,8.47,0,0,0,.63.7l0,.05.08.07v0l.13.12a9.08,9.08,0,0,0,.77.62,8.85,8.85,0,0,0,1,.6l.59-.6L8.61,11.85A2.29,2.29,0,0,1,11.74,8.5a.29.29,0,0,1,0-.09l0-.11c0-.08.05-.16.07-.25l0-.12s0-.07,0-.11.05-.16.07-.23l0-.1a.78.78,0,0,1,.05-.14.42.42,0,0,1,0-.1L12.21,7a.54.54,0,0,0,0-.11.93.93,0,0,1,.05-.1v0l.1-.22.06-.11.06-.11s0-.07.05-.1l.08-.13L12.72,6l.07-.11.05-.09,0,0,.06-.09L13,5.59l.08-.1a.61.61,0,0,1,.07-.1l.14-.18a.43.43,0,0,1,0-.07l0-.06L13.45,5l.27-.31.07-.07.1-.11L14,4.41l.1-.1.05,0h0l.1-.09.1-.09,0,0,0,0,.05,0,.07,0a.27.27,0,0,1,.08-.07l.07-.06.38-.28h0l.1-.07h0l.07-.05,0,0,.14-.09h0l.13-.08.07,0,.19-.1L16,2.93l0,0,.11-.05,0,0,.13-.06.05,0,.13-.06.15-.06,0,0,.1,0,.14,0,.09,0h0l.12,0,.37-.12.1,0h.09l.11,0,.19,0,.15,0h0l.17,0a.57.57,0,0,1,.18,0l.17,0,.17,0,.18,0,.16,0h1.25l.18,0h0l.17,0H21l.3,0h0l.17,0,.16,0,.39.1.12,0,.05,0,.12,0,.21.06.12,0,.22.08.12,0,.05,0,.14.06.11.05h0l.06,0,.12.06h0l.13.07,0,0h0l.12.07.12.07h0l.06,0,.11.06.06,0,.06,0,.09.06.1.06,0,0a.6.6,0,0,1,.13.09l.13.09.08.06h0l.14.12a2.23,2.23,0,0,1,.24.19l.1.09h0l.06,0,.22.21,0,0h0l0,0h0l0,0v0h0l0,0,0,0-.06-.06h0l0,0a.94.94,0,0,0-.1-.1l0,0,0,0h0l-.05,0h0l-.05,0L25,3.7l0,0-.13-.12-.14-.11,0,0,0,0-.05,0,0,0-.17-.14h0l-.15-.11-.36-.27-.07,0-.06,0-.24-.16-.24-.16,0,0L23,2.26l-.08,0h0a1.18,1.18,0,0,0-.19-.11l-.28-.17-.29-.16-.22-.11-.13-.07-.14-.07-.14-.06,0,0-.18-.08-.1-.05h-.06l-.06,0-.09,0h0l-.15-.06-.06,0,0,0h0L20.51,1h0l-.08,0-.08,0L20.18.89h0L20,.82h0l-.15,0-.14,0-.1,0-.13,0L19.14.56,19,.51l-.17,0-.17,0-.09,0-.09,0L17.91.27l-.17,0-.09,0h-.09l-.21,0h0l-.13,0L16.74.09h-.25l-.18,0H14.54Z" style="fill:url(#h)"/><path d="M11.74,8.5a2.29,2.29,0,0,0-3.13,3.35l3.21,3.21-.59.6L8.61,18.27a1.14,1.14,0,0,1-.11.11,2.29,2.29,0,0,0,3.35,3.13l3.21-3.21.6.6,2.61,2.61a1.14,1.14,0,0,1,.11.11,2.29,2.29,0,0,0,3.13-3.35L18.3,15.06l.6-.59,2.61-2.62.11-.11a2.29,2.29,0,0,0-3.35-3.13l-3.21,3.21-.59-.6L11.85,8.61Z" style="fill:none"/><path d="M39.42,17.4H41c0,1.58,1.28,2.51,3,2.51,1.59,0,2.85-.84,2.85-2.19s-1.5-1.83-3.15-2.21c-2-.47-4.12-1-4.12-3.52,0-2.19,1.69-3.53,4.32-3.53s4.23,1.46,4.23,3.76H46.64c0-1.41-1.15-2.23-2.7-2.23s-2.69.73-2.69,1.93c0,1.4,1.46,1.75,3.08,2.13,2,.48,4.24,1,4.24,3.66,0,2.39-2,3.76-4.47,3.76C41.31,21.47,39.42,19.9,39.42,17.4Z" style="fill:#212f4f"/><path d="M50.79,17.18V11.52h1.54v5.41c0,1.92,1.07,3.1,2.79,3.1s2.8-1.2,2.8-3.1V11.52h1.54v5.66a4.34,4.34,0,1,1-8.67,0Z" style="fill:#212f4f"/><path d="M67.73,11.47v1.46h-1c-1.79,0-2.8,1.16-2.8,3.06V21.3H62.4V11.52h1.09L63.74,13a3.56,3.56,0,0,1,3.13-1.54Z" style="fill:#212f4f"/><path d="M77.87,11.52,73.75,21.3H72.34l-4.23-9.78h1.61L73,19.3l3.26-7.78Z" style="fill:#212f4f"/><path d="M88.57,17H80.23a3.52,3.52,0,0,0,6.49,1.31h1.62a4.89,4.89,0,0,1-4.66,3.2,4.94,4.94,0,0,1-5-5.11,4.94,4.94,0,0,1,5-5.1,4.88,4.88,0,0,1,4.92,5.14A5.12,5.12,0,0,1,88.57,17Zm-4.89-4.24a3.32,3.32,0,0,0-3.41,2.82h6.79a3.31,3.31,0,0,0-3.38-2.82Z" style="fill:#212f4f"/><path d="M99.41,11.52,94.75,21.71c-1.06,2.32-2,3.09-3.83,3.09H90V23.4h.79c1.31,0,1.77-.4,2.56-2l.35-.73-4.35-9.12H91l3.47,7.41,3.28-7.41Z" style="fill:#212f4f"/><path d="M113.22,15c-.08,3.81-2.69,6.51-6.35,6.51A6.28,6.28,0,0,1,100.44,15a6.28,6.28,0,0,1,6.4-6.54A6.09,6.09,0,0,1,113,13.05h-1.63A4.55,4.55,0,0,0,106.87,10a4.71,4.71,0,0,0-4.81,5,4.67,4.67,0,0,0,4.81,5,4.49,4.49,0,0,0,4.61-3.44h-5.06V15Z" style="fill:#212f4f"/><path d="M124.69,17h-8.34a3.32,3.32,0,0,0,3.44,3,3.39,3.39,0,0,0,3-1.69h1.62a5,5,0,0,1-9.66-1.91,4.94,4.94,0,0,1,5-5.1,4.88,4.88,0,0,1,4.93,5.14C124.72,16.64,124.7,16.83,124.69,17Zm-4.9-4.24a3.32,3.32,0,0,0-3.41,2.82h6.8a3.32,3.32,0,0,0-3.39-2.82Z" style="fill:#212f4f"/><path d="M135.69,15.45V21.3h-1.54V15.81c0-2-.93-3.09-2.63-3.09a3.06,3.06,0,0,0-3,3.25V21.3H127V11.52h1.09l.3,1.54a4.12,4.12,0,0,1,3.51-1.75C134.24,11.31,135.69,13.06,135.69,15.45Z" style="fill:#212f4f"/><path d="M147.76,17h-8.34a3.32,3.32,0,0,0,3.44,3,3.37,3.37,0,0,0,3-1.69h1.62a5,5,0,0,1-9.65-1.91,4.93,4.93,0,0,1,5-5.1,4.88,4.88,0,0,1,4.93,5.14A5.12,5.12,0,0,1,147.76,17Zm-4.9-4.24a3.32,3.32,0,0,0-3.4,2.82h6.79a3.31,3.31,0,0,0-3.39-2.82Z" style="fill:#212f4f"/><path d="M155.43,11.47v1.46h-1c-1.79,0-2.8,1.16-2.8,3.06V21.3h-1.54V11.52h1.1l.25,1.49a3.55,3.55,0,0,1,3.12-1.54Z" style="fill:#212f4f"/><path d="M166.34,11.52V21.3h-1.27l-.17-1.48a5.1,5.1,0,0,1-8.9-3.41A5.11,5.11,0,0,1,164.92,13l.2-1.5Zm-1.57,4.89a3.6,3.6,0,1,0-7.19,0,3.6,3.6,0,1,0,7.19,0Z" style="fill:#212f4f"/><path d="M174.56,19.88V21.3h-1.27a3.15,3.15,0,0,1-3.4-3.41v-5h-1.72v-.27l3-3.19h.24v2.07h3.07v1.39h-3.07v4.93a1.85,1.85,0,0,0,2.06,2Z" style="fill:#212f4f"/><path d="M175.71,16.41a5.19,5.19,0,0,1,10.37,0,5.19,5.19,0,0,1-10.37,0ZM180.9,20a3.5,3.5,0,0,0,3.61-3.62,3.62,3.62,0,0,0-7.23,0A3.5,3.5,0,0,0,180.89,20Z" style="fill:#212f4f"/><path d="M193.75,11.47v1.46h-1c-1.8,0-2.8,1.16-2.8,3.06V21.3h-1.54V11.52h1.09l.25,1.49a3.56,3.56,0,0,1,3.13-1.54Z" style="fill:#212f4f"/></svg>