<svg xmlns="http://www.w3.org/2000/svg" xmlns:xlink="http://www.w3.org/1999/xlink" width="193.75" height="30.12" viewBox="0 0 193.75 30.12"><defs><linearGradient id="a" x1="595.21" y1="399.82" x2="608.34" y2="386.69" gradientUnits="userSpaceOnUse"><stop offset="0" stop-color="#a4e9fd"/><stop offset="1" stop-color="#43a8d8"/></linearGradient><linearGradient id="b" x1="589.74" y1="394.35" x2="601.47" y2="382.62" xlink:href="#a"/><linearGradient id="c" x1="589.18" y1="384.23" x2="602.51" y2="370.91" xlink:href="#a"/><linearGradient id="d" x1="587.85" y1="389.67" x2="597.86" y2="379.66" xlink:href="#a"/><linearGradient id="e" x1="600.89" y1="386.37" x2="612.62" y2="374.64" xlink:href="#a"/><linearGradient id="f" x1="604.5" y1="389.35" x2="614.51" y2="379.33" xlink:href="#a"/><linearGradient id="g" x1="599.86" y1="398.09" x2="613.18" y2="384.77" xlink:href="#a"/><linearGradient id="h" x1="594.03" y1="382.31" x2="607.16" y2="369.18" xlink:href="#a"/></defs><path d="M606.66,385l.25.23Z" transform="translate(-586.12 -369.44)" style="fill:none"/><path d="M601.94,378.78l-.23.25Z" transform="translate(-586.12 -369.44)" style="fill:none"/><path d="M601.61,399.55h.24a1.63,1.63,0,0,0,.31,0l.18,0h.11l.15,0,.15,0h0l.12,0,.1,0,.09,0,.18,0,.08,0,.13,0,.15-.05h.05l.14-.05.15-.05.06,0h0l.11,0,.12-.05h0l0,0,.13-.06h0l.15-.07h0l.12-.06.06,0,.12-.06.15-.08h0l.15-.09.2-.11.11-.07h0l.14-.1.15-.1h0l.24-.18h0l.06,0h0l.1-.07.13-.11h0l.14-.12h0l.12-.1.13-.12.15-.15.1-.1h0a2.73,2.73,0,0,0,.23-.25l.11-.12h0a1.34,1.34,0,0,0,.11-.14h0l.11-.13.1-.14.11-.15.1-.14.1-.15h0l.08-.13h0l.09-.15.07-.12v0l0,0,.05-.1,0-.05.07-.13.08-.16a.91.91,0,0,1,.07-.14v0l.07-.15h0l.07-.16a1.22,1.22,0,0,1,.07-.17.69.69,0,0,1,.05-.13.14.14,0,0,1,0-.06.88.88,0,0,1,0-.15c0-.05,0-.1.05-.15v0a.57.57,0,0,0,0-.14l.06-.2,0-.14v0a.83.83,0,0,0,0-.15v0l0-.12s0,0,0-.07v0a.36.36,0,0,1,0-.11v0c0-.16,0-.31.07-.47v-.09a.37.37,0,0,1,0-.11v-.39s0-.08,0-.13h0V391s0-.06,0-.1,0-.18,0-.27,0-.12,0-.18a.22.22,0,0,0,0-.08.17.17,0,0,0,0-.07.19.19,0,0,0,0-.08,2.91,2.91,0,0,0,0-.31.64.64,0,0,0,0-.09v0s0-.07,0-.1l0-.1c0-.07,0-.13,0-.2s0-.13,0-.19l0-.11s0-.06,0-.1l-.06-.19,0-.08a.24.24,0,0,0,0-.08s0-.08,0-.11l0,0a.69.69,0,0,0,0-.13,6.75,6.75,0,0,0-.48-1.06l-.06-.1-.13-.23-.06-.09a1.37,1.37,0,0,0-.13-.2.36.36,0,0,0-.07-.1l0-.06-.07-.09,0-.05-.14-.2-.08-.09-.08-.1-.07-.09-.16-.18,0,0-.14-.15-.1-.11-.07-.07-.11-.1-.25-.23-.19-.16-.09-.07h0l-.29-.22-.1-.07-.09-.06-.19-.13-.1-.06-.09-.06-.21-.12-.09-.06-.2-.1-.6.59,3.22,3.21a2.29,2.29,0,0,1-3.13,3.35.29.29,0,0,0,0,.09l0,.11-.06.25a.56.56,0,0,0,0,.12,8.93,8.93,0,0,1-.4,1.09l-.06.12,0,.05-.06.11,0,.07,0,.07a1.62,1.62,0,0,1-.1.18.41.41,0,0,1,0,.09l-.06.1a.86.86,0,0,1-.1.16,1.74,1.74,0,0,1-.11.18l-.06.08a.22.22,0,0,1,0,.08v0l-.05.07-.19.26-.05.06,0,.06,0,.06-.11.13-.19.21-.06.07-.1.11-.09.09-.11.1,0,.05h0l-.09.09a.39.39,0,0,1-.1.08l0,0,0,.05-.05,0-.06,0-.09.07-.07.06c-.12.1-.25.19-.38.28v0l-.09.06,0,0,0,0-.1.07,0,0-.13.08,0,0-.13.07-.18.11-.13.07h0l-.14.08a.61.61,0,0,0-.14.07l-.06,0-.13.06-.16.07-.17.07h0l-.15.06h0l-.14.05-.17.06-.15,0,0,0-.11,0h-.07l-.14,0-.16,0h0l-.16,0h0l-.18,0-.17,0-.18,0-.17,0-.17,0h0l-.17,0h-1.24l-.17,0h0l-.18,0h-.22l-.3,0h0l-.18,0-.17,0h0l-.13,0-.22,0-.17-.05h0l-.17-.05-.12,0-.06,0-.13-.05h0l-.16-.06h0l-.13-.06,0,0h0l-.11-.05-.11-.05h0l-.06,0-.14-.07-.13-.07-.05,0-.14-.07-.12-.07-.06,0-.16-.09-.09-.05-.08-.06-.1-.06,0,0-.13-.1-.12-.08h0l-.08-.05h0l-.15-.11-.24-.2-.1-.09h0l-.06-.05,0,0-.09-.08-.12-.11,0,0h0l0,0,.07.07,0,0h0l0,0,0,0h0a.46.46,0,0,0,.07.07s0,0,0,0h0a.52.52,0,0,0,.11.1l.06.06.17.15.16.13.05,0,.19.16.2.15h0l.19.14h0l.18.14.23.16,0,0,.1.07h0l.17.11.09.06a.41.41,0,0,0,.11.07l0,0,.09.06.21.13.1.06.14.08.13.08.11.06.05,0,.12.06.36.19.15.07h0l.17.08,0,0,.14.06,0,0,.07,0,.05,0h0l.16.08.06,0h0l.06,0h0l.15.06,0,0h0l.06,0,.11,0h0l.19.06.06,0h.09l.08,0,.08,0,.08,0,.19.06h.07l.39.12h0l.17.05.24.06.11,0,.2.05h0l.2,0,.13,0,.16,0h0l.16,0,.17,0h0l.16,0c.3.05.6.08.9.11l.36,0h1.5Z" transform="translate(-586.12 -369.44)" style="fill:url(#a)"/><path d="M590.84,395.44l0,0,.06.05h0l.1.09.24.2.15.11h0l.08.05h0l.12.08.13.1,0,0,.1.06.08.06.09.05.16.09.06,0,.12.07.14.07.05,0,.13.07.14.07.06,0h0l.11.05.11.05h0l0,0,.13.06h0l.16.06h0l.13.05.06,0,.12,0,.17.05h0l.17.05.22,0,.13,0h0l.17,0,.18,0h0l.3,0h.22l.18,0h0l.17,0H597l.17,0h0l.17,0,.17,0,.18,0,.17,0,.18,0h0l.16,0h0l.16,0,.14,0h.07l.11,0,0,0,.15,0,.17-.06.14-.05h0l.15-.06h0l.17-.07.16-.07.13-.06.06,0a.61.61,0,0,1,.14-.07l.14-.08h0l.13-.07.18-.11.13-.07,0,0,.13-.08,0,0,.1-.07,0,0,0,0,.09-.06v0c.13-.09.26-.18.38-.28l.07-.06.09-.07.06,0,.05,0,0-.05,0,0a.39.39,0,0,0,.1-.08l.09-.09h0l0-.05.11-.1.09-.09.1-.11.06-.07.19-.21.11-.13,0-.06,0-.06.05-.06.19-.26.05-.07v0a.22.22,0,0,0,0-.08l.06-.08a1.74,1.74,0,0,0,.11-.18.86.86,0,0,0,.1-.16l.06-.1a.41.41,0,0,0,0-.09,1.62,1.62,0,0,0,.1-.18l0-.07,0-.07.06-.11,0-.05.06-.12a8.93,8.93,0,0,0,.4-1.09.56.56,0,0,1,0-.12l.06-.25,0-.11a.29.29,0,0,1,0-.09,1.14,1.14,0,0,1-.11-.11l-2.62-2.61a9.74,9.74,0,0,1-.6,1,9.08,9.08,0,0,1-.62.77l-.12.13h0l-.07.08-.06.06c-.22.22-.45.42-.69.62l-.1.07-.22.17-.15.1-.33.22-.09.06-.22.13-.11.06-.11,0-.21.11L598,392l-.14.06-.1.05-.24.09-.11.05-.11,0h0l-.23.07-.12,0-.12,0-.11,0-.15,0-.1,0-.12,0-.1,0h0l-.1,0-.13,0-.12,0-.13,0-.22,0h-.28l-.41,0h-1.31c-.16,0-.32,0-.47-.06h0l-.11,0h0l-.08,0h0l-.16,0h0l-.15,0-.08,0-.21-.06-.14,0,0,0-.12,0h0l-.14-.05,0,0-.14-.05-.15-.06h0l-.1,0-.13-.07-.1,0h0l-.11-.05-.35-.18-.09,0-.05,0,0,0-.1-.06-.16-.1-.14-.08h0l-.15-.1-.14-.11a.71.71,0,0,1-.14-.1l-.14-.11-.14-.11-.12-.1,0,0-.12-.1-.25-.23h0l-.11-.1-.14-.15-.12-.13-.1-.12,0,0-.11-.13h0a1.34,1.34,0,0,1-.11-.14l-.08-.1h0l0,0v0l-.17-.24h0l-.1-.14-.08-.13c-.08-.12-.15-.24-.21-.35l-.06-.11,0-.05-.06-.11-.09-.19-.06-.12c0-.07-.07-.14-.1-.22l0-.11,0-.05a1.21,1.21,0,0,1-.05-.14l0-.12v0l0-.06,0-.13h0a.74.74,0,0,0,0-.14v-.07a.57.57,0,0,1,0-.14.5.5,0,0,1,0-.13h0a.64.64,0,0,0,0-.07l0-.13s0,0,0-.06,0-.05,0-.08l0-.1s0-.08,0-.12v0l0-.16c0-.05,0-.1,0-.15s0-.06,0-.1h0c0-.07,0-.13,0-.19l0-.31s0-.08,0-.13h0V385c0-.11,0-.21,0-.31v0h0v0a.76.76,0,0,1,0,.15v.4a.28.28,0,0,0,0,.09v.23c0,.06,0,.12,0,.18s0,.12,0,.18a.62.62,0,0,1,0,.13h0a1.94,1.94,0,0,0,0,.24l0,.2a2.89,2.89,0,0,0,0,.29l.06.38,0,.14v0l0,.06,0,.12s0,0,0,.06l0,.06a.59.59,0,0,0,0,.13.3.3,0,0,1,0,.1l.06.25c0,.09.05.18.08.27s0,0,0,.06l0,.12,0,.07,0,.1,0,.13.06.19,0,.1,0,.1,0,.08,0,.07h0c0,.06,0,.11,0,.16v.06s0,0,0,.05a.36.36,0,0,0,0,.09v.08l0,0h0l0,0h0v0h0a.49.49,0,0,0,0,.11v0h0a.61.61,0,0,0,0,.12,1.22,1.22,0,0,0,.07.17v0h0l0,.1,0,0h0a.25.25,0,0,1,0,.07.3.3,0,0,1,0,.08l.06.12a.17.17,0,0,1,0,.05h0l.08.16h0s0,.09.07.14l.08.16,0,.09a1.28,1.28,0,0,1,.11.2l.08.14.22.39.08.13.22.35.07.1a2.75,2.75,0,0,0,.19.28.43.43,0,0,1,0,.07,1.71,1.71,0,0,0,.11.14l0,0a2.43,2.43,0,0,0,.14.2,1.83,1.83,0,0,0,.13.16h0l.09.13.23.28,0,.05.15.17c0,.07.11.13.17.2h0l.14.15h0v0h0l0,0,.06.06.09.1,0,0h0l0,0h0l0,.05h0l0,0h0l0,0,0,.06.06.06,0,0h0l.12.11Z" transform="translate(-586.12 -369.44)" style="fill:url(#b)"/><path d="M590.17,374.23h0l-.09.1-.19.24-.12.14h0l-.06.08-.09.13-.09.13,0,0a.61.61,0,0,0-.07.1l-.06.09,0,.06,0,.06-.07.11,0,.06h0l-.06.12a.54.54,0,0,0-.07.13s0,0,0,0l0,0L589,376h0l-.06.12,0,.06v0a.37.37,0,0,1-.05.11.78.78,0,0,0,0,.14l0,.06s0,.07,0,.11l-.09.22s0,.08,0,.12a1.72,1.72,0,0,0-.07.21.56.56,0,0,1,0,.12v.06a.76.76,0,0,1,0,.11l-.09.39a1.24,1.24,0,0,0,0,.16l0,.17h0c0,.1,0,.2,0,.3h0a.2.2,0,0,0,0,.07h0c0,.05,0,.09,0,.13s0,.11,0,.17h0c0,.06,0,.12,0,.18v0a.81.81,0,0,0,0,.16.91.91,0,0,0,0,.17,1.48,1.48,0,0,1,0,.21v.16c0,.11,0,.22,0,.34a.76.76,0,0,0,0,.15v0s0,.11,0,.16,0,.12,0,.18a.88.88,0,0,1,0,.17l0,.17,0,.18,0,.17v0l0,.15c0,.07,0,.13,0,.2l0,.1a.06.06,0,0,1,0,0l0,.05,0,.1c0,.13.07.25.11.37s0,.09.05.13v0l0,.09c0,.05,0,.1.05.14a.69.69,0,0,1,0,.1l0,0,.06.15.06.13,0,.06.06.12,0,0,.06.11,0,0a.54.54,0,0,0,.07.13c0,.07.07.13.1.19a.56.56,0,0,1,0,.08l.08.12v0a1.1,1.1,0,0,0,.09.14l0,0a.16.16,0,0,0,0,.07l0,0,.06.1h0l.28.38.06.07.07.08.05.07,0,0,0,.05,0,0,.09.09.09.1h0l0,.05.1.1.1.1.1.09a.46.46,0,0,0,.07.07l.31.27.1.08.06.05.06,0,.18.14.1.08.11.07.1.07.09.06,0,0,.09,0,.11.07.09.05.13.08.11,0,.11.06.11.06.21.1h0l.1.05.11.05.24.09.11,0,.13,0,.1,0,.23.07.12,0,.12,0,.25.07.1,0,.1,0,.1-.11,2.62-2.61a8.72,8.72,0,0,1-1-.6,7.73,7.73,0,0,1-.77-.62l-.13-.12,0,0-.07-.07-.06-.06a5.86,5.86,0,0,1-.62-.69l-.08-.09-.16-.22-.11-.15-.22-.33,0-.09a2.53,2.53,0,0,1-.13-.22l-.06-.11-.06-.11a1.51,1.51,0,0,1-.11-.22l-.05-.09-.06-.13,0-.1a2.44,2.44,0,0,1-.1-.24,1.17,1.17,0,0,0-.05-.11l0-.11v0a2,2,0,0,1-.08-.22s0-.08,0-.12a.56.56,0,0,0,0-.12l0-.11c0-.05,0-.1,0-.15a.36.36,0,0,1,0-.1l0-.12,0-.11v0a.43.43,0,0,0,0-.11s0-.08,0-.12a10.13,10.13,0,0,0,0-.25,1.85,1.85,0,0,1,0-.23.17.17,0,0,0,0-.07v-.08s0-.08,0-.13,0-.27,0-.4a.38.38,0,0,1,0-.1v-.49h0v-.13a.66.66,0,0,0,0-.14v0a.13.13,0,0,0,0-.06V377s0-.07,0-.11,0-.06,0-.09,0-.31.07-.47h0s0-.08,0-.12v0s0-.05,0-.08v0a1,1,0,0,1,0-.17h0a.83.83,0,0,1,0-.15.29.29,0,0,1,0-.09,1.46,1.46,0,0,0,.05-.2l0-.14v0s0-.08,0-.12v0c0-.05,0-.1,0-.14s0,0,0-.06,0-.09.05-.13l.06-.15,0,0a.42.42,0,0,1,0-.1l.06-.14,0-.09v0l.06-.12a2.79,2.79,0,0,1,.18-.34.41.41,0,0,1,.05-.09l0-.05v0l.06-.1.1-.17.09-.13h0l.1-.15a1.3,1.3,0,0,1,.1-.15l.1-.14a.76.76,0,0,0,.11-.14l.11-.13.11-.13,0,0,.1-.12.24-.25h0l.1-.1.15-.15a.69.69,0,0,1,.13-.11l.11-.11h0l.13-.11h0l.13-.11.1-.07h0l.06,0h0l.24-.18h0l.15-.1.13-.09.35-.21.1-.05,0,0,.11-.06.2-.1.12-.06.21-.09.11-.05.06,0,.14-.06.11,0h0l.06,0,.13,0h0l.13,0,.05,0h0l.14,0,.13,0h.08l.12,0,.07,0,.07,0,.11,0,.12,0h0l.16,0,.15,0,.1,0h0l.18,0,.31,0h.05l-.28,0-.54,0h-.32l-.21,0-.18,0-.15,0-.2,0-.18,0-.18,0h0l-.17,0-.13,0-.25.06-.32.08-.18,0-.17.05-.1,0-.08,0-.17.05h0l-.13,0h0l-.2.06h0l-.12,0-.18.07h0l-.18.06,0,0h0l0,0h0l-.16.06h0l-.12.05,0,0-.3.13h0l-.14.06h0l-.15.07h0l-.16.07-.15.07-.34.18-.3.16-.31.18-.15.1-.16.09-.45.3-.15.1h0l-.2.14,0,0-.15.11-.09.06-.16.13-.16.12-.08.06-.14.12,0,0-.13.12-.09.07a.86.86,0,0,0-.14.13l-.06.05,0,0-.05.05,0,0a.94.94,0,0,1-.1.1l0,0h0l-.1.09,0,0,0,0h0l0,0h0l0,0h0l0,0-.13.14h0l-.21.22Z" transform="translate(-586.12 -369.44)" style="fill:url(#c)"/><path d="M586.14,385h0c0,.05,0,.09,0,.13l0,.31c0,.06,0,.12,0,.19h0s0,.07,0,.1,0,.1,0,.15l0,.16v0s0,.08,0,.12l0,.1s0,.05,0,.08,0,0,0,.06l0,.13a.64.64,0,0,1,0,.07h0a.5.5,0,0,0,0,.13.57.57,0,0,0,0,.14V387a.74.74,0,0,1,0,.14h0l0,.13,0,.06v0l0,.12a1.21,1.21,0,0,0,.05.14l0,.05,0,.11c0,.08.07.15.1.22l.06.12.09.19.06.11,0,.05.06.11c.06.11.13.23.21.35l.08.13.1.14h0l.17.24v0l0,0h0l.08.1a1.34,1.34,0,0,0,.11.14h0l.11.13,0,0,.1.12.12.13.14.15.11.1h0l.25.23.12.1,0,0,.12.1.14.11.14.11a.71.71,0,0,0,.14.1l.14.11.15.1h0l.14.08.16.1.1.06,0,0,.05,0,.09,0,.35.18.11.05h0l.1,0,.13.07.1,0h0l.15.06.14.05,0,0,.14.05h0l.12,0,0,0,.14,0,.21.06.08,0,.15,0h0l.16,0h0l.08,0h0l.11,0h0c.15,0,.31.05.47.06h1.31l.41,0h.28l.22,0,.13,0,.12,0,.13,0,.1,0h0l.1,0,.12,0,.1,0,.15,0,.11,0,.12,0,.12,0,.23-.07h0l.11,0,.11-.05.24-.09.1-.05L598,392l.09-.05.21-.11.11,0,.11-.06.22-.13.09-.06.33-.22.15-.1.22-.17.1-.07c.24-.2.47-.4.69-.62l.06-.06.07-.08h0l.12-.13a9.08,9.08,0,0,0,.62-.77,9.74,9.74,0,0,0,.6-1l-.6-.6L598,391a2.29,2.29,0,0,1-3.34-3.13l-.1,0-.1,0-.25-.07-.12,0-.12,0-.23-.07-.1,0-.13,0-.11,0-.24-.09-.11-.05-.1-.05h0l-.21-.1-.11-.06-.11-.06-.11,0-.13-.08-.09-.05-.11-.07-.09,0,0,0-.09-.06-.1-.07-.11-.07-.1-.08-.18-.14-.06,0-.06-.05-.1-.08-.31-.27a.46.46,0,0,1-.07-.07l-.1-.09-.1-.1-.1-.1,0-.05h0l-.09-.1-.09-.09,0,0,0-.05,0,0L590,385,590,385l-.06-.07-.28-.38h0l-.06-.1,0,0a.16.16,0,0,1,0-.07l0,0a1.1,1.1,0,0,1-.09-.14v0l-.08-.12a.56.56,0,0,0,0-.08c0-.06-.07-.12-.1-.19a.54.54,0,0,1-.07-.13l0,0-.06-.11,0,0-.06-.12,0-.06-.06-.13-.06-.15,0,0a.69.69,0,0,0,0-.1s0-.09-.05-.14l0-.09v0s0-.09-.05-.13-.08-.24-.11-.37l0-.1,0-.05a.06.06,0,0,0,0,0l0-.1c0-.07,0-.13,0-.2l0-.15v0l0-.17,0-.18,0-.17a.88.88,0,0,0,0-.17c0-.06,0-.12,0-.18s0-.11,0-.16v0a.76.76,0,0,1,0-.15c0-.12,0-.23,0-.34v-.16a1.48,1.48,0,0,0,0-.21.91.91,0,0,1,0-.17.81.81,0,0,1,0-.16v0c0-.06,0-.12,0-.18h0c0-.06,0-.11,0-.17s0-.08,0-.13h0a.2.2,0,0,1,0-.07h0c0-.1,0-.2,0-.3h0l0-.17a1.24,1.24,0,0,1,0-.16l.09-.39a.76.76,0,0,0,0-.11v-.06a.56.56,0,0,0,0-.12,1.72,1.72,0,0,1,.07-.21s0-.08,0-.12l.09-.22s0-.08,0-.11l0-.06a.78.78,0,0,1,0-.14.37.37,0,0,0,.05-.11v0l0-.06L589,376h0l.06-.13,0,0s0,0,0,0a.54.54,0,0,1,.07-.13l.06-.12h0l0-.06.07-.11,0-.06,0-.06.06-.09a.61.61,0,0,1,.07-.1l0,0,.09-.13.09-.13.06-.08h0l.12-.14.19-.24.09-.1h0l.06-.06.21-.22,0,0,0,0,0,0h0l0,0h0l-.12.13-.11.12,0,0-.07.07-.06.08-.11.12-.11.13-.12.14-.17.21-.16.21a1.13,1.13,0,0,0-.1.13,1.37,1.37,0,0,0-.15.21l-.18.24-.2.3-.07.1,0,.09-.09.14v0a2.26,2.26,0,0,0-.16.26l-.09.15-.09.16-.09.16-.09.16-.07.13-.09.19a1,1,0,0,0-.07.15l-.09.17-.08.17-.06.14c-.07.16-.14.32-.2.48a.3.3,0,0,1,0,.08V379l0,.11v0l0,.06a.5.5,0,0,0-.05.13v0l0,0h0c0,.05,0,.1,0,.16h0l-.06.15-.06.19V380l-.06.19v0a.56.56,0,0,0,0,.12l0,.09-.09.35,0,.12V381l0,.17v0a1.62,1.62,0,0,0,0,.19l0,.12-.06.33c0,.14,0,.28-.07.41a.78.78,0,0,0,0,.14l0,.19s0,.1,0,.15a1.94,1.94,0,0,0,0,.24h0a.57.57,0,0,1,0,.13c0,.06,0,.12,0,.18s0,.12,0,.18v.06a.43.43,0,0,1,0,.05v.29h0v.5h0v0h0v.24h0c0,.1,0,.2,0,.31Z" transform="translate(-586.12 -369.44)" style="fill:url(#d)"/><path d="M611.45,373.49h0l-.1-.09-.24-.2-.15-.11h0l-.09-.06-.12-.09a.51.51,0,0,0-.13-.09l0,0-.1-.06-.09-.06-.07,0-.06,0-.11-.06-.06,0h0l-.11-.07-.13-.07h0l-.05,0-.12-.07h0l-.12-.06-.06,0h0l-.11-.05-.14-.06-.05,0L609,372l-.21-.08-.13-.05-.21-.06-.12,0-.05,0-.11,0-.4-.1-.15,0-.18,0h0l-.29,0h-.22l-.18,0h0l-.18,0h-1.25l-.16,0-.17,0-.18,0-.17,0-.18,0-.17,0h0l-.15,0-.19,0-.11,0h-.09l-.1,0-.37.12-.12,0h0l-.1,0-.14.06-.1,0,0,0-.15.06-.13.06-.05,0-.13.06,0,0-.11.05,0,0-.13.07-.18.11-.08,0-.13.08h0l-.15.09,0,0-.06.05h0l-.09.07h0l-.38.28-.07.06-.08.07-.06,0-.06.05,0,0,0,0-.1.09-.1.09h0l0,.05-.1.1-.09.09-.1.11-.07.07a3.88,3.88,0,0,0-.26.31l-.08.09,0,.06-.05.07-.14.18-.07.1a.61.61,0,0,0-.07.1l-.07.11-.06.09,0,0-.06.09-.06.11-.06.09s0,.08-.07.13l-.06.1-.06.11-.05.11a2.26,2.26,0,0,0-.11.22v0a1,1,0,0,0,0,.1.54.54,0,0,0,0,.11,2.44,2.44,0,0,0-.1.24l0,.1-.05.14,0,.09c0,.08,0,.16-.08.24l0,.11a.56.56,0,0,0,0,.12l-.06.25,0,.11s0,.06,0,.09a1.14,1.14,0,0,1,.11.11l2.62,2.61.11-.19a.31.31,0,0,1,0-.1l.12-.21.06-.09L601,380c0-.07.09-.13.13-.19l.06-.1.08-.09a3.15,3.15,0,0,1,.22-.29h0l.07-.09.16-.18.23-.25.11-.11.07-.07.1-.11.15-.13,0,0,.18-.16.1-.08.09-.08.1-.07.19-.15.06,0,.09-.06,0,0,.1-.07.2-.13.09,0,.23-.14.11-.06a9.1,9.1,0,0,1,1-.48l.13-.05h.05l.12,0,.07,0,.08,0,.2-.06.1,0,.11,0,.18,0,.21-.05.1,0,.09,0h.11l.31-.05h.41l.28,0h1.31c.16,0,.32,0,.47.06h0l.11,0h.09l.12,0h0l.14,0h0l.14,0,.2,0,.15,0,0,0,.16.05.15.05,0,0,.14.05.16.06.17.07h0l.15.06,0,0,.14.06.16.08.14.08.05,0,.09,0,.05,0h0l.13.07a.71.71,0,0,1,.14.1h0l.13.08h0l.14.1.15.11.14.1.14.11.14.11h0l.13.11,0,0,.11.1.25.23h0l.11.1.14.15.12.13.1.12,0,0,.11.13h0l.11.14.08.1h0l.05,0v0l.17.24h0l.1.14.09.15h0a.75.75,0,0,1,.07.12l.12.19.08.15h0a1.09,1.09,0,0,1,.08.15l.06.11,0,.06.06.12v0a1,1,0,0,1,.07.15h0l.06.13,0,.05,0,0s0,.08,0,.11a.56.56,0,0,1,0,.12v0l0,.05a193164503182.61,193164503182.61,0,0,0,.1.3s0,0,0,.05,0,.1,0,.15,0,.08,0,.13a.19.19,0,0,0,0,.07c0,.06,0,.12,0,.18a.36.36,0,0,1,0,.1.29.29,0,0,1,0,.09l0,.12a.06.06,0,0,0,0,0l0,.16a.77.77,0,0,0,0,.15h0v.1h0l0,.19,0,.31a.62.62,0,0,0,0,.13h0v.09a.57.57,0,0,1,0,.13v.12c0-.12,0-.24,0-.36s0-.35,0-.52l0-.37a.28.28,0,0,1,0-.09v-.09l0-.22c0-.22-.06-.45-.09-.67l0-.17a1.16,1.16,0,0,0,0-.18c0-.12,0-.25-.07-.37l0-.12v0h0l0-.13,0-.13,0-.13c0-.11-.06-.21-.08-.31s-.07-.21-.1-.32l-.06-.19-.06-.18a.88.88,0,0,0-.05-.15l-.06-.17h0s0,0,0,0l-.09-.25-.09-.21s0-.08,0-.12h0l0-.05a.14.14,0,0,1,0-.06l0,0c0-.06,0-.13-.08-.19v0a.61.61,0,0,0-.07-.14,1,1,0,0,0-.07-.15v0l0,0-.06-.12,0-.08a.25.25,0,0,1,0-.07l-.09-.18-.09-.17-.16-.29-.18-.31-.06-.1a.22.22,0,0,0-.05-.08.57.57,0,0,0-.08-.13.41.41,0,0,0-.07-.11l-.07-.12-.15-.22-.1-.15-.11-.15-.26-.36,0,0h0v0h0c0-.06-.09-.11-.13-.16h0l-.27-.33,0,0c-.06-.06-.11-.13-.16-.19a1.07,1.07,0,0,1-.14-.16l0,0-.09-.11,0,0-.06-.06-.06-.06-.06-.07h0l0,0L612,374l-.05-.05h0l0,0,0,0h0l-.05-.06,0,0h0l-.23-.21Z" transform="translate(-586.12 -369.44)" style="fill:url(#e)"/><path d="M616.24,384.2a.57.57,0,0,0,0-.13V384h0a.62.62,0,0,1,0-.13l0-.31,0-.19h0v-.1h0a.77.77,0,0,1,0-.15l0-.16a.06.06,0,0,1,0,0l0-.12a.29.29,0,0,0,0-.09.36.36,0,0,0,0-.1c0-.06,0-.12,0-.18a.19.19,0,0,1,0-.07c0-.05,0-.09,0-.13s0-.1,0-.15,0,0,0-.05a193164503182.61,193164503182.61,0,0,1-.1-.3l0-.05v0a.56.56,0,0,0,0-.12s0-.07,0-.11l0,0,0-.05-.06-.13h0a1,1,0,0,0-.07-.15v0l-.06-.12,0-.06-.06-.11a1.09,1.09,0,0,0-.08-.15h0l-.08-.15-.12-.19a.75.75,0,0,0-.07-.12h0l-.09-.15-.1-.14h0l-.17-.24v0l-.05,0h0l-.08-.1-.11-.14h0l-.11-.13,0,0-.1-.12-.12-.13-.14-.15-.11-.1h0l-.25-.23-.11-.1,0,0-.13-.11h0l-.14-.11-.14-.11-.14-.1-.15-.11-.14-.1h0l-.13-.08h0a.71.71,0,0,0-.14-.1l-.13-.07h0l-.05,0-.09,0-.05,0-.14-.08-.16-.08-.14-.06,0,0-.15-.06h0l-.17-.07-.16-.06-.14-.05,0,0-.15-.05-.16-.05,0,0-.15,0-.2,0-.14,0h0l-.14,0h0l-.12,0h-.09l-.11,0h0c-.15,0-.31-.05-.47-.06h-1.31l-.28,0h-.41l-.31.05h-.11l-.09,0-.1,0-.21.05-.18,0-.11,0-.1,0-.2.06-.08,0-.07,0-.12,0h-.05l-.13.05a9.1,9.1,0,0,0-1,.48l-.11.06-.23.14-.09,0-.2.13-.1.07,0,0-.09.06-.06,0-.19.15-.1.07-.09.08-.1.08-.18.16,0,0-.15.13-.1.11-.07.07-.11.11-.23.25-.16.18-.07.09h0a3.15,3.15,0,0,0-.22.29l-.08.09-.06.1c0,.06-.09.12-.13.19l-.06.09-.06.09-.12.21a.31.31,0,0,0,0,.1l-.11.19.59.6,3.22-3.21a2.29,2.29,0,0,1,3.34,3.13l.1,0,.1,0,.25.07.12,0a8.41,8.41,0,0,1,1.09.41l.13.06,0,0,.11.05.07,0,.08,0,.17.09.09.05.1.06.17.1.17.11.09.06.08,0v0l.08,0,.25.19.06,0,.06.05.06.05.14.12.2.18.08.07.1.09.09.1.1.1.05.05h0l.09.1.09.09,0,0,0,.05,0,0,.06.07.07.08.05.07c.1.13.2.25.29.38v0l.06.09,0,0,0,.05.07.11,0,0,.08.12,0,0,.08.13.1.18s0,.08.07.13l0,0,.07.14a1,1,0,0,1,.07.15s0,0,0,.05a.75.75,0,0,1,.06.13,1.22,1.22,0,0,1,.07.17,1.11,1.11,0,0,1,.07.16h0l.06.16v0l.06.15a1.54,1.54,0,0,0,0,.17c0,.05,0,.1,0,.14s0,0,0,.06l0,.1s0,0,0,.05v0c0,.05,0,.09,0,.14a1,1,0,0,0,0,.17h0l0,.15v0l0,.17,0,.17a1.1,1.1,0,0,1,0,.18l0,.17a1.1,1.1,0,0,0,0,.18h0c0,.06,0,.12,0,.18v0a.76.76,0,0,1,0,.15c0,.12,0,.23,0,.34v.37a.91.91,0,0,1,0,.17.81.81,0,0,1,0,.16v0c0,.06,0,.12,0,.18h0a1.11,1.11,0,0,0,0,.17s0,.08,0,.13h0s0,.05,0,.07h0c0,.1,0,.2,0,.3h0l0,.17a1.36,1.36,0,0,0,0,.17h0l0,.13-.06.22a1,1,0,0,1-.05.16h0a1,1,0,0,1,0,.16l0,.12s0,.05,0,.07a.61.61,0,0,1,0,.12v0l-.06.15h0s0,.08-.05.13l0,.05,0,0a.61.61,0,0,1-.05.12l0,.11v0l0,.05c0,.05-.05.1-.07.14l-.07.14s0,0,0,0,0,.1-.08.14l-.06.12a.25.25,0,0,0,0,.07s-.07.1-.1.16l0,.08-.05.08-.07.1,0,0-.09.14-.09.12h0l-.06.08h0l-.11.14-.19.24-.09.1h0l-.05.05v0l-.09.09-.11.12,0,0h0l.1-.11h0v0l.08-.08.05-.05,0,0h0l0,0,.14-.15h0l.33-.37v0l0,0c.15-.19.31-.38.45-.58l.15-.2v0l.14-.18v0a2.14,2.14,0,0,1,.13-.19l.06-.09a1.74,1.74,0,0,0,.11-.18,1.64,1.64,0,0,0,.14-.22h0l.07-.1.09-.17.08-.13h0c0-.05,0-.09.07-.13l.09-.16.05-.1,0-.09,0,0,.06-.11h0l.06-.13c0-.05.05-.1.07-.14h0l.06-.12.05-.1v0l.06-.13,0,0a.36.36,0,0,1,0-.09l.06-.15v0h0s0,0,0-.05l0,0v0l0-.05.07-.16v0l0-.06.06-.14h0l0-.06v0l0-.12h0v0h0l.06-.17,0-.07s0-.06,0-.08.07-.22.11-.33v-.06l.09-.3c0-.06,0-.12,0-.18s0-.11,0-.17,0-.12,0-.18l0-.12,0-.12,0-.15,0-.15,0-.16a1.16,1.16,0,0,0,0-.18l0-.17,0-.2c0-.05,0-.1,0-.14s0-.19,0-.28a.78.78,0,0,1,0-.16,2.28,2.28,0,0,0,0-.26v0l0-.36a1.09,1.09,0,0,1,0-.18,1,1,0,0,1,0-.17V385a1.09,1.09,0,0,0,0-.18v-.66Z" transform="translate(-586.12 -369.44)" style="fill:url(#f)"/><path d="M612.13,394.84v0l.05-.05h0l.09-.1.19-.24.11-.14h0l.06-.08h0l.09-.12.09-.14,0,0,.07-.1.05-.08,0-.08c0-.06.07-.11.1-.16a.25.25,0,0,1,0-.07l.06-.12s0-.09.08-.14,0,0,0,0l.07-.14s.05-.09.07-.14l0-.05v0l0-.11a.61.61,0,0,0,.05-.12l0,0,0-.05c0-.05,0-.09.05-.13h0l.06-.15v0a.61.61,0,0,0,0-.12s0-.05,0-.07l0-.12a1,1,0,0,0,0-.16h0a1,1,0,0,0,.05-.16l.06-.22,0-.13h0a1.36,1.36,0,0,1,0-.17l0-.17h0c0-.1,0-.2,0-.3h0s0,0,0-.07h0c0-.05,0-.09,0-.13a1.11,1.11,0,0,1,0-.17h0c0-.06,0-.12,0-.18v0a.81.81,0,0,0,0-.16.91.91,0,0,0,0-.17v-.37c0-.11,0-.22,0-.34a.76.76,0,0,0,0-.15v0c0-.06,0-.12,0-.18h0a1.1,1.1,0,0,1,0-.18l0-.17a1.1,1.1,0,0,0,0-.18l0-.17,0-.17v0l0-.15h0a1,1,0,0,1,0-.17s0-.09,0-.14v0s0,0,0-.05l0-.1s0,0,0-.06,0-.09,0-.14a1.54,1.54,0,0,1,0-.17l-.06-.15v0l-.06-.16h0a1.11,1.11,0,0,0-.07-.16,1.22,1.22,0,0,0-.07-.17.75.75,0,0,0-.06-.13s0,0,0-.05a1,1,0,0,0-.07-.15l-.07-.14,0,0c0-.05,0-.09-.07-.13l-.1-.18-.08-.13,0,0-.08-.12,0,0-.07-.11,0-.05,0,0-.06-.09v0c-.09-.13-.19-.25-.29-.38l-.05-.07-.07-.08-.06-.07,0,0,0-.05,0,0-.09-.09-.09-.1h0l-.05-.05-.1-.1-.09-.1-.1-.09-.08-.07-.2-.18-.14-.12-.06-.05-.06-.05-.06,0-.25-.19-.08,0v0l-.08,0-.09-.06-.17-.11-.17-.1-.1-.06L610,382l-.17-.09-.08,0-.07,0-.11-.05,0,0-.13-.06a8.41,8.41,0,0,0-1.09-.41l-.12,0-.25-.07-.1,0-.1,0-.1.11L605,383.91l.2.1.09.06.21.12.09.06.1.06.19.13.09.06.1.07.29.22h0l.09.07.19.16.25.23.11.1.07.07.1.11.14.15,0,0,.16.18.07.09.08.1.08.09.14.2,0,.05.07.09,0,.06a.36.36,0,0,1,.07.1,1.37,1.37,0,0,1,.13.2l.06.09.13.23.06.1a6.75,6.75,0,0,1,.48,1.06.69.69,0,0,1,0,.13l0,0s0,.07,0,.11a.24.24,0,0,1,0,.08l0,.08.06.19s0,.07,0,.1l0,.11c0,.06,0,.13,0,.19s0,.13,0,.2l0,.1s0,.06,0,.1v0a.64.64,0,0,1,0,.09,2.91,2.91,0,0,1,0,.31.19.19,0,0,1,0,.08.17.17,0,0,1,0,.07.22.22,0,0,1,0,.08c0,.06,0,.12,0,.18s0,.18,0,.27,0,.07,0,.1v.49h0c0,.05,0,.09,0,.13V392a.37.37,0,0,0,0,.11v.09c0,.16,0,.31-.07.47v0a.36.36,0,0,0,0,.11v0s0,.05,0,.07l0,.12v0a.83.83,0,0,1,0,.15v0l0,.14-.06.2a.57.57,0,0,1,0,.14v0c0,.05,0,.1-.05.15a.88.88,0,0,0,0,.15.14.14,0,0,0,0,.06.69.69,0,0,0-.05.13,1.22,1.22,0,0,0-.07.17l-.07.16h0l-.07.15v0a.91.91,0,0,0-.07.14l-.08.16-.07.13,0,.05-.05.1,0,0v0l-.07.12-.09.15h0l-.08.13h0l-.1.15-.1.14-.11.15-.1.14-.11.13h0a1.34,1.34,0,0,1-.11.14h0l-.11.12a2.73,2.73,0,0,1-.23.25h0l-.1.1-.15.15-.13.12-.12.1h0l-.14.12h0l-.13.11-.1.07h0l-.06,0h0l-.24.18h0l-.15.1-.14.1h0l-.11.07-.2.11-.15.09h0l-.15.08-.12.06-.06,0-.12.06h0l-.15.07h0l-.13.06,0,0h0l-.12.05-.11,0h0l-.06,0-.15.05-.14.05h-.05l-.15.05-.13,0-.08,0-.18,0-.09,0-.1,0-.12,0h0l-.15,0-.15,0h-.11l-.18,0a1.63,1.63,0,0,1-.31,0h.59l.17,0h.25l.45-.06.13,0h0l.21,0h0l.15,0h0l.09,0H604l.15,0,.12,0,.19,0,.15,0,.1,0,.11,0,.25-.07h0l.07,0,.07,0,.06,0,.11,0h0l.1,0,.19-.06.19-.06.08,0,.08,0h0l.13-.05h0l.07,0,.24-.09h0l.16-.06h.05l.09,0,.06,0,.13-.06h0l.06,0,0,0h0l.06,0h0l.15-.07,0,0,.09,0h0l.09,0,.07,0,.08,0,.12-.07.12-.06.18-.1.19-.1.16-.09.21-.12.12-.08h0l.32-.21.11-.07.15-.1.12-.08.16-.11.07-.06.12-.08.15-.11.1-.08.16-.13.19-.15.14-.12.09-.07.11-.09.08-.07.09-.08.1-.09.1-.09,0,0h0l0,0,.06-.05,0,0,0,0,.09-.09h0l0,0h0l0,0,0,0,0-.06,0,0,0,0h0l.11-.12Z" transform="translate(-586.12 -369.44)" style="fill:url(#g)"/><path d="M600.66,369.46h-.14l-.31,0-.18,0h0l-.1,0-.15,0-.16,0h0l-.12,0-.11,0-.07,0-.07,0-.12,0H599l-.13,0-.14,0h0l-.05,0-.13,0h0l-.13,0-.06,0h0l-.11,0-.14.06-.06,0-.11.05-.21.09-.12.06-.2.1-.11.06,0,0-.1.05-.35.21-.13.09-.15.1h0l-.24.18h0l-.06,0h0l-.1.07-.13.11h0l-.13.11h0l-.11.11a.69.69,0,0,0-.13.11l-.15.15-.1.1h0l-.24.25-.1.12,0,0-.11.13-.11.13a.76.76,0,0,1-.11.14l-.1.14a1.3,1.3,0,0,0-.1.15l-.1.15h0l-.09.13-.1.17-.06.1v0l0,.05a.41.41,0,0,0-.05.09,2.79,2.79,0,0,0-.18.34l-.06.12v0l0,.09-.06.14a.42.42,0,0,0,0,.1l0,0-.06.15s0,.09-.05.13,0,0,0,.06,0,.09,0,.14v0s0,.08,0,.12v0l0,.14a1.46,1.46,0,0,1-.05.2.29.29,0,0,0,0,.09.83.83,0,0,0,0,.15h0a1,1,0,0,0,0,.17v0s0,.05,0,.08v0s0,.08,0,.12h0c0,.16,0,.31-.07.47s0,.06,0,.09,0,.08,0,.11v.15a.13.13,0,0,1,0,.06v0a.66.66,0,0,1,0,.14v.13h0V378a.38.38,0,0,0,0,.1c0,.13,0,.27,0,.4s0,.09,0,.13v.08a.17.17,0,0,1,0,.07,1.85,1.85,0,0,0,0,.23,10.13,10.13,0,0,1,0,.25s0,.08,0,.12a.43.43,0,0,1,0,.11v0l0,.11,0,.12a.36.36,0,0,0,0,.1c0,.05,0,.1,0,.15l0,.11a.56.56,0,0,1,0,.12s0,.08,0,.12a2,2,0,0,0,.08.22v0l0,.11a1.17,1.17,0,0,1,.05.11,2.44,2.44,0,0,0,.1.24l0,.1.06.13.05.09a1.51,1.51,0,0,0,.11.22l.06.11.06.11a2.53,2.53,0,0,0,.13.22l0,.09.22.33.11.15.16.22.08.09a5.86,5.86,0,0,0,.62.69l.06.06.07.07,0,0,.13.12a7.73,7.73,0,0,0,.77.62,8.72,8.72,0,0,0,1,.6l.59-.6-3.21-3.21a2.29,2.29,0,0,1,3.13-3.35s0-.06,0-.09l0-.11.06-.25a.56.56,0,0,1,0-.12l0-.11c0-.08.05-.16.08-.24l0-.09.05-.14,0-.1a2.44,2.44,0,0,1,.1-.24.54.54,0,0,1,0-.11,1,1,0,0,1,0-.1v0a2.26,2.26,0,0,1,.11-.22l.05-.11.06-.11.06-.1c0-.05,0-.09.07-.13l.06-.09.06-.11.06-.09,0,0,.06-.09.07-.11a.61.61,0,0,1,.07-.1l.07-.1.14-.18.05-.07,0-.06.08-.09a3.88,3.88,0,0,1,.26-.31l.07-.07.1-.11.09-.09.1-.1,0-.05h0l.1-.09.1-.09,0,0,0,0,.06-.05.06,0,.08-.07.07-.06.38-.28h0l.09-.07h0l.06-.05,0,0,.15-.09h0l.13-.08.08,0,.18-.11.13-.07,0,0,.11-.05,0,0,.13-.06.05,0,.13-.06.15-.06,0,0,.1,0L603,372l.1,0h0l.12,0,.37-.12.1,0h.09l.11,0,.19,0,.15,0h0l.17,0,.18,0,.17,0,.18,0,.17,0,.16,0h1.25l.18,0h0l.18,0h.22l.29,0h0l.18,0,.15,0,.4.1.11,0,.05,0,.12,0,.21.06.13.05.21.08.12.05.05,0,.14.06.11.05h0l.06,0,.12.06h0l.12.07.05,0h0l.13.07.11.07h0l.06,0,.11.06.06,0,.07,0,.09.06.1.06,0,0a.51.51,0,0,1,.13.09l.12.09.09.06h0l.15.11.24.2.1.09h0l.06.05.23.21,0,0h0l0,0h0l0,0v0h0l0,0,0,0-.06-.05h0l0,0-.11-.1,0,0,0,0h0l0,0h0l-.05,0-.1-.1,0,0-.14-.12-.14-.11,0,0,0,0-.05,0,0,0-.18-.14,0,0h0a.91.91,0,0,1-.16-.11l-.36-.27-.06-.05-.07,0-.24-.16-.23-.16,0,0-.17-.1-.08-.05h0l-.18-.11-.29-.17-.29-.16-.22-.11-.12-.07-.15-.07-.14-.06,0,0-.17-.08-.11-.05h-.06l0,0-.09,0h0l-.14-.06-.07,0,0,0h0l-.16-.06h0l-.08,0-.08,0-.15-.06h0l-.15-.06h0l-.16-.05-.14,0-.1,0-.13,0-.32-.09-.17-.05-.18,0-.17-.05-.09,0-.09,0-.52-.11-.18,0-.09,0h-.09l-.21,0h0l-.13,0-.45-.06h-.25l-.17,0h-1.78Z" transform="translate(-586.12 -369.44)" style="fill:url(#h)"/><path d="M597.86,377.94a2.29,2.29,0,0,0-3.13,3.35l3.21,3.21-.59.6-2.62,2.61-.1.11A2.29,2.29,0,0,0,598,391l3.21-3.21.6.6L604.4,391a1.14,1.14,0,0,0,.11.11,2.29,2.29,0,0,0,3.13-3.35l-3.22-3.21.6-.59,2.62-2.62.1-.11a2.29,2.29,0,0,0-3.34-3.13l-3.22,3.21-.59-.6L598,378.05A1.14,1.14,0,0,0,597.86,377.94Z" transform="translate(-586.12 -369.44)" style="fill:none"/><path d="M625.54,386.84h1.63c0,1.57,1.28,2.51,3,2.51,1.59,0,2.85-.84,2.85-2.19s-1.51-1.83-3.15-2.21c-2-.47-4.13-1-4.13-3.52,0-2.19,1.69-3.53,4.32-3.53s4.23,1.46,4.23,3.76h-1.57c0-1.41-1.15-2.23-2.69-2.23s-2.7.73-2.7,1.93c0,1.4,1.46,1.75,3.08,2.13,2,.48,4.24,1,4.24,3.66,0,2.39-1.94,3.76-4.47,3.76C627.43,390.91,625.54,389.33,625.54,386.84Z" transform="translate(-586.12 -369.44)" style="fill:#212f4f"/><path d="M636.91,386.62V381h1.54v5.41c0,1.92,1.07,3.1,2.8,3.1s2.79-1.2,2.79-3.1V381h1.54v5.66a4.34,4.34,0,1,1-8.67,0Z" transform="translate(-586.12 -369.44)" style="fill:#212f4f"/><path d="M653.86,380.91v1.46h-1c-1.79,0-2.8,1.16-2.8,3.06v5.31h-1.54V381h1.1l.25,1.49a3.54,3.54,0,0,1,3.12-1.54Z" transform="translate(-586.12 -369.44)" style="fill:#212f4f"/><path d="M664,381l-4.12,9.78h-1.4L654.24,381h1.6l3.33,7.78,3.25-7.78Z" transform="translate(-586.12 -369.44)" style="fill:#212f4f"/><path d="M674.69,386.45h-8.33a3.32,3.32,0,0,0,3.44,3,3.36,3.36,0,0,0,3-1.69h1.63a5.37,5.37,0,1,1,.26-1.87A5.09,5.09,0,0,1,674.69,386.45Zm-4.89-4.24a3.32,3.32,0,0,0-3.41,2.82h6.79a3.31,3.31,0,0,0-3.38-2.82Z" transform="translate(-586.12 -369.44)" style="fill:#212f4f"/><path d="M685.53,381l-4.66,10.19c-1.06,2.32-2,3.09-3.83,3.09h-.92v-1.4h.79c1.3,0,1.77-.4,2.55-2l.36-.73L675.46,381h1.68l3.48,7.41,3.27-7.41Z" transform="translate(-586.12 -369.44)" style="fill:#212f4f"/><path d="M699.34,384.45c-.08,3.81-2.68,6.51-6.34,6.51a6.55,6.55,0,0,1,0-13.09,6.1,6.1,0,0,1,6.18,4.62H697.5a4.53,4.53,0,0,0-4.5-3.06,5,5,0,0,0,0,10,4.5,4.5,0,0,0,4.61-3.44h-5.07v-1.51Z" transform="translate(-586.12 -369.44)" style="fill:#212f4f"/><path d="M710.81,386.45h-8.34a3.32,3.32,0,0,0,3.44,3,3.37,3.37,0,0,0,3.05-1.69h1.62a5.37,5.37,0,1,1,.26-1.87A5.12,5.12,0,0,1,710.81,386.45Zm-4.9-4.24a3.31,3.31,0,0,0-3.4,2.82h6.79a3.32,3.32,0,0,0-3.39-2.82Z" transform="translate(-586.12 -369.44)" style="fill:#212f4f"/><path d="M721.81,384.89v5.85h-1.53v-5.49c0-2-.94-3.09-2.64-3.09a3.06,3.06,0,0,0-3,3.25v5.33h-1.54V381h1.1l.3,1.54a4.09,4.09,0,0,1,3.5-1.75C720.36,380.75,721.81,382.49,721.81,384.89Z" transform="translate(-586.12 -369.44)" style="fill:#212f4f"/><path d="M733.88,386.45h-8.34a3.52,3.52,0,0,0,6.49,1.31h1.63a5.37,5.37,0,1,1,.26-1.87A5.09,5.09,0,0,1,733.88,386.45ZM729,382.21a3.32,3.32,0,0,0-3.41,2.82h6.79a3.31,3.31,0,0,0-3.38-2.82Z" transform="translate(-586.12 -369.44)" style="fill:#212f4f"/><path d="M741.55,380.91v1.46h-1c-1.79,0-2.79,1.16-2.79,3.06v5.31h-1.54V381h1.09l.25,1.49a3.56,3.56,0,0,1,3.13-1.54Z" transform="translate(-586.12 -369.44)" style="fill:#212f4f"/><path d="M752.46,381v9.78h-1.27l-.16-1.48a5.1,5.1,0,1,1-3.84-8.51,5,5,0,0,1,3.86,1.71l.19-1.5Zm-1.57,4.89a3.6,3.6,0,1,0-3.59,3.62A3.49,3.49,0,0,0,750.89,385.85Z" transform="translate(-586.12 -369.44)" style="fill:#212f4f"/><path d="M760.68,389.32v1.42h-1.27a3.14,3.14,0,0,1-3.39-3.41v-5h-1.73v-.27l3-3.19h.25V381h3.06v1.39h-3.06v4.93a1.84,1.84,0,0,0,2.05,2Z" transform="translate(-586.12 -369.44)" style="fill:#212f4f"/><path d="M761.83,385.85A5.19,5.19,0,1,1,767,391,5,5,0,0,1,761.83,385.85Zm5.19,3.62a3.62,3.62,0,1,0-3.62-3.62,3.5,3.5,0,0,0,3.62,3.62Z" transform="translate(-586.12 -369.44)" style="fill:#212f4f"/><path d="M779.88,380.91v1.46h-1c-1.79,0-2.8,1.16-2.8,3.06v5.31h-1.54V381h1.09l.25,1.49a3.57,3.57,0,0,1,3.13-1.54Z" transform="translate(-586.12 -369.44)" style="fill:#212f4f"/></svg>