<svg xmlns="http://www.w3.org/2000/svg" viewBox="0 0 15.88 20.2">
    <g>
    <path
        d="M11.58,3.25a.36.36,0,0,1,.36-.36h.72a.36.36,0,0,1,.33.36V4a.36.36,0,0,1-.36.36h-.69A.36.36,0,0,1,11.58,4Z"
        style="fill: #3d97c3;"
    />
    <path
        d="M11.94,5.77h.72a.36.36,0,0,1,.36.36l0,0v.71a.36.36,0,0,1-.36.36h-.69a.36.36,0,0,1-.36-.36V6.1A.36.36,0,0,1,11.94,5.77Z"
        style="fill: #3d97c3;"
    />
    <path
        d="M11.94,8.66h.72A.36.36,0,0,1,13,9v.72a.36.36,0,0,1-.36.36h-.69a.36.36,0,0,1-.36-.36V9A.36.36,0,0,1,11.94,8.66Z"
        style="fill: #3d97c3;"
    />
    <path
        d="M11.58,11.9a.36.36,0,0,1,.36-.36h.72a.36.36,0,0,1,.33.36v.69a.36.36,0,0,1-.36.36h-.69a.36.36,0,0,1-.36-.36Z"
        style="fill: #3d97c3;"
    />
    <path
        d="M12.63,15.87h-.69a.36.36,0,0,1-.36-.36v-.72a.36.36,0,0,1,.36-.36h.72a.36.36,0,0,1,.33.36v.72A.36.36,0,0,1,12.63,15.87Z"
        style="fill: #3d97c3;"
    />
    <path
        d="M8.66,9A.36.36,0,0,1,9,8.63h.72A.36.36,0,0,1,10.1,9v.72a.36.36,0,0,1-.36.36H9a.36.36,0,0,1-.36-.36Z"
        style="fill: #3d97c3;"
    />
    <rect
        x="8.66"
        y="2.89"
        width="1.44"
        height="1.44"
        rx="0.36"
        style="fill: #3d97c3;"
    />
    <rect
        x="8.66"
        y="5.74"
        width="1.44"
        height="1.44"
        rx="0.36"
        style="fill: #3d97c3;"
    />
    <path
        d="M8.66,11.9A.37.37,0,0,1,9,11.54h.72a.37.37,0,0,1,.36.36v.72a.37.37,0,0,1-.36.37H9a.37.37,0,0,1-.36-.37Z"
        style="fill: #3d97c3;"
    />
    <rect
        x="5.78"
        y="2.89"
        width="1.44"
        height="1.44"
        rx="0.36"
        style="fill: #3d97c3;"
    />
    <rect
        x="5.78"
        y="5.74"
        width="1.44"
        height="1.44"
        rx="0.36"
        style="fill: #3d97c3;"
    />
    <rect
        x="5.78"
        y="8.66"
        width="1.44"
        height="1.44"
        rx="0.36"
        style="fill: #3d97c3;"
    />
    <path
        d="M7.22,11.9v.72a.37.37,0,0,1-.36.37H6.14a.37.37,0,0,1-.36-.37V11.9a.37.37,0,0,1,.36-.36h.72A.37.37,0,0,1,7.22,11.9Z"
        style="fill: #3d97c3;"
    />
    <path
        d="M3.25,4.33A.37.37,0,0,1,2.94,4V3.25a.37.37,0,0,1,.36-.36h.64a.37.37,0,0,1,.37.36h0V4A.36.36,0,0,1,4,4.33H3.25Z"
        style="fill: #3d97c3;"
    />
    <path
        d="M2.94,9a.37.37,0,0,1,.36-.36h.64A.37.37,0,0,1,4.31,9h0v.72A.36.36,0,0,1,4,10.1H3.25a.37.37,0,0,1-.31-.36Z"
        style="fill: #3d97c3;"
    />
    <path
        d="M4,13H3.25a.39.39,0,0,1-.31-.37V11.9a.39.39,0,0,1,.36-.36h.64a.38.38,0,0,1,.37.36h0v.72A.37.37,0,0,1,4,13Z"
        style="fill: #3d97c3;"
    />
    <path
        d="M3.25,15.87a.37.37,0,0,1-.31-.36v-.72a.37.37,0,0,1,.36-.36h.64a.37.37,0,0,1,.37.36h0v.72a.36.36,0,0,1-.36.36Z"
        style="fill: #3d97c3;"
    />
    <path
        d="M3.25,7.21a.37.37,0,0,1-.31-.36V6.1a.37.37,0,0,1,.36-.36h.64a.37.37,0,0,1,.4.34v0h0v.72A.36.36,0,0,1,4,7.21H3.25Z"
        style="fill: #3d97c3;"
    />
    <path
        d="M10.1,18.76h4.33V1.44h-13V18.76H5.78V16.23a.36.36,0,0,1,.36-.36h3.6a.36.36,0,0,1,.36.36Zm5.05,1.44H.73A.76.76,0,0,1,0,19.48V.72A.73.73,0,0,1,.73,0H15.15a.73.73,0,0,1,.73.72V19.48A.76.76,0,0,1,15.15,20.2Z"
        style="fill: #214159;"
    />
    </g>
</svg>