<svg xmlns="http://www.w3.org/2000/svg" viewBox="0 0 20 20" class="w-4 h-4">
    <path
      d="M12,2A10,10,0,1,0,22,12,10,10,0,0,0,12,2Zm4.3,7.61-4.57,6a1,1,0,0,1-.79.39,1,1,0,0,1-.79-.38L7.71,12.51a1,1,0,0,1,1.58-1.23l1.63,2.08,3.78-5a1,1,0,0,1,1.6,1.22Z"
      transform="translate(-2 -2)"
      fill="#97E2B1"
    />
    <path
      d="M16.3,9.6v0l-4.57,6a1,1,0,0,1-1.58,0L7.71,12.53A1,1,0,1,1,9.29,11.3l1.63,2.08,3.78-5A1,1,0,1,1,16.3,9.6Z"
      transform="translate(-2 -2)"
      fill="#1A4731"
    />
</svg>