<svg xmlns="http://www.w3.org/2000/svg" viewBox="0 0 336.4 85.5"><path d="M821.05,538.77a18,18,0,0,1-2.08,1.76,14.4,14.4,0,0,1-2.43,1.44,15.21,15.21,0,0,1-2.76.95,13.09,13.09,0,0,1-3,.34,16.44,16.44,0,0,1-6.73-1.38,17.07,17.07,0,0,1-5.43-3.75,17.25,17.25,0,0,1-3.63-5.58,18.56,18.56,0,0,1,0-13.7,17.18,17.18,0,0,1,9.06-9.34,16.44,16.44,0,0,1,6.73-1.38,13.39,13.39,0,0,1,5.75,1.17,14.49,14.49,0,0,1,4.41,3.17V500.19a1.62,1.62,0,0,1,.43-1.15,1.6,1.6,0,0,1,1.23-.46H827a1.8,1.8,0,0,1,1.15.44,1.45,1.45,0,0,1,.54,1.17V541c0,1.07-.57,1.61-1.72,1.61h-4a1.32,1.32,0,0,1-1.1-.4,4.23,4.23,0,0,1-.53-1.21Zm-19.88-13.06a11,11,0,0,0,.75,4A10.3,10.3,0,0,0,804,533.1a10.1,10.1,0,0,0,3.15,2.24,9.22,9.22,0,0,0,3.94.83,10,10,0,0,0,4-.81,10.63,10.63,0,0,0,3.27-2.22,10.82,10.82,0,0,0,2.2-3.27,10.22,10.22,0,0,0,.87-4v-.19a10.51,10.51,0,0,0-.8-4,11.18,11.18,0,0,0-2.19-3.38,10.53,10.53,0,0,0-3.28-2.33,9.58,9.58,0,0,0-4.06-.87,9,9,0,0,0-3.94.87,10.21,10.21,0,0,0-3.15,2.33,10.71,10.71,0,0,0-2.08,3.38A11.06,11.06,0,0,0,801.17,525.71Z" transform="translate(-793.65 -498.58)" style="fill:#798ea8"/><path d="M860.16,538.9a19.05,19.05,0,0,1-5.15,3.16,15.91,15.91,0,0,1-6.14,1.15,17.46,17.46,0,0,1-6.85-1.37,17.77,17.77,0,0,1-5.67-3.74,18.24,18.24,0,0,1-3.87-5.58,16.74,16.74,0,0,1-1.43-6.89,17.63,17.63,0,0,1,4.9-12.32,16.63,16.63,0,0,1,7.61-4.55,17.3,17.3,0,0,1,4.72-.63,16.52,16.52,0,0,1,4,.5,18,18,0,0,1,3.76,1.4,18.69,18.69,0,0,1,3.33,2.21,16.48,16.48,0,0,1,2.73,2.93,15.85,15.85,0,0,1,2.35,4.84,20.69,20.69,0,0,1,.75,5.75,9.49,9.49,0,0,1-.07,1.3,1.59,1.59,0,0,1-.33.85,1.53,1.53,0,0,1-.8.46,5.87,5.87,0,0,1-1.5.15H838.79a9.07,9.07,0,0,0,1.32,3.41,10.33,10.33,0,0,0,2.31,2.52,10.14,10.14,0,0,0,2.92,1.55,10,10,0,0,0,3.16.52,10.9,10.9,0,0,0,2.31-.24,11.45,11.45,0,0,0,3.86-1.57,9.72,9.72,0,0,0,1.43-1.08s0,0,0,0a3.79,3.79,0,0,1,.62-.46,1.14,1.14,0,0,1,.61-.18,1.3,1.3,0,0,1,.55.16,1.86,1.86,0,0,1,.6.54c.49.59.9,1.08,1.24,1.47s.61.72.82,1a4.24,4.24,0,0,1,.47.69,1.32,1.32,0,0,1,.15.59A2,2,0,0,1,860.16,538.9Zm-11.88-24.13a8.56,8.56,0,0,0-3.07.57,10.55,10.55,0,0,0-2.75,1.57,10.67,10.67,0,0,0-2.16,2.33,9.2,9.2,0,0,0-1.35,2.89h18.94a10.43,10.43,0,0,0-1.3-3,9.74,9.74,0,0,0-2.1-2.33,9.38,9.38,0,0,0-2.81-1.51A10.67,10.67,0,0,0,848.28,514.77Z" transform="translate(-793.65 -498.58)" style="fill:#798ea8"/><path d="M868.82,509a3.87,3.87,0,0,1,1.7-.33h2.7a1.33,1.33,0,0,1,1.15.51,3,3,0,0,1,.51,1.13l.29,2.58a13.68,13.68,0,0,1,1.42-1.76,8.42,8.42,0,0,1,1.91-1.49,10.45,10.45,0,0,1,2.6-1,13.68,13.68,0,0,1,3.46-.39,14.23,14.23,0,0,1,3.4.37,10.23,10.23,0,0,1,2.76,1.07,9.85,9.85,0,0,1,2.22,1.75,12.8,12.8,0,0,1,1.79,2.37,8.67,8.67,0,0,1,1.74-2.31,10.54,10.54,0,0,1,2.53-1.78,12.86,12.86,0,0,1,3.14-1.14,15.42,15.42,0,0,1,3.56-.41,12.73,12.73,0,0,1,5.55,1.15,11.31,11.31,0,0,1,4,3.16,13.87,13.87,0,0,1,2.42,4.68,19.36,19.36,0,0,1,.82,5.73v17.84a2.09,2.09,0,0,1-.45,1.46,1.73,1.73,0,0,1-1.32.5h-4.06a1.94,1.94,0,0,1-1.43-.4,2.09,2.09,0,0,1-.37-1.42v-18a9.5,9.5,0,0,0-.4-2.76,6.67,6.67,0,0,0-1.24-2.36,6.31,6.31,0,0,0-2.11-1.66,6.79,6.79,0,0,0-3-.63,7,7,0,0,0-2.73.53,6.06,6.06,0,0,0-2.17,1.49,7.29,7.29,0,0,0-1.43,2.35,8.56,8.56,0,0,0-.52,3.07v17.82c0,1.29-.58,1.93-1.74,1.93h-4.09a1.89,1.89,0,0,1-1.42-.4,2.21,2.21,0,0,1-.35-1.42V522.9a9.57,9.57,0,0,0-.39-2.72,7,7,0,0,0-1.2-2.36,6.15,6.15,0,0,0-2.1-1.69,6.73,6.73,0,0,0-3-.64,6.92,6.92,0,0,0-2.46.47,7.25,7.25,0,0,0-2.24,1.35,7.1,7.1,0,0,0-1.64,2.16,6.71,6.71,0,0,0-.67,2.92v18.68a1.51,1.51,0,0,1-.46,1.14,1.58,1.58,0,0,1-1.15.44h-4.41a1.77,1.77,0,0,1-1.3-.42,1.58,1.58,0,0,1-.41-1.19V510.25A1.26,1.26,0,0,1,868.82,509Z" transform="translate(-793.65 -498.58)" style="fill:#798ea8"/><path d="M920.74,525.71a17.71,17.71,0,0,1,2.4-8.91,17.56,17.56,0,0,1,2.76-3.54,17.69,17.69,0,0,1,7.74-4.5,17.51,17.51,0,0,1,9.31,0,17.53,17.53,0,0,1,4.19,1.77,18,18,0,0,1,3.54,2.73,17.16,17.16,0,0,1,2.75,3.54,17.68,17.68,0,0,1,1.78,13.59,17.16,17.16,0,0,1-1.78,4.19,17.77,17.77,0,0,1-6.29,6.29,17.55,17.55,0,0,1-13.5,1.76,17.44,17.44,0,0,1-7.74-4.5,18.19,18.19,0,0,1-2.76-3.55,17.49,17.49,0,0,1-2.4-8.87Zm7.54,0a11,11,0,0,0,.75,4,10.33,10.33,0,0,0,2.09,3.34,10,10,0,0,0,3.17,2.24,9.46,9.46,0,0,0,4,.83,9.19,9.19,0,0,0,3.92-.83,9.86,9.86,0,0,0,3.12-2.24,10.38,10.38,0,0,0,2-3.34,11.43,11.43,0,0,0,0-8.09,10.79,10.79,0,0,0-2-3.38,10,10,0,0,0-3.12-2.33,8.93,8.93,0,0,0-3.92-.87,9.19,9.19,0,0,0-4,.87,10.06,10.06,0,0,0-3.17,2.33,10.73,10.73,0,0,0-2.09,3.38A11.06,11.06,0,0,0,928.28,525.71Z" transform="translate(-793.65 -498.58)" style="fill:#798ea8"/><path d="M962.13,533.07a5.4,5.4,0,0,0,1.42,1.52,9.72,9.72,0,0,0,1.75,1.06,8.36,8.36,0,0,0,1.71.6,5.85,5.85,0,0,0,1.3.19,11,11,0,0,0,1.76-.16,7.25,7.25,0,0,0,1.92-.58,4.59,4.59,0,0,0,1.52-1.12,2.61,2.61,0,0,0,.63-1.81,2.82,2.82,0,0,0-.49-1.73,3.79,3.79,0,0,0-1.34-1.11,9.47,9.47,0,0,0-1.93-.74l-2.29-.64a22.34,22.34,0,0,1-4.79-1.81,12.24,12.24,0,0,1-3.25-2.42,8.94,8.94,0,0,1-1.86-3,10.41,10.41,0,0,1-.58-3.55,9,9,0,0,1,.85-4,8.81,8.81,0,0,1,2.41-3.08,11.28,11.28,0,0,1,3.73-2,15.7,15.7,0,0,1,4.83-.7,15.46,15.46,0,0,1,3.35.33,10.89,10.89,0,0,1,2.72,1,11.56,11.56,0,0,1,2.37,1.69,24.94,24.94,0,0,1,2.26,2.38,1.48,1.48,0,0,1,.41.94,1.2,1.2,0,0,1-.54.91c-.27.21-.58.48-1,.8L978,517a11.39,11.39,0,0,1-1,.77,1.25,1.25,0,0,1-2-.37,12.59,12.59,0,0,0-1.18-1.22,6.21,6.21,0,0,0-1.23-.86,5.74,5.74,0,0,0-1.39-.5,7,7,0,0,0-1.63-.18,5.53,5.53,0,0,0-1.52.22,4.91,4.91,0,0,0-1.44.64,4.16,4.16,0,0,0-1.1,1,2.25,2.25,0,0,0-.44,1.35,2.07,2.07,0,0,0,.55,1.46,4.86,4.86,0,0,0,1.39,1,10.76,10.76,0,0,0,1.83.74l1.84.53a34.34,34.34,0,0,1,4.51,1.61,13.47,13.47,0,0,1,3.54,2.2,9,9,0,0,1,3.14,7.16,9.94,9.94,0,0,1-1,4.46,9.69,9.69,0,0,1-2.74,3.33,12.44,12.44,0,0,1-4.13,2.08,17.66,17.66,0,0,1-5.2.73,16.87,16.87,0,0,1-3.43-.36,14.86,14.86,0,0,1-3.33-1.13,13,13,0,0,1-2.94-2,10.71,10.71,0,0,1-2.26-2.82,2.39,2.39,0,0,1-.4-1.21,1,1,0,0,1,.17-.6,2.17,2.17,0,0,1,.47-.5l3-2.3a1.46,1.46,0,0,1,.73-.24,1,1,0,0,1,.67.26A5.44,5.44,0,0,1,962.13,533.07Z" transform="translate(-793.65 -498.58)" style="fill:#798ea8"/><path d="M984.44,500.19a2.2,2.2,0,0,1,.28-1.15c.19-.31.64-.46,1.35-.46h4.58a1.3,1.3,0,0,1,1.12.47,1.67,1.67,0,0,1,.35,1v22.08l11.77-12.74a2.79,2.79,0,0,1,.71-.53,1.8,1.8,0,0,1,.87-.19h6.13a1.38,1.38,0,0,1,.88.24.77.77,0,0,1,.3.64,1.42,1.42,0,0,1-.08.48,1.87,1.87,0,0,1-.3.48l-12,12.55,14.26,17.61h-.06a1.62,1.62,0,0,1,.42.64,1.82,1.82,0,0,1,.12.56.66.66,0,0,1-.27.62,1.66,1.66,0,0,1-.8.16h-6.82c-.52,0-1-.38-1.5-1.13l-10.36-13.45-3.21,3.34V541a1.65,1.65,0,0,1-.08.52,1.52,1.52,0,0,1-.25.53,1.43,1.43,0,0,1-.47.4,1.59,1.59,0,0,1-.72.16h-4.74a1.38,1.38,0,0,1-.67-.16,1.72,1.72,0,0,1-.45-.4,1.63,1.63,0,0,1-.27-.5,1.61,1.61,0,0,1-.08-.41Z" transform="translate(-793.65 -498.58)" style="fill:#798ea8"/><path d="M1015.26,525.71a17.46,17.46,0,0,1,5.16-12.45,17.84,17.84,0,0,1,7.74-4.5,17.55,17.55,0,0,1,9.32,0,17.46,17.46,0,0,1,4.18,1.77,17.76,17.76,0,0,1,3.55,2.73,17.52,17.52,0,0,1,5.16,12.45,17.36,17.36,0,0,1-2.41,8.87,18.14,18.14,0,0,1-2.75,3.55,17.44,17.44,0,0,1-3.55,2.74,17.55,17.55,0,0,1-13.5,1.76,17.58,17.58,0,0,1-7.74-4.5,18.14,18.14,0,0,1-2.75-3.55,17.36,17.36,0,0,1-2.41-8.87Zm7.55,0a11,11,0,0,0,.75,4,10.3,10.3,0,0,0,2.08,3.34,10,10,0,0,0,3.18,2.24,9.46,9.46,0,0,0,4,.83,9.15,9.15,0,0,0,3.91-.83,9.64,9.64,0,0,0,3.12-2.24,10.23,10.23,0,0,0,2.05-3.34,11.57,11.57,0,0,0,0-8.09,10.63,10.63,0,0,0-2.05-3.38,9.74,9.74,0,0,0-3.12-2.33,8.89,8.89,0,0,0-3.91-.87,9.19,9.19,0,0,0-4,.87,10.1,10.1,0,0,0-3.18,2.33,10.71,10.71,0,0,0-2.08,3.38A11.06,11.06,0,0,0,1022.81,525.71Z" transform="translate(-793.65 -498.58)" style="fill:#798ea8"/><path d="M1054,508.83a2,2,0,0,1,.71-.2,5.74,5.74,0,0,1,.71,0h2.7a1.32,1.32,0,0,1,1.14.45,2.93,2.93,0,0,1,.47,1.15l.56,3.27a25.52,25.52,0,0,1,2-2,14.35,14.35,0,0,1,2.34-1.71,12.68,12.68,0,0,1,2.84-1.19,12.84,12.84,0,0,1,3.48-.44,16.83,16.83,0,0,1,4.64.63,17.58,17.58,0,0,1,4.12,1.76,17.26,17.26,0,0,1,3.47,2.73,17.54,17.54,0,0,1,4.37,7.75,18.55,18.55,0,0,1,0,9.36,17.65,17.65,0,0,1-4.37,7.76,16.63,16.63,0,0,1-3.47,2.74,17.1,17.1,0,0,1-4.13,1.77,16.91,16.91,0,0,1-4.63.63,12.82,12.82,0,0,1-3.2-.38,12.28,12.28,0,0,1-2.7-1,12.91,12.91,0,0,1-2.3-1.52,22,22,0,0,1-2-1.86v13a1.6,1.6,0,0,1-.4,1.1,1.52,1.52,0,0,1-1.2.45h-4.44a1.84,1.84,0,0,1-1.11-.41,1.35,1.35,0,0,1-.55-1.14V510.17a1.23,1.23,0,0,1,1-1.34Zm26.52,16.8a10.78,10.78,0,0,0-.77-4,10.59,10.59,0,0,0-2.08-3.34,10,10,0,0,0-3.15-2.27,9.1,9.1,0,0,0-3.93-.85,9.67,9.67,0,0,0-4,.83,10.93,10.93,0,0,0-3.27,2.24,11.21,11.21,0,0,0-2.25,3.27,9.76,9.76,0,0,0-.86,4v.19a10.41,10.41,0,0,0,.81,4.07,11.09,11.09,0,0,0,2.22,3.37,10.89,10.89,0,0,0,3.29,2.3,9.66,9.66,0,0,0,4,.86,9.11,9.11,0,0,0,3.93-.86,10,10,0,0,0,3.15-2.3,10.73,10.73,0,0,0,2.08-3.37A11,11,0,0,0,1080.55,525.63Z" transform="translate(-793.65 -498.58)" style="fill:#798ea8"/><path d="M1129.75,528.75l-12.44-18.63a1.79,1.79,0,0,0-3,0l-12.44,18.63a1.8,1.8,0,0,0,1.5,2.8h8.74c0,25.31-22,45.83-49.23,45.83a51.08,51.08,0,0,1-33.84-12.54,3.4,3.4,0,0,0-4.23-.24h0a3.4,3.4,0,0,0-.25,5.34,58.55,58.55,0,0,0,38.51,14.13c31.16,0,56.43-23.52,56.43-52.53h8.74A1.8,1.8,0,0,0,1129.75,528.75Z" transform="translate(-793.65 -498.58)" style="fill:#798ea8"/></svg>