<svg xmlns="http://www.w3.org/2000/svg" viewBox="0 0 163.62 53.71"><path d="M24.62,17.79c-1.36,0-3.21.1-3.22.11a.46.46,0,0,1-.51-.4.45.45,0,0,1,.43-.47c.06,0,1.91-.1,3.3-.1s3.23.1,3.29.1a.46.46,0,0,1,.44.47.47.47,0,0,1-.51.4s-1.87-.11-3.22-.11" transform="translate(0 0)" style="fill:#798ea8"/><path d="M24.83,31.27a.3.3,0,0,0-.21-.09.31.31,0,0,0-.22.09l-3.62,3.62.43.43,3.41-3.4,3.4,3.4.43-.43Z" transform="translate(0 0)" style="fill:#798ea8"/><path d="M25.1,26.76l-.11.13a.53.53,0,0,1-.38.16.52.52,0,0,1-.37-.16.66.66,0,0,0-.11-.12L18.39,32.5l.43.43,5.79-5.79,5.8,5.79.43-.43Z" transform="translate(0 0)" style="fill:#798ea8"/><path d="M24.9,28.81a.4.4,0,0,0-.57,0l-4.82,4.81.58.58,4.53-4.53,4.53,4.53.57-.58Z" transform="translate(0 0)" style="fill:#798ea8"/><path d="M44,32a5.15,5.15,0,0,0-5.6-1.11,8.52,8.52,0,0,1-1.22,1.54,4.52,4.52,0,1,1,0,6.39h0L34,35.6h0l-.43.42,3.2,3.2h0A5.13,5.13,0,0,0,44,32" transform="translate(0 0)" style="fill:#798ea8"/><path d="M34.75,41.19,31.56,38l-.44.43,3.2,3.2h0a4.51,4.51,0,1,1-6.48.09l-1.62,1.61a5.12,5.12,0,0,0,4.91,6.61,5.12,5.12,0,0,0,3.62-8.74h0" transform="translate(0 0)" style="fill:#798ea8"/><path d="M24.62,47.15a6.92,6.92,0,1,1-12.78-5.28,7,7,0,0,1-2.94.65h0a6.92,6.92,0,1,1,0-13.83,6,6,0,0,1,1,.08,7.08,7.08,0,0,0,.31.88,6.11,6.11,0,1,0,3,10.27l3.2-3.2.57.58-3.19,3.2a6.1,6.1,0,1,0,10.42,4.31,2.71,2.71,0,0,0,0-.29l.2.19a.31.31,0,0,0,.22.09.3.3,0,0,0,.21-.09l.2-.19a2.71,2.71,0,0,0,0,.29,6.09,6.09,0,0,0,6.11,6.1A6.1,6.1,0,0,0,35.44,40.5l-3.19-3.2.57-.58,3.2,3.2A6.1,6.1,0,1,0,40.33,29.5a5.92,5.92,0,0,0-1.34.15,7,7,0,0,0,.3-.88,6.07,6.07,0,0,1,1-.08,6.92,6.92,0,0,1,0,13.83h0a7,7,0,0,1-2.94-.65A6.91,6.91,0,0,1,26.24,49.7a6.76,6.76,0,0,1-1.62-2.55" transform="translate(0 0)" style="fill:#798ea8"/><path d="M24.62,50.88l-.22.22A8.9,8.9,0,0,1,9.21,44.89a.21.21,0,0,1,0-.11v-.29H8.9a8.9,8.9,0,0,1,0-17.8h.06c.23,0,.46,0,.68,0,0,.35.05.69.1,1-.26,0-.52,0-.78,0H8.87a7.88,7.88,0,1,0,0,15.76,7.7,7.7,0,0,0,.81,0,.5.5,0,0,1,.55.56c0,.27,0,.53,0,.8h0v0a7.88,7.88,0,0,0,13.46,5.52,5.22,5.22,0,0,0,.54-.6.51.51,0,0,1,.79,0,6.36,6.36,0,0,0,.54.6A7.89,7.89,0,0,0,39,44.86v0h0a7.14,7.14,0,0,0,0-.8.52.52,0,0,1,.56-.56,7.51,7.51,0,0,0,.8,0,7.88,7.88,0,0,0,0-15.76h0c-.27,0-.53,0-.79,0a8.76,8.76,0,0,0,.1-1q.35,0,.69,0h0a8.9,8.9,0,0,1,0,17.8H40c0,.1,0,.2,0,.29a.41.41,0,0,1,0,.11,8.89,8.89,0,0,1-8.89,8.82,8.86,8.86,0,0,1-6.3-2.61l-.21-.22" transform="translate(0 0)" style="fill:#798ea8"/><path d="M5.27,32a5.15,5.15,0,0,1,5.6-1.11,8.52,8.52,0,0,0,1.22,1.54,4.52,4.52,0,1,0,0,6.39h0l3.19-3.2h0l.43.42-3.2,3.2h0a5.07,5.07,0,0,1-3.62,1.5A5.13,5.13,0,0,1,5.27,32" transform="translate(0 0)" style="fill:#798ea8"/><path d="M14.48,41.19l3.2-3.2.43.43-3.2,3.2h0a4.51,4.51,0,1,0,6.48.09L23,43.32a5.13,5.13,0,0,1-8.53,5.11,5.12,5.12,0,0,1,0-7.24h0" transform="translate(0 0)" style="fill:#798ea8"/><path d="M18.1,18.5A7.9,7.9,0,0,0,12.52,32L24.61,44.07,36.71,32A7.9,7.9,0,0,0,25.54,20.81a10,10,0,0,0-.68.78.3.3,0,0,1-.24.12h0a.3.3,0,0,1-.24-.12,7.31,7.31,0,0,0-.68-.78A7.84,7.84,0,0,0,18.1,18.5m6.51,26.3a.3.3,0,0,1-.21-.09L12.09,32.41a8.51,8.51,0,0,1,12-12c.17.17.33.35.49.54.16-.19.33-.37.5-.54a8.51,8.51,0,0,1,12,12L24.83,44.71a.31.31,0,0,1-.22.09" transform="translate(0 0)" style="fill:#798ea8"/><path d="M18.1,22.28a4.12,4.12,0,0,0-2.91,7l9.42,9.42L34,29.31a4.12,4.12,0,0,0-5.83-5.83c-.86.86-3.2,3.38-3.22,3.41a.53.53,0,0,1-.38.16.52.52,0,0,1-.37-.16S21.88,24.34,21,23.48a4.12,4.12,0,0,0-2.92-1.2M24.61,40a.54.54,0,0,1-.36-.14L14.47,30a5.14,5.14,0,0,1,7.27-7.27c.67.67,2.17,2.28,2.87,3,.71-.76,2.21-2.37,2.88-3a5.15,5.15,0,0,1,7.27,0,5.15,5.15,0,0,1,0,7.27L25,39.81a.54.54,0,0,1-.36.14" transform="translate(0 0)" style="fill:#798ea8"/><path d="M18.1,20.29a6.11,6.11,0,0,0-4.31,10.42L24.61,41.54,35.44,30.71a6.1,6.1,0,1,0-8.63-8.63c-1.25,1.25-1.89,2-1.89,2a.44.44,0,0,1-.31.13.43.43,0,0,1-.3-.13s-.64-.71-1.89-2a6.08,6.08,0,0,0-4.32-1.79m6.51,22.24a.42.42,0,0,1-.28-.12L13.21,31.29A6.92,6.92,0,0,1,23,21.5c.77.78,1.31,1.34,1.61,1.67.31-.33.85-.89,1.62-1.67A6.92,6.92,0,0,1,36,31.29L24.9,42.41a.43.43,0,0,1-.29.12" transform="translate(0 0)" style="fill:#798ea8"/><path d="M24.62,17.79c-1.36,0-3.21.1-3.22.11a.46.46,0,0,1-.51-.4.45.45,0,0,1,.43-.47c.06,0,1.91-.1,3.3-.1s3.23.1,3.29.1a.46.46,0,0,1,.44.47.47.47,0,0,1-.51.4s-1.87-.11-3.22-.11" transform="translate(0 0)" style="fill:#798ea8"/><path d="M25.34,6.35c1.4.34,2.48,1.67,3.29,3.57a.22.22,0,0,0,.1.09l1,.29a.08.08,0,0,0,.08,0l.45-.52a.15.15,0,0,0,0-.14A7.39,7.39,0,0,0,27,6.49,10.52,10.52,0,0,1,33.6,10.4a.35.35,0,0,0,.25.13h.88a0,0,0,0,0,.05,0v-.24a.27.27,0,0,0-.07-.16c-2.05-2.57-5.58-4-9.45-4.21h0a1.62,1.62,0,0,0,.92-1.06H23.06A1.62,1.62,0,0,0,24,5.86h0c-3.87.16-7.4,1.64-9.45,4.21a.27.27,0,0,0-.07.16v.24a0,0,0,0,0,.05,0h.88a.35.35,0,0,0,.25-.13,10.52,10.52,0,0,1,6.56-3.91A7.39,7.39,0,0,0,19,9.62a.15.15,0,0,0,0,.14l.45.52a.08.08,0,0,0,.08,0l1-.29a.22.22,0,0,0,.1-.09c.81-1.9,1.89-3.23,3.29-3.57-.13.84-.24,1.91-.32,3.14a.13.13,0,0,0,.07.14l.93.38h.09l.93-.38a.13.13,0,0,0,.07-.14c-.08-1.23-.19-2.3-.32-3.14" transform="translate(0 0)" style="fill:#798ea8"/><path d="M24.25,1.78V2.85a1.69,1.69,0,0,1,.73,0V1.78h1.13a1.47,1.47,0,0,0,0-.36,1.5,1.5,0,0,0,0-.37H25v-1a1.36,1.36,0,0,0-.73,0v1H23.12a1.5,1.5,0,0,0,0,.37,2.2,2.2,0,0,0,0,.36Z" transform="translate(0 0)" style="fill:#798ea8"/><path d="M24.62,16a52.06,52.06,0,0,1,8.66.73.41.41,0,0,0,.45-.28l1.45-5a1,1,0,0,0-.71-.37,1,1,0,0,0-1.15.95,1.1,1.1,0,0,0,0,.41,1.08,1.08,0,0,0-1.1,1,1.05,1.05,0,0,0,1.1,1.14c.29,0,.33,0,.11.17a2.58,2.58,0,0,1-1.68.62,2.28,2.28,0,0,1-2-1.12c-.06-.11,0-.16.11-.08a1,1,0,0,0,.54.22,1.05,1.05,0,0,0,.27-2.09,1.27,1.27,0,0,0,.12-.39,1.06,1.06,0,1,0-2.1-.22,1.12,1.12,0,0,0,0,.41,1.05,1.05,0,0,0-.18,2.1,1.1,1.1,0,0,0,.6-.11c.09,0,.15,0,.08.09a2.78,2.78,0,0,1-4.42-.34c0-.09,0-.12.09-.06a1,1,0,0,0,.62.21,1.06,1.06,0,0,0,.05-2.11,1.06,1.06,0,1,0-1.95,0,1.06,1.06,0,0,0,.05,2.11,1,1,0,0,0,.62-.21c.09-.06.14,0,.09.06a2.51,2.51,0,0,1-2.32,1.28,2.54,2.54,0,0,1-2.1-.94c-.07-.09,0-.14.09-.09a1.06,1.06,0,0,0,.59.11,1.05,1.05,0,0,0-.18-2.1.94.94,0,0,0,0-.41,1.06,1.06,0,1,0-2,.61,1.05,1.05,0,0,0,.26,2.09,1.07,1.07,0,0,0,.55-.22c.09-.08.16,0,.11.08a2.3,2.3,0,0,1-2,1.12,2.6,2.6,0,0,1-1.68-.62c-.22-.2-.17-.22.11-.17A1.05,1.05,0,0,0,17,13.39a1.07,1.07,0,0,0-1.1-1,1.1,1.1,0,0,0,.05-.41,1,1,0,0,0-1.14-.95,1,1,0,0,0-.72.37l1.45,5a.42.42,0,0,0,.46.28A51.91,51.91,0,0,1,24.62,16" transform="translate(0 0)" style="fill:#798ea8"/><path d="M24.08,4.07H23a1.62,1.62,0,0,1,1.21-1.22v1c0,.12,0,.17-.17.17" transform="translate(0 0)" style="fill:#798ea8"/><path d="M25.15,4.07h1A1.62,1.62,0,0,0,25,2.85v1c0,.12,0,.17.17.17" transform="translate(0 0)" style="fill:#798ea8"/><path d="M55,38.52V30.66h4.67v.91H56v2.62H59.4v.91H56v3.42Z" transform="translate(0 0)" style="fill:#798ea8"/><path d="M62.64,33.52q-1.35,0-1.35,1.26v1.73c0,.84.45,1.27,1.35,1.27S64,37.35,64,36.51V34.78c0-.84-.45-1.26-1.34-1.26m0,5.12a2,2,0,0,1-2.34-2.16V34.82a2.34,2.34,0,0,1,4.67,0v1.66a2,2,0,0,1-2.33,2.16" transform="translate(0 0)" style="fill:#798ea8"/><path d="M66.37,38.52V30.43l1-.14v8.23Z" transform="translate(0 0)" style="fill:#798ea8"/><path d="M73.32,32.78l-2.47,2.84,2.57,2.9H72.25l-2.56-2.9,2.49-2.84Zm-4.41,5.74V30.43l1-.14v8.23Z" transform="translate(0 0)" style="fill:#798ea8"/><path d="M77.74,38.52V34.13c0-.38-.19-.53-.56-.53a5.37,5.37,0,0,0-1.92.59v4.33h-1V30.43l1-.14v3a5.8,5.8,0,0,1,2.22-.6c.92,0,1.25.58,1.25,1.46v4.4Z" transform="translate(0 0)" style="fill:#798ea8"/><path d="M83.1,36.19H81.64c-.61,0-.84.19-.84.77s.11.83.82.83a2.87,2.87,0,0,0,1.48-.47Zm1,2.33h-.83l-.06-.43a3.25,3.25,0,0,1-1.87.55c-1.07,0-1.52-.64-1.52-1.65,0-1.2.61-1.62,1.76-1.62H83.1v-.9c0-.72-.31-1-1.25-1a9.05,9.05,0,0,0-1.72.19l-.1-.8a8.13,8.13,0,0,1,1.88-.24c1.64,0,2.18.63,2.18,1.86Z" transform="translate(0 0)" style="fill:#798ea8"/><path d="M85.6,38.52V30.43l1-.14v8.23Z" transform="translate(0 0)" style="fill:#798ea8"/><path d="M89.76,38.64a5.79,5.79,0,0,1-1.83-.31l.13-.78a6.57,6.57,0,0,0,1.64.24c.91,0,1.06-.17,1.06-.78s-.05-.68-1.2-1C88.13,35.69,88,35.4,88,34.2s.47-1.54,2-1.54a6.44,6.44,0,0,1,1.63.2l-.07.81A9.63,9.63,0,0,0,90,33.51c-.85,0-1,.2-1,.72s0,.75,1,1c1.65.41,1.78.61,1.78,1.75s-.34,1.67-2,1.67" transform="translate(0 0)" style="fill:#798ea8"/><path d="M95.27,33.52c-.89,0-1.34.42-1.34,1.26v1.73c0,.84.45,1.27,1.34,1.27s1.34-.43,1.34-1.27V34.78c0-.84-.44-1.26-1.34-1.26m0,5.12a2,2,0,0,1-2.33-2.16V34.82a2.34,2.34,0,0,1,4.67,0v1.66a2,2,0,0,1-2.34,2.16" transform="translate(0 0)" style="fill:#798ea8"/><path d="M105.93,38.52V34.13c0-.38-.19-.53-.56-.53a5.06,5.06,0,0,0-1.92.58v4.34h-1V34.13c0-.38-.19-.53-.55-.53a5.37,5.37,0,0,0-1.93.58v4.34H99V32.78h.8l.1.49a6.2,6.2,0,0,1,2.31-.61,1.06,1.06,0,0,1,1.1.61,6.12,6.12,0,0,1,2.37-.61c.92,0,1.25.58,1.25,1.46v4.4Z" transform="translate(0 0)" style="fill:#798ea8"/><path d="M110.14,38.52h-.41l-1.87-5.74h1l1.57,4.95L112,32.78h1l-1.9,5.74-.81,2.32h-.93Z" transform="translate(0 0)" style="fill:#798ea8"/><path d="M117.52,38.52V34.13c0-.38-.19-.53-.56-.53a5.33,5.33,0,0,0-1.92.58v4.34h-1V32.78h.8l.1.49a6.1,6.1,0,0,1,2.31-.61c.92,0,1.25.58,1.25,1.46v4.4Z" transform="translate(0 0)" style="fill:#798ea8"/><path d="M123.43,33.71a8.89,8.89,0,0,0-1.58-.18c-.66,0-.93.31-.93,1v2.35c0,.59.19.88.88.88a2.62,2.62,0,0,0,1.63-.68Zm-3.5.82a1.65,1.65,0,0,1,1.86-1.87,9.59,9.59,0,0,1,1.64.17v-2.4l1-.14v8.23h-.84L123.5,38a3,3,0,0,1-1.9.64c-1.13,0-1.67-.61-1.67-1.76Z" transform="translate(0 0)" style="fill:#798ea8"/><path d="M126,38.52V32.78h1v5.74h-1Z" transform="translate(0 0)" style="fill:#798ea8"/><path d="M130.5,33.47c-1,0-1.31.32-1.31,1.17v.25c0,.87.36,1.14,1.31,1.14s1.31-.39,1.31-1.14v-.25c0-.84-.36-1.17-1.31-1.17m2.62-.12-.69.13a2.08,2.08,0,0,1,.32,1.15v.26c0,1.23-.75,2-2.25,2a5.41,5.41,0,0,1-.59,0,.87.87,0,0,0-.41.61c0,.23.11.31.37.33l1.63.17c1,.1,1.44.5,1.44,1.38,0,1.25-.44,1.66-2.51,1.66a9.08,9.08,0,0,1-2.09-.27l.14-.78a9.25,9.25,0,0,0,1.92.24c1.47,0,1.61-.2,1.61-.81s-.18-.56-.85-.62l-1.52-.14c-.85-.07-1.12-.52-1.12-1a1.29,1.29,0,0,1,.54-1,1.71,1.71,0,0,1-.8-1.62v-.26c0-1.25.6-2,2.24-2a3.53,3.53,0,0,1,1,.12h1.65Z" transform="translate(0 0)" style="fill:#798ea8"/><path d="M137.8,38.52V34.13c0-.38-.19-.53-.56-.53a5.37,5.37,0,0,0-1.92.59v4.33h-1V30.43l1-.14v3a5.75,5.75,0,0,1,2.22-.6c.92,0,1.25.58,1.25,1.46v4.4Z" transform="translate(0 0)" style="fill:#798ea8"/><path d="M141.14,35.2h2.46v-.47c0-.8-.27-1.25-1.2-1.25s-1.26.45-1.26,1.25Zm1.37,2.59a7.06,7.06,0,0,0,1.81-.28l.13.8a6.26,6.26,0,0,1-2,.33c-1.69,0-2.27-.82-2.27-2.11V34.8c0-1.19.54-2.14,2.25-2.14a1.9,1.9,0,0,1,2.16,2.17V36h-3.42v.48c0,.91.25,1.28,1.37,1.28" transform="translate(0 0)" style="fill:#798ea8"/><path d="M148.9,38.42a3.56,3.56,0,0,1-1.2.22c-1,0-1.43-.36-1.43-1.31V33.6h-1v-.82h1V31.36l1-.14v1.56h1.63l-.08.82h-1.55v3.56c0,.43.06.64.59.64a3.89,3.89,0,0,0,.92-.14Z" transform="translate(0 0)" style="fill:#798ea8"/><path d="M150.72,35.2h2.46v-.47c0-.8-.27-1.25-1.2-1.25s-1.26.45-1.26,1.25Zm1.36,2.59a7.07,7.07,0,0,0,1.82-.28l.13.8a6.26,6.26,0,0,1-2,.33c-1.7,0-2.27-.82-2.27-2.11V34.8c0-1.19.54-2.14,2.25-2.14a1.9,1.9,0,0,1,2.16,2.17V36h-3.42v.48c0,.91.24,1.28,1.36,1.28" transform="translate(0 0)" style="fill:#798ea8"/><path d="M158.94,38.52V34.13c0-.38-.19-.53-.56-.53a5.33,5.33,0,0,0-1.92.58v4.34h-1V32.78h.8l.09.49a6.2,6.2,0,0,1,2.32-.61c.92,0,1.25.58,1.25,1.46v4.4Z" transform="translate(0 0)" style="fill:#798ea8"/><path d="M81.76,31.15a.62.62,0,0,1-.62.62.62.62,0,0,1,0-1.24.62.62,0,0,1,.62.62" transform="translate(0 0)" style="fill:#798ea8"/><path d="M83.8,31.15a.62.62,0,0,1-.62.62.62.62,0,0,1,0-1.24.62.62,0,0,1,.62.62" transform="translate(0 0)" style="fill:#798ea8"/><path d="M127.17,30.86a.62.62,0,0,1-.62.62.62.62,0,0,1,0-1.24.62.62,0,0,1,.62.62" transform="translate(0 0)" style="fill:#798ea8"/><path d="M56.56,44.44h-1v1.82h1c.55,0,.73-.15.73-.58V45c0-.44-.18-.58-.73-.58M55,43.92h1.61c1,0,1.29.42,1.29,1.1v.66c0,.68-.34,1.1-1.29,1.1h-1v1.58H55Z" transform="translate(0 0)" style="fill:#798ea8"/><path d="M62,43.92v3.2c0,.72-.42,1.31-1.58,1.31s-1.57-.59-1.57-1.31v-3.2h.57v3.16c0,.55.3.84,1,.84s1-.29,1-.84V43.92Z" transform="translate(0 0)" style="fill:#798ea8"/><path d="M65.51,46.9c0-.36-.2-.55-.64-.55H63.75v1.52H64.9c.41,0,.61-.17.61-.51Zm-.15-2.06c0-.29-.16-.43-.5-.43H63.75v1.45h1c.44,0,.6-.2.6-.52Zm-2.18,3.52V43.92h1.71c.7,0,1,.32,1,.9v.52a.71.71,0,0,1-.51.74.73.73,0,0,1,.65.8v.53c0,.62-.43,1-1.1,1Z" transform="translate(0 0)" style="fill:#798ea8"/><path d="M67.69,47.85h1.93v.51h-2.5V43.92h.57Z" transform="translate(0 0)" style="fill:#798ea8"/><path d="M71.21,48.36h-.57V43.92h.57Z" transform="translate(0 0)" style="fill:#798ea8"/><path d="M72.94,47.09c0,.62.24.82,1,.82a6.75,6.75,0,0,0,1-.09l.06.49a5.91,5.91,0,0,1-1.12.12c-1.08,0-1.52-.47-1.52-1.31v-2c0-.84.44-1.3,1.52-1.3A5.19,5.19,0,0,1,75,44l-.06.49a6.75,6.75,0,0,0-1-.09c-.72,0-1,.2-1,.82Z" transform="translate(0 0)" style="fill:#798ea8"/><path d="M80.35,48.36v-2h-2v2h-.57V43.92h.57v1.92h2V43.92h.57v4.44Z" transform="translate(0 0)" style="fill:#798ea8"/><path d="M82.12,43.92h2.61v.52h-2v1.39h1.9v.51h-1.9v1.51h2v.51H82.12Z" transform="translate(0 0)" style="fill:#798ea8"/><path d="M87.52,44.34l-.8,2.46h1.59Zm1.88,4h-.58l-.36-1.06H86.57l-.36,1.06h-.58l1.5-4.44h.77Z" transform="translate(0 0)" style="fill:#798ea8"/><path d="M91,47.85h1.92v.51h-2.5V43.92H91Z" transform="translate(0 0)" style="fill:#798ea8"/><path d="M94.32,44.44H93v-.52h3.23v.52H94.89v3.92h-.57Z" transform="translate(0 0)" style="fill:#798ea8"/><path d="M99.69,48.36v-2h-2v2h-.58V43.92h.58v1.92h2V43.92h.58v4.44Z" transform="translate(0 0)" style="fill:#798ea8"/><path d="M104.81,44.34,104,46.8h1.58Zm1.89,4h-.58l-.37-1.06h-1.89l-.36,1.06h-.58l1.5-4.44h.78Z" transform="translate(0 0)" style="fill:#798ea8"/><path d="M108.06,47.09c0,.57.16.82.92.82a4.46,4.46,0,0,0,.84-.08V46.32h.55v1.92a5.51,5.51,0,0,1-1.41.19c-1.13,0-1.48-.49-1.48-1.31V45.17c0-.9.45-1.31,1.56-1.31a5.34,5.34,0,0,1,1.23.14l-.07.49a7.32,7.32,0,0,0-1.19-.11c-.73,0-1,.22-1,.82Z" transform="translate(0 0)" style="fill:#798ea8"/><path d="M111.49,43.92h2.62v.52h-2v1.39H114v.51h-1.9v1.51h2v.51h-2.62Z" transform="translate(0 0)" style="fill:#798ea8"/><path d="M115.74,44.58v3.78h-.55V43.92H116l1.93,3.8v-3.8h.55v4.44h-.79Z" transform="translate(0 0)" style="fill:#798ea8"/><path d="M120.17,47.09c0,.62.24.82,1,.82a6.75,6.75,0,0,0,1-.09l.06.49a5.91,5.91,0,0,1-1.12.12c-1.08,0-1.52-.47-1.52-1.31v-2c0-.84.44-1.3,1.52-1.3a5.19,5.19,0,0,1,1.12.12l-.06.49a6.75,6.75,0,0,0-1-.09c-.72,0-1,.2-1,.82Z" transform="translate(0 0)" style="fill:#798ea8"/><path d="M125.94,43.92h.6L125.07,47v1.34h-.57V47L123,43.92h.6l1.16,2.48Z" transform="translate(0 0)" style="fill:#798ea8"/><path d="M129.55,47.07c0,.55.34.85,1,.85s1-.3,1-.85V45.22c0-.55-.33-.86-1-.86s-1,.31-1,.86Zm2.64,0c0,.74-.46,1.35-1.6,1.35S129,47.82,129,47.08V45.2c0-.74.46-1.34,1.61-1.34s1.6.6,1.6,1.34Z" transform="translate(0 0)" style="fill:#798ea8"/><path d="M133.32,48.36V43.92H136v.52H133.9v1.48h1.92v.51H133.9v1.93Z" transform="translate(0 0)" style="fill:#798ea8"/><path d="M139.85,48.43a3.86,3.86,0,0,1-1.32-.23l.09-.47a4.15,4.15,0,0,0,1.24.19c.72,0,.86-.18.86-.69s0-.65-.92-.86c-1.07-.24-1.2-.45-1.2-1.37s.32-1.14,1.42-1.14a5.19,5.19,0,0,1,1.2.14l0,.49a5.54,5.54,0,0,0-1.14-.13c-.73,0-.86.15-.86.66s0,.64.88.86c1.18.3,1.24.47,1.24,1.34s-.23,1.21-1.45,1.21" transform="translate(0 0)" style="fill:#798ea8"/><path d="M146.35,47.82l1-3.9h.56l-1.17,4.44H146l-.92-4-.92,4h-.81l-1.17-4.44h.56l1,3.9.92-3.9h.8Z" transform="translate(0 0)" style="fill:#798ea8"/><path d="M148.87,43.92h2.61v.52h-2v1.39h1.89v.51h-1.89v1.51h2.05v.51h-2.62Z" transform="translate(0 0)" style="fill:#798ea8"/><path d="M153.14,47.85h1c.67,0,.87-.28.87-.8V45.24c0-.52-.2-.8-.87-.8h-1Zm1-3.93c1.09,0,1.43.57,1.43,1.28v1.89c0,.71-.34,1.27-1.43,1.27h-1.55V43.92Z" transform="translate(0 0)" style="fill:#798ea8"/><path d="M156.66,43.92h2.61v.52h-2v1.39h1.9v.51h-1.9v1.51h2.05v.51h-2.62Z" transform="translate(0 0)" style="fill:#798ea8"/><path d="M160.9,44.58v3.78h-.54V43.92h.78l1.94,3.8v-3.8h.54v4.44h-.78Z" transform="translate(0 0)" style="fill:#798ea8"/></svg>