<svg xmlns="http://www.w3.org/2000/svg" viewBox="0 0 161.34 53.76"><path d="M107,144.25c-1.36,0-3.21.1-3.22.11a.46.46,0,0,1-.51-.4.45.45,0,0,1,.43-.47h0c.06,0,1.91-.1,3.3-.1s3.23.1,3.29.1a.46.46,0,0,1,.44.47.47.47,0,0,1-.51.4s-1.87-.11-3.22-.11" transform="translate(-82.41 -126.46)" style="fill:#798ea8"/><path d="M107.24,157.73a.27.27,0,0,0-.21-.09.31.31,0,0,0-.22.09l-3.62,3.62.43.43,3.41-3.4,3.4,3.4.43-.43Z" transform="translate(-82.41 -126.46)" style="fill:#798ea8"/><path d="M107.51,153.22l-.11.13a.55.55,0,0,1-.38.16.52.52,0,0,1-.37-.16l-.11-.12L100.8,159l.43.43L107,153.6l5.8,5.79.43-.43Z" transform="translate(-82.41 -126.46)" style="fill:#798ea8"/><path d="M107.31,155.27a.39.39,0,0,0-.56,0h0l-4.82,4.81.58.58,4.53-4.53,4.53,4.53.57-.58Z" transform="translate(-82.41 -126.46)" style="fill:#798ea8"/><path d="M126.41,158.46a5.16,5.16,0,0,0-5.6-1.11,8.27,8.27,0,0,1-1.22,1.54,4.52,4.52,0,1,1,0,6.39h0l-3.18-3.22h0l-.43.42,3.2,3.2h0a5.13,5.13,0,0,0,7.23-7.22" transform="translate(-82.41 -126.46)" style="fill:#798ea8"/><path d="M117.16,167.65,114,164.46l-.44.43,3.2,3.2h0a4.51,4.51,0,1,1-6.48.09l-1.62,1.61a5.13,5.13,0,1,0,8.53-2.13h0" transform="translate(-82.41 -126.46)" style="fill:#798ea8"/><path d="M107,173.61a6.92,6.92,0,0,1-13-4.74c.07-.18.14-.36.22-.54a6.93,6.93,0,0,1-2.94.65h0a6.92,6.92,0,0,1-.53-13.83,4.68,4.68,0,0,1,.53,0,6.63,6.63,0,0,1,1,.08,7.08,7.08,0,0,0,.31.88,6.11,6.11,0,1,0,3,10.27l3.2-3.2.57.58L96.2,167a6.1,6.1,0,1,0,10.42,4.31,1.41,1.41,0,0,0,0-.29l.2.19a.31.31,0,0,0,.22.09.27.27,0,0,0,.21-.09l.2-.19v.29a6.09,6.09,0,0,0,6.08,6.1h0A6.1,6.1,0,0,0,117.85,167l-3.19-3.2.57-.58,3.2,3.2a6.1,6.1,0,1,0,3-10.27,7,7,0,0,0,.3-.88,6.74,6.74,0,0,1,1-.08,6.92,6.92,0,0,1,0,13.83h0a7,7,0,0,1-2.94-.65A6.9,6.9,0,1,1,107,173.61" transform="translate(-82.41 -126.46)" style="fill:#798ea8"/><path d="M107,177.34l-.22.22a8.9,8.9,0,0,1-15.19-6.21.2.2,0,0,1,0-.11V171h-.31a8.9,8.9,0,0,1,0-17.8h.74a6.27,6.27,0,0,0,.1,1h-.87a7.88,7.88,0,0,0,0,15.76h0a5.47,5.47,0,0,0,.81,0,.5.5,0,0,1,.55.44.24.24,0,0,1,0,.12v.8h0a7.88,7.88,0,0,0,13.46,5.52,4.37,4.37,0,0,0,.54-.6.51.51,0,0,1,.72-.07l.07.07a7.7,7.7,0,0,0,.54.6,7.89,7.89,0,0,0,13.44-5.47h0a5.34,5.34,0,0,0,0-.8.52.52,0,0,1,.48-.56H122a5.34,5.34,0,0,0,.8,0,7.88,7.88,0,1,0,0-15.76H122a8.26,8.26,0,0,0,.1-1h.69a8.9,8.9,0,0,1,0,17.8h-.36v.29a.21.21,0,0,1,0,.11,8.9,8.9,0,0,1-15.19,6.21l-.21-.22" transform="translate(-82.41 -126.46)" style="fill:#798ea8"/><path d="M87.68,158.46a5.16,5.16,0,0,1,5.6-1.11,8.7,8.7,0,0,0,1.22,1.54,4.52,4.52,0,1,0,0,6.39h0l3.19-3.2h0l.43.42-3.2,3.2h0a5,5,0,0,1-3.62,1.5,5.13,5.13,0,0,1-3.62-8.74" transform="translate(-82.41 -126.46)" style="fill:#798ea8"/><path d="M96.89,167.65l3.2-3.2.43.43-3.2,3.2h0a4.51,4.51,0,1,0,6.48.09l1.61,1.61a5.12,5.12,0,1,1-8.53-2.13h0" transform="translate(-82.41 -126.46)" style="fill:#798ea8"/><path d="M100.51,145a7.9,7.9,0,0,0-5.58,13.5L107,170.53l12.1-12.07A7.91,7.91,0,0,0,108,147.27a10,10,0,0,0-.68.78.29.29,0,0,1-.24.12h0a.3.3,0,0,1-.24-.12,7.17,7.17,0,0,0-.68-.78,7.84,7.84,0,0,0-5.6-2.31m6.51,26.3a.29.29,0,0,1-.21-.09L94.5,158.87a8.51,8.51,0,0,1,12-12c.17.17.33.35.49.54.16-.19.33-.37.5-.54a8.51,8.51,0,0,1,12,12l-12.25,12.3a.31.31,0,0,1-.22.09" transform="translate(-82.41 -126.46)" style="fill:#798ea8"/><path d="M100.51,148.74a4.12,4.12,0,0,0-2.91,7l9.42,9.42,9.39-9.39a4.12,4.12,0,0,0-5.83-5.83c-.86.86-3.2,3.38-3.22,3.41a.55.55,0,0,1-.38.16.52.52,0,0,1-.37-.16s-2.32-2.55-3.2-3.41a4.14,4.14,0,0,0-2.92-1.2M107,166.46a.54.54,0,0,1-.36-.14l-9.78-9.86a5.14,5.14,0,1,1,7.27-7.27c.67.67,2.17,2.28,2.87,3,.71-.76,2.21-2.37,2.88-3a5.14,5.14,0,1,1,7.27,7.27l-9.76,9.81a.54.54,0,0,1-.36.14" transform="translate(-82.41 -126.46)" style="fill:#798ea8"/><path d="M100.51,146.75a6.11,6.11,0,0,0-4.31,10.42L107,168l10.83-10.83a6.1,6.1,0,0,0-8.63-8.63c-1.25,1.25-1.89,2-1.89,2a.44.44,0,0,1-.31.13.43.43,0,0,1-.3-.13s-.64-.71-1.89-2a6.08,6.08,0,0,0-4.32-1.79M107,169a.44.44,0,0,1-.28-.12L95.62,157.75a6.92,6.92,0,0,1,9.79-9.79c.77.78,1.31,1.34,1.61,1.67.31-.33.85-.89,1.62-1.67a6.92,6.92,0,0,1,9.77,9.79l-11.1,11.12a.4.4,0,0,1-.29.12" transform="translate(-82.41 -126.46)" style="fill:#798ea8"/><path d="M107,144.25c-1.36,0-3.21.1-3.22.11a.46.46,0,0,1-.51-.4.45.45,0,0,1,.43-.47h0c.06,0,1.91-.1,3.3-.1s3.23.1,3.29.1a.46.46,0,0,1,.44.47.47.47,0,0,1-.51.4s-1.87-.11-3.22-.11" transform="translate(-82.41 -126.46)" style="fill:#798ea8"/><path d="M107.75,132.81c1.4.34,2.48,1.67,3.29,3.57a.22.22,0,0,0,.1.09l1,.29a.06.06,0,0,0,.08,0l.45-.52a.17.17,0,0,0,0-.14,7.41,7.41,0,0,0-3.26-3.15,10.54,10.54,0,0,1,6.6,3.91.34.34,0,0,0,.25.13h.88m0,0v-.24a.26.26,0,0,0-.07-.16c-2.05-2.57-5.58-4-9.45-4.21h0a1.6,1.6,0,0,0,.92-1.06h-3.12a1.61,1.61,0,0,0,.94,1h0c-3.87.16-7.4,1.64-9.45,4.21a.33.33,0,0,0-.07.16v.24m0,0h.88a.34.34,0,0,0,.25-.13,10.53,10.53,0,0,1,6.56-3.91,7.41,7.41,0,0,0-3.22,3.19.17.17,0,0,0,0,.14l.45.52a.06.06,0,0,0,.08,0l1-.29a.22.22,0,0,0,.1-.09c.81-1.9,1.89-3.23,3.29-3.57-.13.84-.24,1.91-.32,3.14a.13.13,0,0,0,.07.14l.93.38h.09l.93-.38a.13.13,0,0,0,.07-.14c-.08-1.23-.19-2.3-.32-3.14" transform="translate(-82.41 -126.46)" style="fill:#798ea8"/><path d="M106.66,128.24v1.07a1.8,1.8,0,0,1,.73,0v-1.07h1.13a1.09,1.09,0,0,0,0-.36,1.15,1.15,0,0,0,0-.37h-1.11v-1a1.3,1.3,0,0,0-.73,0v1h-1.15a2.29,2.29,0,0,0,0,.37,2.16,2.16,0,0,0,0,.36Z" transform="translate(-82.41 -126.46)" style="fill:#798ea8"/><path d="M107,142.46a52.36,52.36,0,0,1,8.66.73.41.41,0,0,0,.45-.28l1.45-5a1,1,0,0,0-.71-.37,1,1,0,0,0-1.14.84s0,.07,0,.11a1.41,1.41,0,0,0,0,.41,1.08,1.08,0,0,0-1.1,1,1.05,1.05,0,0,0,1,1.14h.14c.29,0,.33,0,.11.17a2.58,2.58,0,0,1-1.68.62,2.28,2.28,0,0,1-2-1.12c-.06-.11,0-.16.11-.08a1,1,0,0,0,.54.22,1.05,1.05,0,1,0,.27-2.09,1.27,1.27,0,0,0,.12-.39,1.06,1.06,0,0,0-2.08-.41,1.23,1.23,0,0,0,0,.19,1.41,1.41,0,0,0,0,.41,1.05,1.05,0,1,0-.18,2.1,1.11,1.11,0,0,0,.6-.11c.09,0,.15,0,.08.09a2.78,2.78,0,0,1-4.42-.34c0-.09,0-.12.09-.06a1,1,0,0,0,.62.21,1.06,1.06,0,0,0,1-1.13,1,1,0,0,0-.93-1,1.06,1.06,0,0,0-2-.83,1.08,1.08,0,0,0,0,.83,1.06,1.06,0,0,0,.05,2.11,1,1,0,0,0,.62-.21c.09-.06.14,0,.09.06a2.78,2.78,0,0,1-4.42.34c-.07-.09,0-.14.09-.09a1.09,1.09,0,0,0,.59.11,1.05,1.05,0,0,0-.18-2.1.94.94,0,0,0,0-.41,1.06,1.06,0,1,0-2.1.28,1,1,0,0,0,.1.33,1.05,1.05,0,0,0,.26,2.09,1.11,1.11,0,0,0,.55-.22c.09-.08.16,0,.11.08a2.3,2.3,0,0,1-2,1.12,2.6,2.6,0,0,1-1.68-.62c-.22-.2-.17-.22.11-.17a1.05,1.05,0,0,0,1.23-.84,1,1,0,0,0,0-.35,1.07,1.07,0,0,0-1.1-1,1.13,1.13,0,0,0,0-.41,1,1,0,0,0-1-1h-.1a1,1,0,0,0-.72.37l1.45,5a.43.43,0,0,0,.46.28,52.92,52.92,0,0,1,8.62-.68" transform="translate(-82.41 -126.46)" style="fill:#798ea8"/><path d="M106.49,130.53h-1.08a1.63,1.63,0,0,1,1.21-1.22v1c0,.12,0,.17-.17.17" transform="translate(-82.41 -126.46)" style="fill:#798ea8"/><path d="M107.56,130.53h1a1.62,1.62,0,0,0-1.15-1.22v1c0,.12,0,.17.17.17" transform="translate(-82.41 -126.46)" style="fill:#798ea8"/><path d="M138.83,165.4v-7.86h4.67v.91h-3.67v2.62h3.4V162h-3.4v3.42Z" transform="translate(-82.41 -126.46)" style="fill:#798ea8"/><path d="M146.47,160.4q-1.35,0-1.35,1.26v1.73c0,.84.45,1.27,1.35,1.27s1.36-.43,1.36-1.27v-1.73c0-.84-.45-1.26-1.34-1.26m0,5.12a2,2,0,0,1-2.32-1.62,2,2,0,0,1,0-.54V161.7a2.34,2.34,0,0,1,4.67,0v1.66a2,2,0,0,1-1.8,2.18,1.89,1.89,0,0,1-.53,0" transform="translate(-82.41 -126.46)" style="fill:#798ea8"/><path d="M150.2,165.4v-8.09l1-.14v8.23Z" transform="translate(-82.41 -126.46)" style="fill:#798ea8"/><path d="M157.15,159.66l-2.47,2.84,2.57,2.9h-1.17l-2.56-2.9,2.49-2.84Zm-4.41,5.74v-8.09l1-.14v8.23Z" transform="translate(-82.41 -126.46)" style="fill:#798ea8"/><path d="M161.57,165.4V161c0-.38-.19-.53-.56-.53a5.23,5.23,0,0,0-1.92.59v4.33h-1v-8.09l1-.14v3a5.74,5.74,0,0,1,2.22-.6c.92,0,1.25.58,1.25,1.46v4.4Z" transform="translate(-82.41 -126.46)" style="fill:#798ea8"/><path d="M166.93,163.07h-1.46c-.61,0-.84.19-.84.77s.11.83.82.83a2.88,2.88,0,0,0,1.48-.47Zm1,2.33h-.83L167,165a3.25,3.25,0,0,1-1.87.55c-1.07,0-1.52-.64-1.52-1.65,0-1.2.61-1.62,1.76-1.62h1.52v-.9c0-.72-.31-1-1.25-1a9.06,9.06,0,0,0-1.72.19l-.1-.8a8.57,8.57,0,0,1,1.88-.24c1.64,0,2.18.63,2.18,1.86Z" transform="translate(-82.41 -126.46)" style="fill:#798ea8"/><path d="M169.43,165.4v-8.09l1-.14v8.23Z" transform="translate(-82.41 -126.46)" style="fill:#798ea8"/><path d="M173.59,165.52a5.72,5.72,0,0,1-1.83-.31l.13-.78a6.57,6.57,0,0,0,1.64.24c.91,0,1.06-.17,1.06-.78s-.05-.68-1.2-1c-1.43-.32-1.56-.61-1.56-1.81s.47-1.54,2-1.54a6.38,6.38,0,0,1,1.63.2l-.07.81a9.07,9.07,0,0,0-1.56-.16c-.85,0-1,.2-1,.72s0,.75,1,1c1.65.41,1.78.61,1.78,1.75s-.34,1.67-2,1.67" transform="translate(-82.41 -126.46)" style="fill:#798ea8"/><path d="M179.1,160.4c-.89,0-1.34.42-1.34,1.26v1.73c0,.84.45,1.27,1.34,1.27s1.34-.43,1.34-1.27v-1.73c0-.84-.44-1.26-1.34-1.26m0,5.12a2,2,0,0,1-2.31-1.63,1.89,1.89,0,0,1,0-.53V161.7a2.34,2.34,0,0,1,4.67,0v1.66a2,2,0,0,1-1.8,2.18,2,2,0,0,1-.54,0" transform="translate(-82.41 -126.46)" style="fill:#798ea8"/><path d="M189.76,165.4V161c0-.38-.19-.53-.56-.53a5,5,0,0,0-1.92.58v4.34h-1V161c0-.38-.19-.53-.55-.53a5.46,5.46,0,0,0-1.93.58v4.34h-1v-5.74h.8l.1.49a6.19,6.19,0,0,1,2.31-.61,1.06,1.06,0,0,1,1.1.61,6.11,6.11,0,0,1,2.37-.61c.92,0,1.25.58,1.25,1.46v4.4Z" transform="translate(-82.41 -126.46)" style="fill:#798ea8"/><path d="M194,165.4h-.41l-1.87-5.74h1l1.57,5,1.57-5h1l-1.9,5.74-.81,2.32h-.93Z" transform="translate(-82.41 -126.46)" style="fill:#798ea8"/><path d="M201.35,165.4V161c0-.38-.19-.53-.56-.53a5.41,5.41,0,0,0-1.92.58v4.34h-1v-5.74h.8l.1.49a6.19,6.19,0,0,1,2.31-.61c.92,0,1.25.58,1.25,1.46v4.4Z" transform="translate(-82.41 -126.46)" style="fill:#798ea8"/><path d="M207.26,160.59a8.41,8.41,0,0,0-1.58-.18c-.66,0-.93.31-.93,1v2.35c0,.59.19.88.88.88a2.6,2.6,0,0,0,1.63-.68Zm-3.5.82a1.66,1.66,0,0,1,1.4-1.87,1.77,1.77,0,0,1,.46,0,10,10,0,0,1,1.64.17v-2.4l1-.14v8.23h-.84l-.09-.52a3,3,0,0,1-1.9.64c-1.13,0-1.67-.61-1.67-1.76Z" transform="translate(-82.41 -126.46)" style="fill:#798ea8"/><path d="M209.83,165.4v-5.74h1v5.74Z" transform="translate(-82.41 -126.46)" style="fill:#798ea8"/><path d="M214.33,160.35c-1,0-1.31.32-1.31,1.17v.25c0,.87.36,1.14,1.31,1.14s1.31-.39,1.31-1.14v-.25c0-.84-.36-1.17-1.31-1.17m2.62-.12-.69.13a2,2,0,0,1,.32,1.15v.26c0,1.23-.75,2-2.25,2h-.59a.87.87,0,0,0-.41.61c0,.23.11.31.37.33l1.63.17c1,.1,1.44.5,1.44,1.38,0,1.25-.44,1.66-2.51,1.66a9.21,9.21,0,0,1-2.09-.27l.14-.78a8.85,8.85,0,0,0,1.92.24c1.47,0,1.61-.2,1.61-.81s-.18-.56-.85-.62l-1.52-.14c-.85-.07-1.12-.52-1.12-1a1.31,1.31,0,0,1,.54-1,1.72,1.72,0,0,1-.8-1.62v-.26c0-1.25.6-2,2.24-2a3.38,3.38,0,0,1,1,.12H217Z" transform="translate(-82.41 -126.46)" style="fill:#798ea8"/><path d="M221.63,165.4V161c0-.38-.19-.53-.56-.53a5.23,5.23,0,0,0-1.92.59v4.33h-1v-8.09l1-.14v3a5.74,5.74,0,0,1,2.22-.6c.92,0,1.25.58,1.25,1.46v4.4Z" transform="translate(-82.41 -126.46)" style="fill:#798ea8"/><path d="M225,162.08h2.46v-.47c0-.8-.27-1.25-1.2-1.25s-1.26.45-1.26,1.25Zm1.37,2.59a7,7,0,0,0,1.81-.28l.13.8a6.17,6.17,0,0,1-2,.33c-1.69,0-2.27-.82-2.27-2.11v-1.73c0-1.19.54-2.14,2.25-2.14a1.89,1.89,0,0,1,2.16,1.6,1.82,1.82,0,0,1,0,.57v1.17H225v.48c0,.91.25,1.28,1.37,1.28" transform="translate(-82.41 -126.46)" style="fill:#798ea8"/><path d="M232.73,165.3a3.49,3.49,0,0,1-1.2.22c-1,0-1.43-.36-1.43-1.31v-3.73h-1v-.82h1v-1.42l1-.14v1.56h1.63l-.08.82H231.1V164c0,.43.06.64.59.64a4.1,4.1,0,0,0,.92-.14Z" transform="translate(-82.41 -126.46)" style="fill:#798ea8"/><path d="M234.55,162.08H237v-.47c0-.8-.27-1.25-1.2-1.25s-1.26.45-1.26,1.25Zm1.36,2.59a7,7,0,0,0,1.82-.28l.13.8a6.17,6.17,0,0,1-2,.33c-1.7,0-2.27-.82-2.27-2.11v-1.73c0-1.19.54-2.14,2.25-2.14a1.89,1.89,0,0,1,2.16,1.6,1.82,1.82,0,0,1,0,.57v1.17h-3.42v.48c0,.91.24,1.28,1.36,1.28" transform="translate(-82.41 -126.46)" style="fill:#798ea8"/><path d="M242.77,165.4V161c0-.38-.19-.53-.56-.53a5.41,5.41,0,0,0-1.92.58v4.34h-1v-5.74h.8l.09.49a6.29,6.29,0,0,1,2.32-.61c.92,0,1.25.58,1.25,1.46v4.4Z" transform="translate(-82.41 -126.46)" style="fill:#798ea8"/><path d="M165.59,158a.62.62,0,0,1-.62.62h0a.62.62,0,1,1,.62-.62h0" transform="translate(-82.41 -126.46)" style="fill:#798ea8"/><path d="M167.63,158a.62.62,0,0,1-.62.62h0a.62.62,0,1,1,.62-.62h0" transform="translate(-82.41 -126.46)" style="fill:#798ea8"/><path d="M211,157.74a.62.62,0,0,1-.62.62h0a.62.62,0,1,1,.62-.62h0" transform="translate(-82.41 -126.46)" style="fill:#798ea8"/></svg>