<svg xmlns="http://www.w3.org/2000/svg" xmlns:xlink="http://www.w3.org/1999/xlink" viewBox="0 0 469.53 546.3"><defs><linearGradient id="b" x1="1131.55" y1="948.8" x2="1446.55" y2="948.8" gradientTransform="rotate(180 1103.515 711.705)" gradientUnits="userSpaceOnUse"><stop offset="0" stop-color="#43a8d8" stop-opacity=".1"/><stop offset="1" stop-color="#a4e9fd"/></linearGradient><linearGradient id="a" x1="1132.73" y1="32.25" x2="1132.73" y2="-224.28" gradientTransform="translate(-214.75 570.62)" gradientUnits="userSpaceOnUse"><stop offset="0" stop-color="#43a8d8"/><stop offset="1" stop-color="#a4e9fd"/></linearGradient><linearGradient id="d" x1="1289.05" y1="839.18" x2="1289.05" y2="1077.05" gradientTransform="rotate(180 1103.515 711.705)" xlink:href="#a"/><linearGradient id="e" x1="121.84" y1="1718.05" x2="436.84" y2="1718.05" gradientTransform="translate(638.64 -1081.86)" xlink:href="#b"/><linearGradient id="f" x1="2142.44" y1="-737" x2="2142.44" y2="-993.53" gradientTransform="rotate(180 1530.21 -114.535)" xlink:href="#a"/><linearGradient id="g" x1="279.34" y1="1608.43" x2="279.34" y2="1846.3" gradientTransform="translate(638.64 -1081.86)" xlink:href="#a"/><linearGradient id="p" x1="957.91" y1="658.27" x2="983.7" y2="658.27" xlink:href="#c"/><linearGradient id="q" x1="955.89" y1="673.84" x2="1011.54" y2="673.84" xlink:href="#c"/><linearGradient id="r" x1="955.11" y1="676.77" x2="992.85" y2="676.77" xlink:href="#c"/><linearGradient id="s" x1="222.85" y1="411.43" x2="239.92" y2="411.43" xlink:href="#c"/><linearGradient id="u" x1="956.42" y1="706.53" x2="970.22" y2="706.53" gradientTransform="rotate(6.95 963.20556804 706.44850734)" xlink:href="#b"/><linearGradient id="v" x1="957.6" y1="712.1" x2="963.32" y2="712.1" xlink:href="#b"/><linearGradient id="w" x1="995.84" y1="729.74" x2="1009.63" y2="729.74" gradientTransform="rotate(6.95 1002.6264446 729.59121572)" xlink:href="#b"/><linearGradient id="x" x1="995.84" y1="729.75" x2="1009.63" y2="729.75" xlink:href="#b"/><radialGradient id="c" cx="954.92" cy="789.52" r="11.35" gradientUnits="userSpaceOnUse"><stop offset="0" stop-color="#43a8d8" stop-opacity=".5"/><stop offset="1" stop-color="#a4e9fd"/></radialGradient><radialGradient id="h" cx="945.96" cy="744.9" r="7.63" xlink:href="#c"/><radialGradient id="i" cx="953.65" cy="747.27" r="8.84" xlink:href="#c"/><radialGradient id="j" cx="957.5" cy="755.63" r="5.19" xlink:href="#c"/><radialGradient id="k" cx="965.44" cy="758.19" r="6.41" xlink:href="#c"/><radialGradient id="l" cx="973.72" cy="759.9" r="8.23" xlink:href="#c"/><radialGradient id="m" cx="979.49" cy="765.26" r="7" xlink:href="#c"/><radialGradient id="n" cx="984.78" cy="771.39" r="5.19" xlink:href="#c"/><radialGradient id="o" cx="990.52" cy="776.55" r="4.03" xlink:href="#c"/><radialGradient id="t" cx="924.91" cy="772.19" r="11.35" xlink:href="#c"/></defs><g style="isolation:isolate"><path d="M469.52 207.5c0 114.6-92.9 207.5-207.5 207.5-275.24-10.93-275.17-404.11 0-415 114.6 0 207.5 92.9 207.5 207.5z" fill="#161e2e"/><path fill="#43a8d8" d="M373.7 467.54l-315-181.87V49.42l315 181.87v236.25z"/><path fill="#63bee4" d="M363.54 477.7l-315-181.86V59.59l315 181.87V477.7z"/><path fill="#84d3f1" d="M353.37 487.87l-315-181.86V69.76l315 181.86v236.25z"/><path fill="#a4e9fd" d="M343.2 498.04l-315-181.87V79.92l315 181.87v236.25z"/><path d="M1075.48 602.88c-16.46-23.11-34.86-55.83-63-73.71-21-12.13-42-5.58-63-14.59s-42-33.49-63-58.16C846.66 410 822.41 380.93 771 414.62L760.48 421v-74.66l315 181.87z" transform="translate(-732.28 -266.42)" opacity=".7" fill="url(#b)"/><path d="M1075.48 602.88c-31.22-29.13-58.74-55.07-105-96.41-35-31.09-70-60.63-105-73.05-45.72-14.71-73.85-6.41-105-3.08v-84l315 181.87z" transform="translate(-732.28 -266.42)" opacity=".7" fill="url(#a)"/><path d="M1075.48 584.23c-29.18-31.52-58.4-69-105-99.5-35-21.87-70-26.33-105-40.41-46.43-19.52-74.57-40.78-105-60.62v-37.34l315 181.87z" transform="translate(-732.28 -266.42)" opacity=".7" fill="url(#d)"/><path d="M760.48 507.93c16.46 23.1 34.86 55.82 63 73.7 21 12.13 42 5.58 63 14.59s42 33.49 63 58.16c39.82 46.46 64.07 75.49 115.5 41.8l10.5-6.39v74.67l-315-181.87z" transform="translate(-732.28 -266.42)" opacity=".7" fill="url(#e)"/><path d="M760.48 507.93c31.22 29.12 58.74 55.06 105 96.41 35 31.08 70 60.62 105 73 45.73 14.72 73.85 6.42 105 3.08v84l-315-181.87z" transform="translate(-732.28 -266.42)" opacity=".7" fill="url(#f)"/><path d="M760.48 526.57c29.18 31.52 58.4 68.95 105 99.5 35 21.87 70 26.33 105 40.41 46.44 19.53 74.57 40.78 105 60.63v37.33l-315-181.87z" transform="translate(-732.28 -266.42)" opacity=".7" fill="url(#g)"/><path fill="#27526e" d="M308.98 400.13l-81.48-47.04v11.29l81.48 47.05v-11.3z"/><path fill="#1c2f43" d="M305.72 402.02v3.76l-74.97-43.28v-3.76l74.97 43.28z"/><path fill="#214159" d="M308.98 400.13l3.26-1.88-81.49-47.04-3.25 1.88 81.48 47.04z"/><path fill="#1c2f43" d="M312.24 398.25l-3.26 1.88v11.3l3.26-1.89v-11.29z"/><path d="M291.4 416.33a39 39 0 00-5.24 19.55v47.09a39.12 39.12 0 01-19.56 33.86l-42.67 24.47v2.19l43.48-25.27a40.83 40.83 0 0020.31-35.25v-47.09a37.6 37.6 0 0118-32v-1.87a39 39 0 00-14.32 14.32z" fill="#43a8d8"/><path fill="#3d97c3" d="M152.22 501.76l71.72 41.73v-2.19l-71.71-41.37-.01 1.83z"/><path d="M266.6 521.83a39.12 39.12 0 0019.56-33.86v-47.09a39.09 39.09 0 0119.56-33.86l-71.71-41.44a39.14 39.14 0 00-19.56 33.88v39.33c0 14-7.77 34.64-19.87 41.63l-42.36 24.47 71.7 41.37z" fill="#cce7f4" opacity=".5"/><path d="M266.6 516.83a39.12 39.12 0 0019.56-33.86v-47.09a39.09 39.09 0 0119.56-33.86l-71.71-41.44a39.14 39.14 0 00-19.56 33.88v39.33c0 14-7.77 34.64-19.87 41.63l-42.36 24.47 71.7 41.37z" fill="#f5f5f5"/><path d="M218.96 404.19c-.14-6.25 0-12.57 2.14-18.14a29.64 29.64 0 015.26-9.19l-.44-.35a30 30 0 00-5.36 9.35c-2.08 5.53-2.32 11.77-2.17 18z" fill="#a5a4a4" opacity=".4"/><path d="M249.53 400.35a21.11 21.11 0 011.89-3l-24.18-14a22.74 22.74 0 00-1.61 3.2z" fill="#43a8d8"/><path d="M279.26 421.5a33.36 33.36 0 00-1 3.44l-54.61-31.52a32.86 32.86 0 01.83-3.52z" fill="#a4e9fd"/><path d="M260.57 419.21v3.84l-37.73-21.81s.13-3.58.17-3.58z" fill="#43a8d8"/><path fill="#a4e9fd" d="M239.92 414.55v3.62l-17.07-9.86v-3.62l17.07 9.86z"/><path fill="#43a8d8" d="M254.79 441.1l-3.41-1.97v3.62l3.41 1.97v-3.62z"/><path fill="#a4e9fd" d="M254.79 448.69l-3.41-1.97v3.62l3.41 1.97v-3.62z"/><path fill="#43a8d8" d="M254.79 456.03l-3.41-1.97v3.62l3.41 1.97v-3.62z"/><path fill="#a4e9fd" d="M254.79 463.15l-3.41-1.97v3.61l3.41 1.97v-3.61z"/><path d="M213.24 528.58c5.66 3.26 14.45 3.48 19.64.48s4.81-8.07-.85-11.33-14.45-3.49-19.64-.49-4.81 8.02.85 11.34zm2.08-9.65c3.71-2.14 10-2 14 .35s4.31 6 .6 8.09-10 2-14-.34-4.31-6.01-.6-8.15z" fill="#43a8d8"/><path d="M226.72 515.68l-1.19 2.12a17 17 0 00-7-.13l-1.6-2.17a23.73 23.73 0 019.79.18z" fill="#27debf"/><path d="M226.72 515.68l-1.19 2.12a17 17 0 00-7-.13l-1.6-2.17a23.73 23.73 0 019.79.18z" fill="#a4e9fd"/><path d="M945.52 795c5.66 3.26 14.45 3.48 19.64.48s4.81-8.07-.85-11.33-14.45-3.49-19.64-.49-4.81 8.02.85 11.34zm2.08-9.65c3.71-2.14 10-2 14 .35s4.31 6 .6 8.09-10 2-14-.34-4.31-6.01-.6-8.15z" transform="translate(-732.28 -266.42)" opacity=".5" fill="url(#c)"/><path d="M287.51 405.5a.57.57 0 00.29-1.06l-58.08-33.49a.5755215.5755215 0 00-.57 1c.45.13 57.96 33.63 58.36 33.55zM290.01 402.82a.57.57 0 00.29-1.06l-58.05-33.49a.5755215.5755215 0 00-.57 1c.41.13 57.93 33.58 58.33 33.55z" fill="#a5a4a4" opacity=".4"/><path d="M185.31 501.58c-3.71 2.14-3.44 5.77.61 8.1 4 2.33 10.32 2.49 14 .35s3.44-5.77-.6-8.1c-4.02-2.35-10.3-2.52-14.01-.35z" fill="none"/><path d="M202.02 500.35l-2.68 1.55c4 2.33 4.31 5.95.6 8.1s-10 2-14-.35l-2.68 1.55c5.66 3.26 14.45 3.48 19.64.48s4.82-8.1-.88-11.33z" fill="#43a8d8"/><path d="M185.91 509.65c-4.05-2.33-4.32-6-.61-8.1s10-2 14 .35l2.68-1.55c-5.66-3.27-14.45-3.48-19.64-.49s-4.81 8.08.85 11.34z" fill="#a4e9fd"/><path fill="#a5a4a4" opacity=".4" d="M214.79 500.62l-24.45-14.12-1.15.66 24.46 14.11 1.14-.65zM248.64 520.05l-24.45-14.12-1.15.65 24.47 14.12 1.13-.65z"/><path d="M212.79 478.11a40 40 0 01-7.05 5.69l3.44 2a40.76 40.76 0 007.2-5.89 40 40 0 005.24-6.75l-3.42-2a39.48 39.48 0 01-5.41 6.95zM220.79 480.8a38.54 38.54 0 01-8.22 6.94l3.44 2A39.74 39.74 0 00230.16 474l-3.39-2a38.61 38.61 0 01-5.98 8.8zM231.04 486.72l-3.42-2a39.12 39.12 0 01-8.22 6.94l3.44 2a41.32 41.32 0 008.2-6.94zM237.87 490.66c.8-.9 1.54-1.81 2.23-2.73l-3.41-2a38.14 38.14 0 01-10.46 9.7l3.44 2a41 41 0 008.2-6.97zM240.72 493.27a40.36 40.36 0 01-7.64 6.31l3.45 2a39.38 39.38 0 0013.29-14.19l-3.41-2a41.18 41.18 0 01-5.69 7.88zM246.32 498.35a36.18 36.18 0 01-6.42 5.18l3.45 2a36.12 36.12 0 0011.17-11.35l-3.4-2a34.16 34.16 0 01-4.8 6.17zM258.32 502.47l-3.42-2a38.71 38.71 0 01-8.23 6.94l3.45 2a41 41 0 008.2-6.94zM262.9 508.82l-3.44-2a34.75 34.75 0 01-5.89 4.58l3.45 2a26.77 26.77 0 005.88-4.58z" fill="#43a8d8"/><path fill="#a5a4a4" opacity=".4" d="M256.99 515.38l-31.01-17.91-.01.01-27.12-15.67-.8.47 31 17.9 27.14 15.66.8-.46z"/><path fill="#fff" d="M218.05 514.1l-6.64-3.84 4.07-2.35 6.65 3.83-4.08 2.36z"/><path d="M215.66 509.33c-.38.3-1.48 0-.81-.46.37-.29 1.48-.03.81.46z" fill="#a4e9fd"/><path fill="#a5a4a4" opacity=".4" d="M219.91 512.32l-4.1-2.37.78-.45 4.1 2.37-.78.45zM218.46 513.34l-5.6-3.23.78-.45 5.6 3.23-.78.45z"/><path fill="#fff" d="M188.25 496.88l-6.64-3.83 4.08-2.35 6.64 3.83-4.08 2.35z"/><path d="M185.86 492.12c-.37.3-1.48 0-.81-.47.38-.29 1.48-.02.81.47z" fill="#a4e9fd"/><path fill="#a5a4a4" opacity=".4" d="M190.11 495.11l-4.1-2.37.79-.45 4.09 2.37-.78.45zM188.66 496.13l-5.6-3.23.78-.45 5.6 3.23-.78.45zM210.72 474.96l-.92-.54c-.65.74-1.35 1.45-2.06 2.15l1 .57-.41.4-1-.56q-1.08 1-2.25 2l.94.53-.51.37-.9-.52c-1 .81-2.09 1.57-3.2 2.3l-.54-.32c1-.67 2.26-1.54 3.22-2.28l-1.32-.76.5-.37 1.29.74c.78-.62 1.54-1.27 2.26-1.94l-1.27-.74.42-.4 1.27.73c.72-.69 1.42-1.4 2.08-2.13l-1.33-.78.37-.44 1.34.78c.65-.75 1.28-1.52 1.87-2.32l-1.41-.82.33-.45 1.42.81c.57-.79 1.12-1.61 1.65-2.47l-1.44-.92.28-.47 1.46.83c.5-.84 1-1.72 1.41-2.62l-1.42-.83.25-.5 1.42.82c.44-.94.9-2 1.29-3l.49.29c-.4 1-.83 2-1.29 3l1.06.62-.28.49-1-.59c-.44.9-.91 1.77-1.41 2.62l.9.52-.28.49-.91-.53c-.52.86-1.07 1.69-1.65 2.48l.92.54-.34.45-.91-.53c-.59.8-1.22 1.56-1.87 2.32l.91.53-.37.44M273.44 442.46l-3.27-1.89v-1.38l-.56-.32-.01 1.37-4.09-2.36v-1.38l-.57-.32v1.37l-4.08-2.36v-1.37l-.57-.33v1.38l-4.09-2.36v-1.38l-.57-.33v1.38l-4.09-2.36v-1.37l-.56-.33v1.37l-4.09-2.36v-1.37l-.57-.33v1.37l-4.09-2.36v-1.37l-.57-.33v1.38l-4.08-2.36v-1.38l-.57-.32v1.37l-4.09-2.36v-1.38l-.57-.32v1.37l-4.09-2.36v-1.37l-.56-.33v1.37l-4.09-2.36v-1.37l-.57-.33v1.38l-4.09-2.36v-1.38l-.56-.32-.01 3.32.57.32v-1.29l4.09 2.36v1.29l.57.33v-1.29l4.09 2.36V418l.56.33v-1.29l4.09 2.36v1.29l.57.33v-1.29l4.09 2.35v1.3l.57.33v-1.3l4.08 2.36v1.3l.57.32v-1.29l4.09 2.36v1.29l.57.33v-1.29l4.09 2.36v1.29l.56.33v-1.29l4.09 2.35v1.29l.57.33v-1.29l4.09 2.36v1.29l.57.33v-1.29l4.08 2.36v1.29l.57.33v-1.29l4.09 2.36.01 1.29.56.33v-1.29l3.28 1.89-.01-.66zM277.1 490.98l-24.91-14.38-.01.01-16.65-9.61-.02.02-16.94-9.72-.4 1.02 24.94 14.39.01-.02 16.66 9.62.01-.02 16.95 9.78.36-1.09zM278.31 486.5l-24.91-14.38-.02.01-16.65-9.61-.01.02-17-9.82-.35 1.12 24.94 14.39.01-.02 16.66 9.62.01-.02 17.05 9.84.27-1.15z"/><g opacity=".5"><path d="M945.07 744.53a40 40 0 01-7.05 5.69l3.44 2a40.76 40.76 0 007.2-5.89 40 40 0 005.24-6.75l-3.42-2a39.48 39.48 0 01-5.41 6.95z" transform="translate(-732.28 -266.42)" fill="url(#h)"/><path d="M953.07 747.22a38.54 38.54 0 01-8.22 6.94l3.44 2a39.74 39.74 0 0014.15-15.74l-3.39-2a38.61 38.61 0 01-5.98 8.8z" transform="translate(-732.28 -266.42)" fill="url(#i)"/><path d="M963.32 753.14l-3.42-2a39.12 39.12 0 01-8.22 6.94l3.44 2a41.32 41.32 0 008.2-6.94z" transform="translate(-732.28 -266.42)" fill="url(#j)"/><path d="M970.15 757.08c.8-.9 1.54-1.81 2.23-2.73l-3.41-2a38.14 38.14 0 01-10.46 9.7l3.44 2a41 41 0 008.2-6.97z" transform="translate(-732.28 -266.42)" fill="url(#k)"/><path d="M973 759.69a40.36 40.36 0 01-7.64 6.31l3.45 2a39.38 39.38 0 0013.29-14.19l-3.41-2a41.18 41.18 0 01-5.69 7.88z" transform="translate(-732.28 -266.42)" fill="url(#l)"/><path d="M978.6 764.77a36.18 36.18 0 01-6.42 5.18l3.45 2a36.12 36.12 0 0011.17-11.35l-3.4-2a34.16 34.16 0 01-4.8 6.17z" transform="translate(-732.28 -266.42)" fill="url(#m)"/><path d="M990.6 768.89l-3.42-2a38.71 38.71 0 01-8.23 6.94l3.45 2a41 41 0 008.2-6.94z" transform="translate(-732.28 -266.42)" fill="url(#n)"/><path d="M995.18 775.24l-3.44-2a34.75 34.75 0 01-5.89 4.58l3.45 2a26.77 26.77 0 005.88-4.58z" transform="translate(-732.28 -266.42)" fill="url(#o)"/></g><g opacity=".5"><path d="M981.81 666.77a21.11 21.11 0 011.89-3l-24.18-14a22.74 22.74 0 00-1.61 3.2z" transform="translate(-732.28 -266.42)" fill="url(#p)"/><path d="M1011.54 687.92a33.36 33.36 0 00-1 3.44l-54.61-31.52a32.86 32.86 0 01.83-3.52z" transform="translate(-732.28 -266.42)" fill="url(#q)"/><path d="M992.85 685.63v3.84l-37.73-21.81s.13-3.58.17-3.58z" transform="translate(-732.28 -266.42)" fill="url(#r)"/><path fill="url(#s)" d="M239.92 414.55v3.62l-17.07-9.86v-3.62l17.07 9.86z"/></g><path d="M915.51 777.62c5.66 3.26 14.45 3.48 19.64.48s4.81-8.07-.85-11.33-14.45-3.48-19.64-.49-4.81 8.08.85 11.34zm2.08-9.65c3.71-2.14 10-2 14 .35s4.31 6 .6 8.1-10 2-14-.35-4.31-5.96-.6-8.07z" transform="translate(-732.28 -266.42)" opacity=".5" fill="url(#t)"/><path fill="#a5a4a4" opacity=".4" d="M250.13 460.47l-5.47-3.17-.04 1.32 5.5 3.15.01-1.3zM250.13 453.53l-3.57-2.07-.02 1.32 3.58 2.05.01-1.3zM250.13 446.21l-5.47-3.17-.04 1.32 5.5 3.16.01-1.31z"/><ellipse cx="963.32" cy="706.55" rx="6.79" ry="12.01" transform="rotate(-6.95 -1596.61865647 6602.7068705)" fill="#43a8d8"/><path d="M231.04 440.13l-1.52 11.16c-1.91-1.2-3.39-3.67-4.2-6z" fill="#a4e9fd"/><g opacity=".75"><ellipse cx="963.32" cy="706.53" rx="6.79" ry="12.01" transform="rotate(-6.95 -1596.61865647 6602.7068705)" fill="url(#u)"/><path d="M963.32 706.53l-1.53 11.15c-1.9-1.19-3.39-3.67-4.19-6z" transform="translate(-732.28 -266.42)" fill="url(#v)"/></g><g opacity=".75"><ellipse cx="1002.74" cy="729.74" rx="6.79" ry="12.01" transform="rotate(-6.95 -1557.2032586 6625.92626374)" fill="#43a8d8"/><path d="M277.2 462.5a20.31 20.31 0 00-1.37-5.27l-5.37 6.09L269 451.4c-3.69.45-6.08 6.2-5.29 12.74s4.5 11.55 8.2 11.1 6.09-6.2 5.29-12.74z" fill="#a4e9fd"/></g><g opacity=".75"><ellipse cx="1002.74" cy="729.74" rx="6.79" ry="12.01" transform="rotate(-6.95 -1557.2032586 6625.92626374)" fill="url(#w)"/><path d="M1009.48 728.92a20.31 20.31 0 00-1.37-5.27l-5.37 6.09-1.46-11.92c-3.69.45-6.08 6.2-5.29 12.74s4.5 11.55 8.2 11.1 6.09-6.2 5.29-12.74z" transform="translate(-732.28 -266.42)" fill="url(#x)"/></g><path fill="#a5a4a4" opacity=".4" d="M250.13 438.44l-3.57-2.06-.02 1.32 3.58 2.05.01-1.31z"/><path fill="#1c2f43" d="M174.38 265.93l-103.92-60v-75.06l103.92 60v75.06z"/><path fill="#214159" d="M168.34 268.94l-103.92-60v-75.05l103.92 60v75.05z"/><path fill="#3886ae" d="M155.47 203.56l-77.95-45v-2.89l77.95 45v2.89z"/><path fill="#eef7fb" d="M153.3 204.31l-77.94-45v-2.88l77.94 45v2.88z"/><path fill="#98d0ea" d="M81.81 192.81l-4.33-2.5v-5.77l4.33 2.5v5.77z"/><path fill="#eef7fb" d="M79.64 193.57l-4.33-2.5v-5.78l4.33 2.5v5.78z"/><path fill="#98d0ea" d="M81.81 203.74l-4.33-2.5v-5.77l4.33 2.5v5.77z"/><path fill="#eef7fb" d="M79.64 204.5l-4.33-2.5v-5.78l4.33 2.5v5.78z"/><path fill="#3886ae" d="M104.78 192.62l-17.33-10v-2.89l17.33 10v2.89z"/><path fill="#eef7fb" d="M102.61 193.37l-17.32-10v-2.88l17.32 10v2.88z"/><path fill="#3886ae" d="M104.78 203.1l-17.33-10v-2.89l17.33 10v2.89z"/><path fill="#eef7fb" d="M102.61 203.85l-17.32-10v-2.88l17.32 10v2.88z"/><path fill="#3886ae" d="M104.78 213.59l-17.33-10v-2.89l17.33 10v2.89z"/><path fill="#eef7fb" d="M102.61 214.34l-17.32-10v-2.89l17.32 10v2.89z"/><path fill="#98d0ea" d="M133.44 211.8l-4.33-2.5v-5.78l4.33 2.5v5.78z"/><path fill="#eef7fb" d="M131.28 212.55l-4.33-2.5v-5.77l4.33 2.5v5.77z"/><path fill="#98d0ea" d="M133.44 233.66l-4.33-2.5v-5.77l4.33 2.5v5.77z"/><path fill="#eef7fb" d="M131.28 234.41l-4.33-2.5v-5.77l4.33 2.5v5.77z"/><path fill="#3886ae" d="M156.41 222.53l-17.32-10v-2.88l17.32 10v2.88z"/><path fill="#eef7fb" d="M154.25 223.29l-17.32-10v-2.89l17.32 10v2.89z"/><path fill="#3886ae" d="M156.41 233.01l-17.32-10v-2.88l17.32 10v2.88z"/><path fill="#eef7fb" d="M154.25 233.77l-17.32-10v-2.89l17.32 10v2.89z"/><path fill="#3886ae" d="M156.41 243.5l-17.32-10v-2.88l17.32 10v2.88z"/><path fill="#eef7fb" d="M154.25 244.25l-17.32-10v-2.88l17.32 10v2.88z"/><path fill="#98d0ea" d="M81.81 181.88l-4.33-2.5v-5.77l4.33 2.5v5.77z"/><path fill="#65b8df" d="M79.38 182.34l-4.13-2.38v-5.5l4.13 2.38v5.5z"/><path fill="none" d="M77.31 178.4l2.33-.66"/><path d="M80.92 176.79l-.22.17-3 2.23-1.28-2.23-.41.4 1.72 3 .21-.15 3.16-2.39.23-.17-.45-.86z" fill="#fff"/><path fill="#98d0ea" d="M133.44 222.73l-4.33-2.5v-5.78l4.33 2.5v5.78z"/><path fill="#65b8df" d="M131.28 223.48l-4.33-2.5v-5.77l4.33 2.5v5.77z"/><path d="M132.56 217.64l-.23.17-3 2.23c-.18-.3-1.13-2-1.28-2.23l-.42.4c.32.56 1.4 2.44 1.73 3l.2-.15 3.17-2.4.23-.16-.45-.86z" fill="#fff"/><path fill="#1c2f43" d="M78.61 309.11L4.32 266.22v-75.06l74.29 42.9v75.05z"/><path fill="#214159" d="M74.29 313.12L0 270.23v-75.06l74.29 42.89v75.06z"/><path fill="#3886ae" d="M64.79 278.33l-34.64-20v-2.89l34.64 20v2.89zM64.79 288.81l-34.64-20v-2.88l34.64 20v2.88z"/><ellipse cx="747.3" cy="505.25" rx="1.88" ry="3.32" transform="rotate(-23.05 -272.08168923 2167.67220323)" fill="#98d0ea"/><ellipse cx="745.13" cy="506" rx="1.88" ry="3.32" transform="rotate(-23.05 -274.25384939 2168.42969092)" fill="#eef7fb"/><ellipse cx="747.3" cy="516.18" rx="1.88" ry="3.32" transform="rotate(-23.05 -272.08836095 2178.60219752)" fill="#98d0ea"/><ellipse cx="745.13" cy="516.94" rx="1.88" ry="3.32" transform="rotate(-23.05 -274.2360001 2179.3646852)" fill="#eef7fb"/><ellipse cx="747.3" cy="527.11" rx="1.88" ry="3.32" transform="rotate(-23.05 -272.07051165 2189.5371918)" fill="#98d0ea"/><ellipse cx="745.13" cy="527.86" rx="1.88" ry="3.32" transform="rotate(-23.05 -274.24267181 2190.2946795)" fill="#eef7fb"/><path fill="#3886ae" d="M64.79 267.85l-34.64-20v-2.89l34.64 20v2.89z"/><path fill="#eef7fb" d="M62.63 268.6l-34.64-20v-2.89l34.64 20v2.89zM62.63 279.08l-34.64-20v-2.89l34.64 20v2.89zM62.63 289.57l-34.65-20v-2.89l34.65 20v2.89z"/><path d="M13.82 251.07c-.2 2-2.05.07-1.93-1.11.2-1.98 2.04-.07 1.93 1.11z" fill="#214159"/><path fill="#3886ae" d="M64.82 249.38l-51.96-30v-2.89l51.96 30v2.89z"/><path fill="#eef7fb" d="M62.65 250.13l-51.96-30v-2.88l51.96 30v2.88z"/><path fill="#1c2f43" d="M193.42 376.41l-90.6-52.31v-75.06l90.6 52.31v75.06z"/><path fill="#214159" d="M188.15 379.87l-90.6-52.31V252.5l90.6 52.31v75.06z"/><path fill="#3886ae" d="M163.85 306.78l-51.96-30v-2.88l51.96 30v2.88z"/><path fill="#eef7fb" d="M161.69 307.54l-51.96-30v-2.89l51.96 30v2.89z"/><path fill="#1c2f43" d="M312.27 345.69l-114.88-66.32v-75.06l114.88 66.33v75.05z"/><path fill="#214159" d="M305.6 348.34l-114.88-66.33v-75.05l114.88 66.33v75.05z"/><path fill="#3886ae" d="M258.21 263.39l-51.96-30v-2.89l51.96 30v2.89z"/><path fill="#eef7fb" d="M256.05 264.14l-51.96-30v-2.89l51.96 30v2.89z"/><ellipse cx="992.65" cy="549.15" rx="1.88" ry="3.32" transform="rotate(-23.05 -26.70142488 2211.5771597)" fill="#98d0ea"/><ellipse cx="992.65" cy="560.08" rx="1.88" ry="3.32" transform="rotate(-23.05 -26.7080966 2222.507154)" fill="#98d0ea"/><ellipse cx="992.65" cy="571.01" rx="1.88" ry="3.32" transform="rotate(-23.05 -26.71476832 2233.43714828)" fill="#98d0ea"/><ellipse cx="990.49" cy="549.9" rx="1.88" ry="3.32" transform="rotate(-23.05 -28.87358504 2212.3346474)" fill="#eef7fb"/><ellipse cx="990.49" cy="560.84" rx="1.88" ry="3.32" transform="rotate(-23.05 -28.88025676 2223.26464168)" fill="#eef7fb"/><ellipse cx="990.49" cy="571.77" rx="1.88" ry="3.32" transform="rotate(-23.05 -28.88692848 2234.19463597)" fill="#eef7fb"/><path fill="#3886ae" d="M223.57 261.62l-17.32-10v-2.88l17.32 10v2.88zM223.57 272.11l-17.32-10v-2.89l17.32 10v2.89zM223.57 282.59l-17.32-10v-2.89l17.32 10v2.89z"/><path fill="#eef7fb" d="M221.41 262.38l-17.32-10v-2.89l17.32 10v2.89zM221.41 272.86l-17.32-10v-2.89l17.32 10v2.89zM221.41 283.35l-17.32-10v-2.89l17.32 10v2.89z"/><path fill="#98d0ea" d="M250.14 302.63l-.87-.5v-27.64l.87.5v27.64z"/><path fill="#eef7fb" d="M249.7 303.39l-.86-.5v-27.64l.86.5v27.64z"/><ellipse cx="1010.1" cy="559.13" rx="1.88" ry="3.32" transform="rotate(-23.05 -9.27141168 2221.54193439)" fill="#98d0ea"/><ellipse cx="1010.1" cy="570.06" rx="1.88" ry="3.32" transform="rotate(-23.05 -9.25356239 2232.47692868)" fill="#98d0ea"/><ellipse cx="1010.1" cy="580.99" rx="1.88" ry="3.32" transform="rotate(-23.05 -9.2602341 2243.40692297)" fill="#98d0ea"/><ellipse cx="1007.94" cy="559.88" rx="1.88" ry="3.32" transform="rotate(-23.05 -11.41905083 2222.30442208)" fill="#eef7fb"/><ellipse cx="1007.94" cy="570.81" rx="1.88" ry="3.32" transform="rotate(-23.05 -11.42572255 2233.23441637)" fill="#eef7fb"/><ellipse cx="1007.94" cy="581.74" rx="1.88" ry="3.32" transform="rotate(-23.05 -11.43239427 2244.16441066)" fill="#eef7fb"/><path fill="#98d0ea" d="M267.59 312.6l-.87-.5v-27.63l.87.5v27.63z"/><path fill="#eef7fb" d="M267.15 313.37l-.86-.5v-27.64l.86.5v27.64z"/><ellipse cx="1027.55" cy="569.1" rx="1.88" ry="3.32" transform="rotate(-23.05 8.17812253 2231.5362301)" fill="#98d0ea"/><ellipse cx="1027.55" cy="580.04" rx="1.88" ry="3.32" transform="rotate(-23.05 8.19597183 2242.47122438)" fill="#98d0ea"/><ellipse cx="1027.55" cy="590.97" rx="1.88" ry="3.32" transform="rotate(-23.05 8.1893001 2253.40121867)" fill="#98d0ea"/><ellipse cx="1025.39" cy="569.86" rx="1.88" ry="3.32" transform="rotate(-23.05 6.03548339 2232.27419677)" fill="#eef7fb"/><ellipse cx="1025.39" cy="580.79" rx="1.88" ry="3.32" transform="rotate(-23.05 6.02881166 2243.20419106)" fill="#eef7fb"/><ellipse cx="1025.39" cy="591.72" rx="1.88" ry="3.32" transform="rotate(-23.05 6.02213994 2254.13418535)" fill="#eef7fb"/><path fill="#98d0ea" d="M285.04 322.58l-.87-.5v-27.64l.87.5v27.64z"/><path fill="#eef7fb" d="M284.6 323.35l-.86-.5v-27.64l.86.5v27.64z"/><ellipse cx="975.2" cy="539.18" rx="1.88" ry="3.32" transform="rotate(-23.05 -44.1559591 2201.60738501)" fill="#98d0ea"/><ellipse cx="975.2" cy="550.11" rx="1.88" ry="3.32" transform="rotate(-23.05 -44.16263081 2212.5373793)" fill="#98d0ea"/><ellipse cx="975.2" cy="561.04" rx="1.88" ry="3.32" transform="rotate(-23.05 -44.16930254 2223.4673736)" fill="#98d0ea"/><ellipse cx="973.04" cy="539.93" rx="1.88" ry="3.32" transform="rotate(-23.05 -46.32311925 2202.34035169)" fill="#eef7fb"/><ellipse cx="973.04" cy="550.86" rx="1.88" ry="3.32" transform="rotate(-23.05 -46.33479097 2213.294867)" fill="#eef7fb"/><ellipse cx="973.04" cy="561.79" rx="1.88" ry="3.32" transform="rotate(-23.05 -46.31694168 2224.22986128)" fill="#eef7fb"/><path fill="#98d0ea" d="M232.69 292.65l-.87-.5v-27.63l.87.5v27.63z"/><path fill="#eef7fb" d="M232.26 293.42l-.87-.5v-27.64l.87.5v27.64z"/><path d="M259.17 284.04c-.2 2-2.05.07-1.93-1.11.2-1.99 2.05-.08 1.93 1.11zM276.62 304.95c-.2 2-2 .07-1.93-1.11.2-1.98 2.03-.08 1.93 1.11zM294.07 325.86c-.2 2-2 .07-1.93-1.12.2-1.98 2.05-.07 1.93 1.12z" fill="#214159"/><path fill="#3886ae" d="M129.17 305.07l-17.32-10v-2.88l17.32 10v2.88z"/><path fill="#eef7fb" d="M127 305.83l-17.32-10v-2.89l17.32 10v2.89z"/><path fill="#3886ae" d="M129.17 315.65l-17.32-10v-2.89l17.32 10v2.89z"/><path fill="#eef7fb" d="M127 316.4l-17.32-10v-2.88l17.32 10v2.88z"/><path fill="#3886ae" d="M129.17 326.58l-17.32-10v-2.89l17.32 10v2.89z"/><path fill="#eef7fb" d="M127 327.33l-17.32-10v-2.88l17.32 10v2.88z"/><path fill="#3886ae" d="M143.02 328.91v5.78l34.64 20v-5.78l-34.64-20z"/><path fill="#eef7fb" d="M140.85 329.69v5.77l34.65 20v-5.77l-34.65-20z"/><path fill="#3886ae" d="M143.02 310.81v5.77l34.64 20v-5.77l-34.64-20z"/><path fill="#eef7fb" d="M140.85 310.81v5.77l34.65 20v-5.77l-34.65-20z"/></g></svg>