<svg xmlns="http://www.w3.org/2000/svg" xmlns:xlink="http://www.w3.org/1999/xlink" viewBox="0 0 469.53 546.3"><defs><linearGradient id="a" x1="1138.16" y1="948.8" x2="1453.16" y2="948.8" gradientTransform="translate(2207.03 1423.41) rotate(180)" gradientUnits="userSpaceOnUse"><stop offset="0" stop-color="#43a8d8" stop-opacity="0.1"/><stop offset="1" stop-color="#a4e9fd"/></linearGradient><linearGradient id="b" x1="1126.12" y1="32.25" x2="1126.12" y2="-224.28" gradientTransform="translate(-214.75 570.62)" gradientUnits="userSpaceOnUse"><stop offset="0" stop-color="#43a8d8"/><stop offset="1" stop-color="#a4e9fd"/></linearGradient><linearGradient id="c" x1="1295.66" y1="839.18" x2="1295.66" y2="1077.05" gradientTransform="translate(2207.03 1423.41) rotate(180)" xlink:href="#b"/><linearGradient id="d" x1="115.24" y1="1718.05" x2="430.24" y2="1718.05" gradientTransform="translate(638.64 -1081.86)" xlink:href="#a"/><linearGradient id="e" x1="2149.05" y1="-737" x2="2149.05" y2="-993.53" gradientTransform="translate(3060.42 -229.07) rotate(180)" xlink:href="#b"/><linearGradient id="f" x1="272.74" y1="1608.43" x2="272.74" y2="1846.3" gradientTransform="translate(638.64 -1081.86)" xlink:href="#b"/><radialGradient id="g" cx="948.31" cy="789.52" r="11.35" gradientUnits="userSpaceOnUse"><stop offset="0" stop-color="#43a8d8" stop-opacity="0.5"/><stop offset="1" stop-color="#a4e9fd"/></radialGradient><radialGradient id="h" cx="939.35" cy="744.9" r="7.63" xlink:href="#g"/><radialGradient id="i" cx="947.04" cy="747.27" r="8.84" xlink:href="#g"/><radialGradient id="j" cx="950.89" cy="755.63" r="5.19" xlink:href="#g"/><radialGradient id="k" cx="958.83" cy="758.19" r="6.41" xlink:href="#g"/><radialGradient id="l" cx="967.11" cy="759.89" r="8.23" xlink:href="#g"/><radialGradient id="m" cx="972.88" cy="765.26" r="7" xlink:href="#g"/><radialGradient id="n" cx="978.17" cy="771.38" r="5.19" xlink:href="#g"/><radialGradient id="o" cx="983.91" cy="776.55" r="4.03" xlink:href="#g"/><linearGradient id="p" x1="951.3" y1="658.27" x2="977.09" y2="658.27" xlink:href="#g"/><linearGradient id="q" x1="949.28" y1="673.84" x2="1004.93" y2="673.84" xlink:href="#g"/><linearGradient id="r" x1="948.5" y1="676.77" x2="986.25" y2="676.77" xlink:href="#g"/><linearGradient id="s" x1="222.85" y1="411.43" x2="239.92" y2="411.43" xlink:href="#g"/><radialGradient id="t" cx="918.3" cy="772.19" r="11.35" xlink:href="#g"/><linearGradient id="u" x1="949.81" y1="706.53" x2="963.61" y2="706.53" gradientTransform="translate(92.51 -110.56) rotate(6.95)" xlink:href="#a"/><linearGradient id="v" x1="950.99" y1="712.1" x2="956.71" y2="712.1" gradientTransform="matrix(1, 0, 0, 1, 0, 0)" xlink:href="#a"/><linearGradient id="w" x1="989.23" y1="729.74" x2="1003.02" y2="729.74" gradientTransform="translate(95.6 -115.16) rotate(6.95)" xlink:href="#a"/><linearGradient id="x" x1="989.23" y1="729.75" x2="1003.02" y2="729.75" gradientTransform="matrix(1, 0, 0, 1, 0, 0)" xlink:href="#a"/></defs><g style="isolation:isolate"><circle cx="262.03" cy="207.5" r="207.5" style="fill:#161e2e"/><polygon points="373.7 467.54 58.7 285.67 58.7 49.42 373.7 231.29 373.7 467.54" style="fill:#43a8d8"/><polygon points="363.54 477.7 48.54 295.84 48.54 59.59 363.54 241.45 363.54 477.7" style="fill:#63bee4"/><polygon points="353.37 487.87 38.37 306.01 38.37 69.76 353.37 251.62 353.37 487.87" style="fill:#84d3f1"/><polygon points="343.2 498.04 28.2 316.17 28.2 79.92 343.2 261.79 343.2 498.04" style="fill:#a4e9fd"/><path d="M1068.87,602.87l-10.5-15.39c-10.5-15.4-31.5-46.19-52.5-58.31s-42-5.58-63-14.59-42-33.49-63-58.16-42-49-63-55-42,7-52.5,13.24L753.87,421V346.34l10.5,6.07,52.5,30.31,63,36.37,63,36.37,63,36.38,52.5,30.31,10.5,6.06Z" transform="translate(-725.67 -266.42)" style="opacity:0.7000000000000001;fill:url(#a)"/><path d="M1068.87,602.87l-17.5-16.31c-17.5-16.43-52.5-48.89-87.5-80.09s-70-60.63-105-73.05-70-7.66-87.5-5.43l-17.5,2.35v-84l17.5,10.11L858.87,407l105,60.63,87.5,50.51,17.5,10.11Z" transform="translate(-725.67 -266.42)" style="opacity:0.7000000000000001;fill:url(#b)"/><path d="M1068.87,584.23l-17.5-19.44c-17.5-19.44-52.5-58.31-87.5-80.06s-70-26.33-105-40.41-70-37.21-87.5-49l-17.5-11.65V346.36l17.5,10.11L858.87,407l105,60.63,87.5,50.51,17.5,10.11Z" transform="translate(-725.67 -266.42)" style="opacity:0.7000000000000001;fill:url(#c)"/><path d="M753.87,507.93l10.5,15.39c10.5,15.4,31.5,46.19,52.5,58.31s42,5.58,63,14.59,42,33.49,63,58.16,42,49,63,55,42-7,52.5-13.24l10.5-6.39v74.67l-10.5-6.06-52.5-30.31-63-36.38-63-36.37-63-36.37-52.5-30.31-10.5-6.07Z" transform="translate(-725.67 -266.42)" style="opacity:0.7000000000000001;fill:url(#d)"/><path d="M753.87,507.93l17.5,16.31c17.5,16.44,52.5,48.89,87.5,80.1s70,60.62,105,73,70,7.66,87.5,5.43l17.5-2.35v84l-17.5-10.11-87.5-50.51-105-60.63-87.5-50.51-17.5-10.11Z" transform="translate(-725.67 -266.42)" style="opacity:0.7000000000000001;fill:url(#e)"/><path d="M753.87,526.57,771.37,546c17.5,19.44,52.5,58.31,87.5,80.06s70,26.33,105,40.41,70,37.21,87.5,49l17.5,11.65v37.33l-17.5-10.11-87.5-50.51-105-60.62-87.5-50.52-17.5-10.11Z" transform="translate(-725.67 -266.42)" style="opacity:0.7000000000000001;fill:url(#f)"/><polygon points="308.98 400.13 227.5 353.09 227.5 364.38 308.98 411.42 308.98 400.13" style="fill:#27526e"/><polygon points="305.72 402.02 305.72 405.78 230.75 362.5 230.75 358.74 305.72 402.02" style="fill:#1c2f43"/><polygon points="308.98 400.13 312.24 398.25 230.75 351.21 227.5 353.09 308.98 400.13" style="fill:#214159"/><polygon points="312.24 398.25 308.98 400.13 308.98 411.42 312.24 409.54 312.24 398.25" style="fill:#1c2f43"/><path d="M1017.07,682.75a39,39,0,0,0-5.24,19.55v47.09a39.12,39.12,0,0,1-19.56,33.86L949.6,807.72v2.19l43.48-25.27a40.83,40.83,0,0,0,20.35-35.25V702.3a37.62,37.62,0,0,1,18-32v-1.87A39,39,0,0,0,1017.07,682.75Z" transform="translate(-725.67 -266.42)" style="fill:#43a8d8"/><polygon points="152.22 501.76 223.94 543.49 223.94 541.3 152.23 499.93 152.22 501.76" style="fill:#3d97c3"/><g style="opacity:0.5;mix-blend-mode:soft-light"><path d="M992.27,788.25a39.12,39.12,0,0,0,19.56-33.86V707.3a39.1,39.1,0,0,1,19.55-33.86L959.68,632a39.15,39.15,0,0,0-19.56,33.88v20.51c0,5.87,0,18.82,0,18.82,0,14-7.77,34.64-19.87,41.63L877.9,771.35l71.7,41.37Z" transform="translate(-725.67 -266.42)" style="fill:#cce7f4"/></g><path d="M992.27,783.25a39.12,39.12,0,0,0,19.56-33.86V702.3a39.1,39.1,0,0,1,19.55-33.86L959.68,627a39.15,39.15,0,0,0-19.56,33.88v20.51c0,5.87,0,18.82,0,18.82,0,14-7.77,34.64-19.87,41.63L877.9,766.35l71.7,41.37Z" transform="translate(-725.67 -266.42)" style="fill:#f5f5f5"/><path d="M944.63,670.61v-3.43c0-2.33,0-2.33.06-3.9V663a37.57,37.57,0,0,1,2.08-10.55,29.64,29.64,0,0,1,5.26-9.19l-.44-.35a29.88,29.88,0,0,0-5.36,9.35A38.64,38.64,0,0,0,944.12,663v.26c-.07,1.59-.07,1.59-.06,3.93l0,3.1Z" transform="translate(-725.67 -266.42)" style="fill:#a5a4a4;opacity:0.4"/><path d="M975.2,666.77a21.11,21.11,0,0,1,1.89-3l-24.17-14a21.73,21.73,0,0,0-1.62,3.2Z" transform="translate(-725.67 -266.42)" style="fill:#43a8d8"/><path d="M1004.93,687.92a33.36,33.36,0,0,0-1,3.44l-54.61-31.52a32.86,32.86,0,0,1,.83-3.52Z" transform="translate(-725.67 -266.42)" style="fill:#a4e9fd"/><path d="M986.24,685.62c0,1.33,0,2.72,0,3.85l-37.73-21.81s.13-3.58.17-3.58Z" transform="translate(-725.67 -266.42)" style="fill:#43a8d8"/><polygon points="239.92 414.55 239.92 418.16 222.85 408.31 222.85 404.69 239.92 414.55" style="fill:#a4e9fd"/><polygon points="254.79 441.1 251.38 439.13 251.38 442.75 251.38 442.75 254.79 444.72 254.79 441.1" style="fill:#43a8d8"/><polygon points="254.79 448.69 251.38 446.72 251.38 450.34 254.79 452.31 254.79 448.69" style="fill:#a4e9fd"/><polygon points="254.79 456.03 251.38 454.06 251.38 457.68 254.79 459.65 254.79 456.03" style="fill:#43a8d8"/><polygon points="254.79 463.15 251.38 461.18 251.38 464.79 254.79 466.76 254.79 463.15" style="fill:#a4e9fd"/><path d="M938.91,795c5.66,3.26,14.45,3.48,19.64.48s4.81-8.07-.85-11.33-14.45-3.49-19.64-.49S933.25,791.68,938.91,795ZM941,785.3c3.71-2.14,10-2,14,.35s4.31,6,.6,8.09-10,2-14-.34S937.28,787.44,941,785.3Z" transform="translate(-725.67 -266.42)" style="fill:#43a8d8"/><path d="M952.43,782.1l-1.19,2.12a17,17,0,0,0-7-.13l-1.6-2.17A23.73,23.73,0,0,1,952.43,782.1Z" transform="translate(-725.67 -266.42)" style="fill:#27debf"/><path d="M952.43,782.1l-1.19,2.12a17,17,0,0,0-7-.13l-1.6-2.17A23.73,23.73,0,0,1,952.43,782.1Z" transform="translate(-725.67 -266.42)" style="fill:#a4e9fd"/><path d="M938.91,795c5.66,3.26,14.45,3.48,19.64.48s4.81-8.07-.85-11.33-14.45-3.49-19.64-.49S933.25,791.68,938.91,795ZM941,785.3c3.71-2.14,10-2,14,.35s4.31,6,.6,8.09-10,2-14-.34S937.28,787.44,941,785.3Z" transform="translate(-725.67 -266.42)" style="opacity:0.5;fill:url(#g)"/><path d="M1013.18,671.92a.57.57,0,0,0,.29-1.06l-58.05-33.49a.56.56,0,0,0-.77.2.57.57,0,0,0,.2.78l58,33.5A.55.55,0,0,0,1013.18,671.92Z" transform="translate(-725.67 -266.42)" style="fill:#a5a4a4;opacity:0.4"/><path d="M1015.68,669.24a.55.55,0,0,0,.49-.28.57.57,0,0,0-.2-.78l-58.05-33.49a.57.57,0,0,0-.57,1l58,33.5A.55.55,0,0,0,1015.68,669.24Z" transform="translate(-725.67 -266.42)" style="fill:#a5a4a4;opacity:0.4"/><path d="M911,768c-3.71,2.14-3.44,5.77.61,8.1h0c4,2.33,10.33,2.49,14,.35s3.44-5.77-.6-8.1h0C921,766,914.69,765.83,911,768Z" transform="translate(-725.67 -266.42)" style="fill:none"/><path d="M927.69,766.77,925,768.32h0c4,2.33,4.31,5.95.6,8.1s-10,2-14-.35l-2.68,1.55h0c5.66,3.26,14.45,3.48,19.64.48S933.35,770,927.69,766.77Z" transform="translate(-725.67 -266.42)" style="fill:#43a8d8"/><path d="M911.58,776.07h0c-4.05-2.33-4.32-6-.61-8.1s10-2,14,.35h0l2.68-1.55h0c-5.65-3.27-14.45-3.48-19.64-.49s-4.81,8.07.85,11.34h0Z" transform="translate(-725.67 -266.42)" style="fill:#a4e9fd"/><polygon points="214.79 500.62 190.34 486.5 189.19 487.16 213.65 501.27 214.79 500.62" style="fill:#a5a4a4;opacity:0.4"/><polygon points="248.64 520.05 224.19 505.93 223.04 506.58 247.51 520.7 248.64 520.05" style="fill:#a5a4a4;opacity:0.4"/><path d="M939.76,743.46" transform="translate(-725.67 -266.42)" style="fill:#27debf"/><path d="M938.46,744.53a40,40,0,0,1-7.05,5.69l3.45,2a41.06,41.06,0,0,0,7.19-5.89,40,40,0,0,0,5.24-6.75l-3.42-2A39.48,39.48,0,0,1,938.46,744.53Z" transform="translate(-725.67 -266.42)" style="fill:#43a8d8"/><path d="M946.47,747.22a38.86,38.86,0,0,1-8.23,6.94l3.44,2a40.12,40.12,0,0,0,8.2-7,38.68,38.68,0,0,0,6-8.78l-3.39-2A38.87,38.87,0,0,1,946.47,747.22Z" transform="translate(-725.67 -266.42)" style="fill:#43a8d8"/><path d="M956.71,753.14l-3.42-2a39.12,39.12,0,0,1-8.22,6.94l3.44,2A41.32,41.32,0,0,0,956.71,753.14Z" transform="translate(-725.67 -266.42)" style="fill:#43a8d8"/><path d="M963.54,757.08c.8-.9,1.54-1.81,2.23-2.73l-3.41-2c-.68.91-1.43,1.83-2.24,2.76a39.12,39.12,0,0,1-8.22,6.94l3.44,2A41,41,0,0,0,963.54,757.08Z" transform="translate(-725.67 -266.42)" style="fill:#43a8d8"/><path d="M966.38,759.69a40.36,40.36,0,0,1-7.64,6.31l3.45,2a39.27,39.27,0,0,0,7.7-6.42,37.54,37.54,0,0,0,5.59-7.77l-3.41-2A41.18,41.18,0,0,1,966.38,759.69Z" transform="translate(-725.67 -266.42)" style="fill:#43a8d8"/><path d="M972,764.77a36.18,36.18,0,0,1-6.42,5.18l3.45,2a35.9,35.9,0,0,0,11.17-11.36l-3.4-2A34.16,34.16,0,0,1,972,764.77Z" transform="translate(-725.67 -266.42)" style="fill:#43a8d8"/><path d="M984,768.89l-3.42-2a31.91,31.91,0,0,1-3.61,3.53,44.3,44.3,0,0,1-4.62,3.41l3.45,2a38.78,38.78,0,0,0,4.33-3.21A42.74,42.74,0,0,0,984,768.89Z" transform="translate(-725.67 -266.42)" style="fill:#43a8d8"/><path d="M988.57,775.24l-3.44-2a34.75,34.75,0,0,1-5.89,4.58l3.45,2A26.77,26.77,0,0,0,988.57,775.24Z" transform="translate(-725.67 -266.42)" style="fill:#43a8d8"/><polygon points="256.99 515.38 225.98 497.47 225.97 497.48 198.85 481.81 198.05 482.28 229.05 500.18 229.05 500.18 256.19 515.84 256.99 515.38" style="fill:#a5a4a4;opacity:0.4"/><polygon points="218.05 514.1 211.41 510.26 215.48 507.91 222.13 511.74 218.05 514.1" style="fill:#fff"/><ellipse cx="940.93" cy="775.52" rx="0.62" ry="0.35" transform="translate(-812.58 -146.89) rotate(-6.95)" style="fill:#a4e9fd"/><polygon points="219.91 512.32 215.81 509.95 216.59 509.5 220.69 511.87 219.91 512.32" style="fill:#a5a4a4;opacity:0.4"/><polygon points="218.46 513.34 212.86 510.11 213.64 509.66 219.24 512.89 218.46 513.34" style="fill:#a5a4a4;opacity:0.4"/><polygon points="188.25 496.88 181.61 493.05 185.69 490.7 192.33 494.53 188.25 496.88" style="fill:#fff"/><ellipse cx="911.13" cy="758.31" rx="0.62" ry="0.35" transform="translate(-810.72 -150.62) rotate(-6.95)" style="fill:#a4e9fd"/><polygon points="190.11 495.11 186.01 492.74 186.8 492.29 190.89 494.66 190.11 495.11" style="fill:#a5a4a4;opacity:0.4"/><polygon points="188.66 496.13 183.06 492.9 183.84 492.45 189.44 495.68 188.66 496.13" style="fill:#a5a4a4;opacity:0.4"/><path d="M936.42,741.38l-.92-.54c-.65.74-1.35,1.45-2.06,2.15l.95.57L934,744l-1-.55q-1.08,1-2.25,2l.94.53-.51.37-.9-.52c-1,.81-2.09,1.57-3.2,2.3l-.54-.32c1-.67,2.26-1.54,3.22-2.28l-1.32-.76.5-.37,1.29.74c.78-.62,1.54-1.27,2.26-1.94l-1.27-.74.42-.4,1.27.73c.73-.69,1.42-1.4,2.08-2.13l-1.33-.78.37-.44,1.34.78c.65-.75,1.28-1.52,1.86-2.31h0l-1.41-.82.33-.45,1.42.81c.57-.79,1.12-1.61,1.65-2.47l-1.45-.85.28-.47,1.46.83c.5-.84,1-1.72,1.41-2.62l-1.42-.83.26-.5,1.41.82c.44-.94.9-2,1.29-3l.49.29c-.4,1-.83,2-1.29,3l1.06.61-.28.5-1-.59c-.44.9-.91,1.77-1.41,2.62l.9.52-.28.49-.91-.53c-.52.86-1.07,1.69-1.65,2.48l.92.54-.34.45-.91-.53,0,.06c-.57.78-1.19,1.52-1.82,2.26l.91.53-.37.44" transform="translate(-725.67 -266.42)" style="fill:#a5a4a4;opacity:0.4"/><polygon points="273.44 442.46 270.17 440.57 270.17 439.19 269.61 438.87 269.6 440.24 265.51 437.88 265.51 436.5 264.94 436.18 264.94 437.55 260.86 435.19 260.86 433.82 260.29 433.49 260.29 434.87 256.2 432.51 256.2 431.13 255.63 430.8 255.63 432.18 251.54 429.82 251.54 428.45 250.98 428.12 250.98 429.49 246.89 427.13 246.89 425.76 246.32 425.43 246.32 426.8 242.23 424.44 242.23 423.07 241.66 422.74 241.66 424.12 237.58 421.76 237.58 420.38 237.01 420.05 237.01 421.43 232.92 419.07 232.92 417.69 232.35 417.37 232.35 418.74 228.26 416.38 228.26 415.01 227.7 414.68 227.7 416.05 223.61 413.69 223.61 412.32 223.04 411.99 223.04 413.37 218.95 411.01 218.95 409.63 218.39 409.31 218.38 412.63 218.95 412.95 218.95 411.66 223.04 414.02 223.04 415.31 223.61 415.64 223.61 414.35 227.7 416.71 227.7 418 228.26 418.33 228.26 417.04 232.35 419.4 232.35 420.69 232.92 421.02 232.92 419.73 237.01 422.08 237.01 423.38 237.58 423.71 237.58 422.41 241.66 424.77 241.66 426.07 242.23 426.39 242.23 425.1 246.32 427.46 246.32 428.75 246.89 429.08 246.89 427.79 250.98 430.15 250.98 431.44 251.54 431.77 251.54 430.48 255.63 432.83 255.63 434.12 256.2 434.45 256.2 433.16 260.29 435.52 260.29 436.81 260.86 437.14 260.86 435.85 264.94 438.21 264.94 439.5 265.51 439.83 265.51 438.54 269.6 440.9 269.61 442.19 270.17 442.52 270.17 441.23 273.45 443.12 273.44 442.46" style="fill:#a5a4a4;opacity:0.4"/><polygon points="277.1 490.98 252.19 476.6 252.18 476.61 235.53 467 235.51 467.02 218.57 457.3 218.17 458.32 243.11 472.71 243.12 472.69 259.78 482.31 259.79 482.29 276.74 492.07 277.1 490.98" style="fill:#a5a4a4;opacity:0.4"/><polygon points="278.31 486.5 253.4 472.11 253.38 472.13 236.73 462.52 236.72 462.54 219.72 452.72 219.37 453.84 244.31 468.23 244.32 468.21 260.98 477.82 260.99 477.81 278.04 487.65 278.31 486.5" style="fill:#a5a4a4;opacity:0.4"/><g style="opacity:0.5"><path d="M938.46,744.53a40,40,0,0,1-7.05,5.69l3.45,2a41.06,41.06,0,0,0,7.19-5.89,40,40,0,0,0,5.24-6.75l-3.42-2A39.48,39.48,0,0,1,938.46,744.53Z" transform="translate(-725.67 -266.42)" style="fill:url(#h)"/><path d="M946.47,747.22a38.86,38.86,0,0,1-8.23,6.94l3.44,2a40.12,40.12,0,0,0,8.2-7,38.68,38.68,0,0,0,6-8.78l-3.39-2A38.87,38.87,0,0,1,946.47,747.22Z" transform="translate(-725.67 -266.42)" style="fill:url(#i)"/><path d="M956.71,753.14l-3.42-2a39.12,39.12,0,0,1-8.22,6.94l3.44,2A41.32,41.32,0,0,0,956.71,753.14Z" transform="translate(-725.67 -266.42)" style="fill:url(#j)"/><path d="M963.54,757.08c.8-.9,1.54-1.81,2.23-2.73l-3.41-2c-.68.91-1.43,1.83-2.24,2.76a39.12,39.12,0,0,1-8.22,6.94l3.44,2A41,41,0,0,0,963.54,757.08Z" transform="translate(-725.67 -266.42)" style="fill:url(#k)"/><path d="M966.38,759.69a40.36,40.36,0,0,1-7.64,6.31l3.45,2a39.27,39.27,0,0,0,7.7-6.42,37.54,37.54,0,0,0,5.59-7.77l-3.41-2A41.18,41.18,0,0,1,966.38,759.69Z" transform="translate(-725.67 -266.42)" style="fill:url(#l)"/><path d="M972,764.77a36.18,36.18,0,0,1-6.42,5.18l3.45,2a35.9,35.9,0,0,0,11.17-11.36l-3.4-2A34.16,34.16,0,0,1,972,764.77Z" transform="translate(-725.67 -266.42)" style="fill:url(#m)"/><path d="M984,768.89l-3.42-2a31.91,31.91,0,0,1-3.61,3.53,44.3,44.3,0,0,1-4.62,3.41l3.45,2a38.78,38.78,0,0,0,4.33-3.21A42.74,42.74,0,0,0,984,768.89Z" transform="translate(-725.67 -266.42)" style="fill:url(#n)"/><path d="M988.57,775.24l-3.44-2a34.75,34.75,0,0,1-5.89,4.58l3.45,2A26.77,26.77,0,0,0,988.57,775.24Z" transform="translate(-725.67 -266.42)" style="fill:url(#o)"/></g><g style="opacity:0.5"><path d="M975.2,666.77a21.11,21.11,0,0,1,1.89-3l-24.17-14a21.73,21.73,0,0,0-1.62,3.2Z" transform="translate(-725.67 -266.42)" style="fill:url(#p)"/><path d="M1004.93,687.92a33.36,33.36,0,0,0-1,3.44l-54.61-31.52a32.86,32.86,0,0,1,.83-3.52Z" transform="translate(-725.67 -266.42)" style="fill:url(#q)"/><path d="M986.24,685.62c0,1.33,0,2.72,0,3.85l-37.73-21.81s.13-3.58.17-3.58Z" transform="translate(-725.67 -266.42)" style="fill:url(#r)"/><polygon points="239.92 414.55 239.92 418.16 222.85 408.31 222.85 404.69 239.92 414.55" style="fill:url(#s)"/></g><path d="M908.9,777.62c5.66,3.26,14.45,3.48,19.64.48s4.81-8.07-.85-11.33-14.45-3.48-19.64-.49S903.24,774.36,908.9,777.62ZM911,768c3.71-2.14,10-2,14,.35s4.31,5.95.6,8.1-10,2-14-.35S907.27,770.11,911,768Z" transform="translate(-725.67 -266.42)" style="opacity:0.5;fill:url(#t)"/><polygon points="250.13 460.47 244.66 457.3 244.62 458.62 250.12 461.77 250.13 460.47" style="fill:#a5a4a4;opacity:0.4"/><polygon points="250.13 453.53 246.56 451.46 246.54 452.78 250.12 454.83 250.13 453.53" style="fill:#a5a4a4;opacity:0.4"/><polygon points="250.13 446.21 244.66 443.04 244.62 444.36 250.12 447.52 250.13 446.21" style="fill:#a5a4a4;opacity:0.4"/><ellipse cx="956.71" cy="706.55" rx="6.79" ry="12.01" transform="translate(-804.12 -145.48) rotate(-6.95)" style="fill:#43a8d8"/><path d="M956.71,706.55l-1.52,11.16a9.19,9.19,0,0,1-2.78-3,15.5,15.5,0,0,1-1.42-3Z" transform="translate(-725.67 -266.42)" style="fill:#a4e9fd"/><g style="opacity:0.75"><ellipse cx="956.71" cy="706.53" rx="6.79" ry="12.01" transform="translate(-804.12 -145.48) rotate(-6.95)" style="fill:url(#u)"/><path d="M956.71,706.53l-1.52,11.15a9.32,9.32,0,0,1-2.79-3,16.1,16.1,0,0,1-1.41-3Z" transform="translate(-725.67 -266.42)" style="fill:url(#v)"/></g><g style="opacity:0.75"><ellipse cx="996.13" cy="729.74" rx="6.79" ry="12.01" transform="translate(-806.64 -140.54) rotate(-6.95)" style="fill:#43a8d8"/><path d="M1002.87,728.92a20.31,20.31,0,0,0-1.37-5.27l-5.37,6.09-1.46-11.92c-3.69.45-6.08,6.2-5.28,12.74s4.49,11.55,8.19,11.1S1003.67,735.45,1002.87,728.92Z" transform="translate(-725.67 -266.42)" style="fill:#a4e9fd"/></g><g style="opacity:0.75"><ellipse cx="996.13" cy="729.74" rx="6.79" ry="12.01" transform="translate(-806.64 -140.54) rotate(-6.95)" style="fill:url(#w)"/><path d="M1002.87,728.92a20.31,20.31,0,0,0-1.37-5.27l-5.37,6.09-1.46-11.92c-3.69.45-6.08,6.2-5.28,12.74s4.49,11.55,8.19,11.1S1003.67,735.45,1002.87,728.92Z" transform="translate(-725.67 -266.42)" style="fill:url(#x)"/></g><polygon points="250.13 438.44 246.56 436.38 246.54 437.7 250.12 439.75 250.13 438.44" style="fill:#a5a4a4;opacity:0.4"/><polygon points="174.38 265.93 70.46 205.93 70.46 130.87 174.38 190.87 174.38 265.93" style="fill:#1c2f43"/><polygon points="168.34 268.94 64.42 208.94 64.42 133.89 168.34 193.89 168.34 268.94" style="fill:#214159"/><polygon points="155.47 203.56 77.52 158.56 77.52 155.67 155.47 200.67 155.47 203.56" style="fill:#3886ae"/><polygon points="153.3 204.31 75.36 159.31 75.36 156.43 153.3 201.43 153.3 204.31" style="fill:#eef7fb"/><polygon points="81.81 192.81 77.48 190.31 77.48 184.54 81.81 187.04 81.81 192.81" style="fill:#98d0ea"/><polygon points="79.64 193.57 75.31 191.07 75.31 185.29 79.64 187.79 79.64 193.57" style="fill:#eef7fb"/><polygon points="81.81 203.74 77.48 201.24 77.48 195.47 81.81 197.97 81.81 203.74" style="fill:#98d0ea"/><polygon points="79.64 204.5 75.31 202 75.31 196.22 79.64 198.72 79.64 204.5" style="fill:#eef7fb"/><polygon points="104.78 192.62 87.45 182.62 87.45 179.73 104.78 189.73 104.78 192.62" style="fill:#3886ae"/><polygon points="102.61 193.37 85.29 183.37 85.29 180.49 102.61 190.49 102.61 193.37" style="fill:#eef7fb"/><polygon points="104.78 203.1 87.45 193.1 87.45 190.21 104.78 200.21 104.78 203.1" style="fill:#3886ae"/><polygon points="102.61 203.85 85.29 193.85 85.29 190.97 102.61 200.97 102.61 203.85" style="fill:#eef7fb"/><polygon points="104.78 213.59 87.45 203.59 87.45 200.7 104.78 210.7 104.78 213.59" style="fill:#3886ae"/><polygon points="102.61 214.34 85.29 204.34 85.29 201.45 102.61 211.45 102.61 214.34" style="fill:#eef7fb"/><polygon points="133.44 211.79 129.11 209.29 129.11 203.52 133.44 206.02 133.44 211.79" style="fill:#98d0ea"/><polygon points="131.28 212.55 126.95 210.05 126.95 204.28 131.28 206.78 131.28 212.55" style="fill:#eef7fb"/><polygon points="133.44 233.66 129.11 231.16 129.11 225.38 133.44 227.88 133.44 233.66" style="fill:#98d0ea"/><polygon points="131.28 234.41 126.95 231.91 126.95 226.14 131.28 228.64 131.28 234.41" style="fill:#eef7fb"/><polygon points="156.41 222.53 139.09 212.53 139.09 209.65 156.41 219.65 156.41 222.53" style="fill:#3886ae"/><polygon points="154.25 223.29 136.93 213.29 136.93 210.4 154.25 220.4 154.25 223.29" style="fill:#eef7fb"/><polygon points="156.41 233.01 139.09 223.01 139.09 220.13 156.41 230.13 156.41 233.01" style="fill:#3886ae"/><polygon points="154.25 233.77 136.93 223.77 136.93 220.88 154.25 230.88 154.25 233.77" style="fill:#eef7fb"/><polygon points="156.41 243.5 139.09 233.5 139.09 230.62 156.41 240.62 156.41 243.5" style="fill:#3886ae"/><polygon points="154.25 244.25 136.93 234.25 136.93 231.37 154.25 241.37 154.25 244.25" style="fill:#eef7fb"/><polygon points="81.81 181.88 77.48 179.38 77.48 173.61 81.81 176.11 81.81 181.88" style="fill:#98d0ea"/><polygon points="79.38 182.34 75.25 179.96 75.25 174.46 79.38 176.84 79.38 182.34" style="fill:#65b8df"/><line x1="77.31" y1="178.4" x2="79.64" y2="177.74" style="fill:none"/><path d="M806.59,443.21l-.22.17-3,2.23-1-1.82-.24-.41-.41.4.23.41,1.27,2.21.22.38.21-.15,3.16-2.39.23-.17-.45-.86Z" transform="translate(-725.67 -266.42)" style="fill:#fff"/><polygon points="133.44 222.73 129.11 220.23 129.11 214.45 133.44 216.95 133.44 222.73" style="fill:#98d0ea"/><polygon points="131.28 223.48 126.95 220.98 126.95 215.21 131.28 217.71 131.28 223.48" style="fill:#65b8df"/><path d="M858.23,484.06l-.23.17-3,2.23-1-1.82-.24-.41-.42.4.24.41,1.27,2.21.22.38.21-.15,3.16-2.4.23-.16-.45-.86Z" transform="translate(-725.67 -266.42)" style="fill:#fff"/><polygon points="78.61 309.11 4.32 266.22 4.32 191.16 78.61 234.05 78.61 309.11" style="fill:#1c2f43"/><polygon points="74.29 313.12 0 270.23 0 195.17 74.29 238.06 74.29 313.12" style="fill:#214159"/><polygon points="64.79 278.32 30.15 258.32 30.15 255.44 64.79 275.44 64.79 278.32" style="fill:#3886ae"/><polygon points="64.79 288.81 30.15 268.81 30.15 265.93 64.79 285.93 64.79 288.81" style="fill:#3886ae"/><ellipse cx="740.69" cy="505.25" rx="1.88" ry="3.32" transform="translate(-864.36 63.94) rotate(-23.05)" style="fill:#98d0ea"/><ellipse cx="738.52" cy="506" rx="1.88" ry="3.32" transform="translate(-864.83 63.15) rotate(-23.05)" style="fill:#eef7fb"/><ellipse cx="740.69" cy="516.18" rx="1.88" ry="3.32" transform="translate(-868.64 64.82) rotate(-23.05)" style="fill:#98d0ea"/><ellipse cx="738.52" cy="516.93" rx="1.88" ry="3.32" transform="translate(-869.11 64.03) rotate(-23.05)" style="fill:#eef7fb"/><ellipse cx="740.69" cy="527.11" rx="1.88" ry="3.32" transform="translate(-872.92 65.69) rotate(-23.05)" style="fill:#98d0ea"/><ellipse cx="738.52" cy="527.86" rx="1.88" ry="3.32" transform="translate(-873.39 64.9) rotate(-23.05)" style="fill:#eef7fb"/><polygon points="64.79 267.85 30.15 247.84 30.15 244.96 64.79 264.96 64.79 267.85" style="fill:#3886ae"/><polygon points="62.63 268.6 27.99 248.6 27.99 245.71 62.63 265.71 62.63 268.6" style="fill:#eef7fb"/><polygon points="62.63 279.08 27.99 259.08 27.99 256.19 62.63 276.19 62.63 279.08" style="fill:#eef7fb"/><polygon points="62.63 289.56 27.98 269.56 27.98 266.68 62.63 286.68 62.63 289.56" style="fill:#eef7fb"/><ellipse cx="738.52" cy="516.93" rx="0.84" ry="1.48" transform="translate(-869.11 64.03) rotate(-23.05)" style="fill:#214159"/><polygon points="64.82 249.38 12.86 219.38 12.86 216.49 64.82 246.49 64.82 249.38" style="fill:#3886ae"/><polygon points="62.65 250.13 10.69 220.13 10.69 217.25 62.65 247.25 62.65 250.13" style="fill:#eef7fb"/><polygon points="193.42 376.4 102.82 324.1 102.82 249.04 193.42 301.35 193.42 376.4" style="fill:#1c2f43"/><polygon points="188.15 379.87 97.55 327.56 97.55 252.5 188.15 304.81 188.15 379.87" style="fill:#214159"/><polygon points="163.85 306.78 111.89 276.78 111.89 273.9 163.85 303.9 163.85 306.78" style="fill:#3886ae"/><polygon points="161.69 307.54 109.73 277.54 109.73 274.65 161.69 304.65 161.69 307.54" style="fill:#eef7fb"/><polygon points="312.27 345.69 197.39 279.37 197.39 204.31 312.27 270.64 312.27 345.69" style="fill:#1c2f43"/><polygon points="305.6 348.34 190.72 282.01 190.72 206.96 305.6 273.29 305.6 348.34" style="fill:#214159"/><polygon points="258.21 263.39 206.25 233.39 206.25 230.5 258.21 260.5 258.21 263.39" style="fill:#3886ae"/><polygon points="256.05 264.14 204.09 234.14 204.09 231.25 256.05 261.25 256.05 264.14" style="fill:#eef7fb"/><ellipse cx="986.04" cy="549.15" rx="1.88" ry="3.32" transform="translate(-861.96 163.52) rotate(-23.05)" style="fill:#98d0ea"/><ellipse cx="986.04" cy="560.08" rx="1.88" ry="3.32" transform="translate(-866.24 164.39) rotate(-23.05)" style="fill:#98d0ea"/><ellipse cx="986.04" cy="571.01" rx="1.88" ry="3.32" transform="translate(-870.52 165.26) rotate(-23.05)" style="fill:#98d0ea"/><ellipse cx="983.88" cy="549.9" rx="1.88" ry="3.32" transform="translate(-862.42 162.73) rotate(-23.05)" style="fill:#eef7fb"/><ellipse cx="983.88" cy="560.84" rx="1.88" ry="3.32" transform="translate(-866.71 163.6) rotate(-23.05)" style="fill:#eef7fb"/><ellipse cx="983.88" cy="571.77" rx="1.88" ry="3.32" transform="translate(-870.99 164.48) rotate(-23.05)" style="fill:#eef7fb"/><polygon points="223.57 261.62 206.25 251.62 206.25 248.74 223.57 258.74 223.57 261.62" style="fill:#3886ae"/><polygon points="223.57 272.1 206.25 262.1 206.25 259.22 223.57 269.22 223.57 272.1" style="fill:#3886ae"/><polygon points="223.57 282.59 206.25 272.59 206.25 269.7 223.57 279.7 223.57 282.59" style="fill:#3886ae"/><polygon points="221.41 262.38 204.09 252.38 204.09 249.49 221.41 259.49 221.41 262.38" style="fill:#eef7fb"/><polygon points="221.41 272.86 204.09 262.86 204.09 259.97 221.41 269.97 221.41 272.86" style="fill:#eef7fb"/><polygon points="221.41 283.34 204.09 273.34 204.09 270.46 221.41 280.46 221.41 283.34" style="fill:#eef7fb"/><polygon points="250.14 302.63 249.27 302.13 249.27 274.49 250.14 274.99 250.14 302.63" style="fill:#98d0ea"/><polygon points="249.7 303.39 248.84 302.89 248.84 275.25 249.7 275.75 249.7 303.39" style="fill:#eef7fb"/><ellipse cx="1003.49" cy="559.13" rx="1.88" ry="3.32" transform="translate(-864.47 171.15) rotate(-23.05)" style="fill:#98d0ea"/><ellipse cx="1003.49" cy="570.06" rx="1.88" ry="3.32" transform="translate(-868.75 172.02) rotate(-23.05)" style="fill:#98d0ea"/><ellipse cx="1003.49" cy="580.99" rx="1.88" ry="3.32" transform="translate(-873.03 172.89) rotate(-23.05)" style="fill:#98d0ea"/><ellipse cx="1001.33" cy="559.88" rx="1.88" ry="3.32" transform="translate(-864.94 170.36) rotate(-23.05)" style="fill:#eef7fb"/><ellipse cx="1001.33" cy="570.81" rx="1.88" ry="3.32" transform="translate(-869.22 171.23) rotate(-23.05)" style="fill:#eef7fb"/><ellipse cx="1001.33" cy="581.74" rx="1.88" ry="3.32" transform="translate(-873.5 172.1) rotate(-23.05)" style="fill:#eef7fb"/><polygon points="267.59 312.6 266.72 312.1 266.72 284.46 267.59 284.96 267.59 312.6" style="fill:#98d0ea"/><polygon points="267.15 313.37 266.29 312.87 266.29 285.23 267.15 285.73 267.15 313.37" style="fill:#eef7fb"/><ellipse cx="1020.94" cy="569.1" rx="1.88" ry="3.32" transform="translate(-866.98 178.78) rotate(-23.05)" style="fill:#98d0ea"/><ellipse cx="1020.94" cy="580.04" rx="1.88" ry="3.32" transform="translate(-871.27 179.65) rotate(-23.05)" style="fill:#98d0ea"/><ellipse cx="1020.94" cy="590.97" rx="1.88" ry="3.32" transform="translate(-875.54 180.52) rotate(-23.05)" style="fill:#98d0ea"/><ellipse cx="1018.78" cy="569.86" rx="1.88" ry="3.32" transform="translate(-867.45 177.99) rotate(-23.05)" style="fill:#eef7fb"/><ellipse cx="1018.78" cy="580.79" rx="1.88" ry="3.32" transform="translate(-871.73 178.86) rotate(-23.05)" style="fill:#eef7fb"/><ellipse cx="1018.78" cy="591.72" rx="1.88" ry="3.32" transform="translate(-876.01 179.73) rotate(-23.05)" style="fill:#eef7fb"/><polygon points="285.04 322.58 284.17 322.08 284.17 294.44 285.04 294.94 285.04 322.58" style="fill:#98d0ea"/><polygon points="284.6 323.35 283.74 322.85 283.74 295.21 284.6 295.71 284.6 323.35" style="fill:#eef7fb"/><ellipse cx="968.6" cy="539.18" rx="1.88" ry="3.32" transform="translate(-859.45 155.89) rotate(-23.05)" style="fill:#98d0ea"/><ellipse cx="968.6" cy="550.11" rx="1.88" ry="3.32" transform="translate(-863.73 156.76) rotate(-23.05)" style="fill:#98d0ea"/><ellipse cx="968.6" cy="561.04" rx="1.88" ry="3.32" transform="translate(-868.01 157.64) rotate(-23.05)" style="fill:#98d0ea"/><ellipse cx="966.43" cy="539.93" rx="1.88" ry="3.32" transform="translate(-859.91 155.1) rotate(-23.05)" style="fill:#eef7fb"/><ellipse cx="966.43" cy="550.86" rx="1.88" ry="3.32" transform="translate(-864.19 155.98) rotate(-23.05)" style="fill:#eef7fb"/><ellipse cx="966.43" cy="561.79" rx="1.88" ry="3.32" transform="translate(-868.47 156.85) rotate(-23.05)" style="fill:#eef7fb"/><polygon points="232.69 292.65 231.82 292.15 231.82 264.51 232.69 265.01 232.69 292.65" style="fill:#98d0ea"/><polygon points="232.26 293.42 231.39 292.92 231.39 265.28 232.26 265.78 232.26 293.42" style="fill:#eef7fb"/><ellipse cx="983.88" cy="549.9" rx="0.84" ry="1.48" transform="translate(-862.42 162.73) rotate(-23.05)" style="fill:#214159"/><ellipse cx="1001.33" cy="570.81" rx="0.84" ry="1.48" transform="translate(-869.22 171.23) rotate(-23.05)" style="fill:#214159"/><ellipse cx="1018.78" cy="591.72" rx="0.84" ry="1.48" transform="translate(-876.01 179.73) rotate(-23.05)" style="fill:#214159"/><polygon points="129.17 305.07 111.85 295.07 111.85 292.19 129.17 302.19 129.17 305.07" style="fill:#3886ae"/><polygon points="127 305.83 109.68 295.83 109.68 292.94 127 302.94 127 305.83" style="fill:#eef7fb"/><polygon points="129.17 315.65 111.85 305.65 111.85 302.76 129.17 312.76 129.17 315.65" style="fill:#3886ae"/><polygon points="127 316.4 109.68 306.4 109.68 303.52 127 313.52 127 316.4" style="fill:#eef7fb"/><polygon points="129.17 326.58 111.85 316.58 111.85 313.69 129.17 323.69 129.17 326.58" style="fill:#3886ae"/><polygon points="127 327.33 109.68 317.33 109.68 314.45 127 324.45 127 327.33" style="fill:#eef7fb"/><polygon points="143.02 328.91 143.02 334.69 177.66 354.69 177.66 348.91 143.02 328.91" style="fill:#3886ae"/><polygon points="140.85 329.69 140.85 335.46 175.5 355.46 175.5 349.69 140.85 329.69" style="fill:#eef7fb"/><polygon points="143.02 310.81 143.02 316.58 177.66 336.58 177.66 330.81 143.02 310.81" style="fill:#3886ae"/><polygon points="140.85 310.81 140.85 316.58 175.5 336.58 175.5 330.81 140.85 310.81" style="fill:#eef7fb"/></g></svg>