<svg xmlns="http://www.w3.org/2000/svg" viewBox="0 0 27.98 22.84">
  <g>
    <path d="M45.52,58l-6,6V77.51a1,1,0,0,0,1,1H51.85a1,1,0,0,0,1-1V64l-6-6A1,1,0,0,0,45.52,58Z" transform="translate(-25.89 -56.69)" style="fill: none;stroke: #224159;stroke-width: 2px"/>
    <circle cx="20.32" cy="8.28" r="1.59" style="fill: none;stroke: #44a8d6;stroke-linejoin: round;stroke-width: 1.25px"/>
    <rect x="17.48" y="11.98" width="1.5" height="7" rx="0.75" style="fill: #45a8d7"/>
    <rect x="21.67" y="11.98" width="1.5" height="7" rx="0.75" style="fill: #45a8d7"/>
  </g>
  <g id="pricetag">
    <path d="M45.23,57.69H36.79l-9.61,9.62a1,1,0,0,0,0,1.39l8,8a1,1,0,0,0,1.39,0l9.62-9.62V58.67A1,1,0,0,0,45.23,57.69Z" transform="translate(-25.89 -56.69)" style="fill: #f9f8fc;stroke: #224159;stroke-width: 2px"/>
    <circle cx="14.89" cy="6.43" r="1.59" style="fill: none;stroke: #44a8d6;stroke-linejoin: round;stroke-width: 1.25px"/>
    <rect x="33.46" y="63.23" width="1.5" height="7" rx="0.75" transform="translate(31.32 -61.33) rotate(45)" style="fill: #45a8d7"/>
    <rect x="36.42" y="66.19" width="1.5" height="7" rx="0.75" transform="translate(34.28 -62.56) rotate(45)" style="fill: #45a8d7"/>
  </g>
</svg>
