<svg xmlns="http://www.w3.org/2000/svg" viewBox="0 0 497.45 59.55">
    <g>
      <path
        d="M786,545.46h4.3c0,4.18,3.4,6.66,8.06,6.66,4.21,0,7.55-2.24,7.55-5.8,0-3.93-4-4.85-8.35-5.87-5.18-1.24-10.92-2.62-10.92-9.32,0-5.8,4.48-9.35,11.43-9.35s11.23,3.87,11.23,10H805.1c0-3.74-3-5.92-7.14-5.92s-7.14,1.95-7.14,5.13c0,3.69,3.86,4.62,8.17,5.63,5.28,1.29,11.23,2.71,11.23,9.7,0,6.34-5.16,10-11.85,10C791,556.24,786,552.08,786,545.46Z"
        transform="translate(-697.55 -509.02)"
        style="fill: #fff;"
      />
      <path
        d="M816.09,544.88v-15h4.09v14.33c0,5.09,2.83,8.21,7.41,8.21s7.41-3.16,7.41-8.21V529.89h4.08v15c0,7-4.48,11.5-11.49,11.5S816.09,551.83,816.09,544.88Z"
        transform="translate(-697.55 -509.02)"
        style="fill: #fff;"
      />
      <path
        d="M861,529.76v3.86h-2.64c-4.75,0-7.42,3.07-7.42,8.11v14.08h-4.08V529.89h2.9l.66,4a9.44,9.44,0,0,1,8.29-4.08Z"
        transform="translate(-697.55 -509.02)"
        style="fill: #fff;"
      />
      <path
        d="M887.87,529.89l-10.93,25.92h-3.71L862,529.89h4.26l8.8,20.62,8.62-20.62Z"
        transform="translate(-697.55 -509.02)"
        style="fill: #fff;"
      />
      <path
        d="M916.24,544.43h-22.1a8.81,8.81,0,0,0,9.12,8,9,9,0,0,0,8.07-4.48h4.3a13,13,0,0,1-12.37,8.47c-7.52,0-13.22-5.81-13.22-13.53s5.7-13.53,13.22-13.53c7.87,0,13.06,6.07,13.06,13.64C916.32,543.45,916.28,543.94,916.24,544.43Zm-22-3.77h18a9.15,9.15,0,0,0-18,0Z"
        transform="translate(-697.55 -509.02)"
        style="fill: #fff;"
      />
      <path
        d="M945,529.89l-12.35,27c-2.8,6.14-5.26,8.18-10.15,8.18H920v-3.69h2.1c3.46,0,4.69-1.06,6.77-5.39l.94-1.94-11.54-24.16h4.44l9.22,19.62,8.68-19.62Z"
        transform="translate(-697.55 -509.02)"
        style="fill: #fff;"
      />
      <path
        d="M981.55,539.13c-.21,10.11-7.11,17.24-16.81,17.24-9.88,0-17-7.33-17-17.35s7.19-17.32,17-17.32c8.09,0,14.88,5.07,16.37,12.23h-4.35c-1.44-4.86-6.24-8.11-11.93-8.11-7.43,0-12.75,5.48-12.75,13.2s5.18,13.23,12.75,13.23c6.18,0,11-3.65,12.22-9.12H963.53v-4Z"
        transform="translate(-697.55 -509.02)"
        style="fill: #fff;"
      />
      <path
        d="M1012,544.43h-22.1a8.81,8.81,0,0,0,9.12,8,9,9,0,0,0,8.07-4.48h4.31A13,13,0,0,1,999,556.38c-7.52,0-13.22-5.81-13.22-13.53s5.7-13.53,13.22-13.53c7.87,0,13.07,6.07,13.07,13.64C1012,543.45,1012,543.94,1012,544.43Zm-22-3.77h18a9.16,9.16,0,0,0-18,0Z"
        transform="translate(-697.55 -509.02)"
        style="fill: #fff;"
      />
      <path
        d="M1041.12,540.29v15.52H1037V541.25c0-5.26-2.47-8.2-7-8.2s-7.85,3.76-7.85,8.62v14.14h-4.08V529.89h2.9l.8,4.06a10.89,10.89,0,0,1,9.28-4.63C1037.27,529.32,1041.12,534,1041.12,540.29Z"
        transform="translate(-697.55 -509.02)"
        style="fill: #fff;"
      />
      <path
        d="M1073.1,544.43H1051a8.81,8.81,0,0,0,9.12,8,9,9,0,0,0,8.07-4.48h4.31a13,13,0,0,1-12.38,8.47c-7.52,0-13.22-5.81-13.22-13.53s5.7-13.53,13.22-13.53c7.87,0,13.07,6.07,13.07,13.64C1073.19,543.45,1073.14,543.94,1073.1,544.43Zm-22-3.77h18a9.16,9.16,0,0,0-18,0Z"
        transform="translate(-697.55 -509.02)"
        style="fill: #fff;"
      />
      <path
        d="M1093.43,529.76v3.86h-2.65c-4.74,0-7.41,3.07-7.41,8.11v14.08h-4.08V529.89h2.89l.67,4a9.42,9.42,0,0,1,8.28-4.08Z"
        transform="translate(-697.55 -509.02)"
        style="fill: #fff;"
      />
      <path
        d="M1122.34,529.89v25.92H1119l-.43-3.92a13.52,13.52,0,1,1,.06-18l.51-4Zm-4.16,13a9.54,9.54,0,1,0-9.51,9.58A9.26,9.26,0,0,0,1118.18,542.85Z"
        transform="translate(-697.55 -509.02)"
        style="fill: #fff;"
      />
      <path
        d="M1144.12,552v3.77h-3.36c-5.57,0-9-3.44-9-9.06V533.58h-4.57v-.73l8-8.45h.64v5.49H1144v3.69h-8.13v13c0,3.49,1.92,5.42,5.45,5.42Z"
        transform="translate(-697.55 -509.02)"
        style="fill: #fff;"
      />
      <path
        d="M1147.17,542.85c0-7.81,5.89-13.53,13.74-13.53s13.75,5.76,13.75,13.53-5.89,13.53-13.75,13.53S1147.17,550.62,1147.17,542.85Zm13.75,9.58a9.58,9.58,0,1,0-9.58-9.58,9.26,9.26,0,0,0,9.58,9.58Z"
        transform="translate(-697.55 -509.02)"
        style="fill: #fff;"
      />
      <path
        d="M1195,529.76v3.86h-2.64c-4.75,0-7.42,3.07-7.42,8.11v14.08h-4.08V529.89h2.9l.66,4a9.45,9.45,0,0,1,8.29-4.08Z"
        transform="translate(-697.55 -509.02)"
        style="fill: #fff;"
      />
    </g>
    <g class="sg-logo">
      <polygon
        points="29.77 42.77 59.54 25.99 59.54 0 29.77 16.56 29.77 42.77"
        style="fill: #43a8d8;"
      />
      <polygon
        points="0 0 0 25.99 29.77 42.77 29.77 16.56 0 0"
        style="fill: #a4e9fd;"
      />
      <polygon
        points="59.54 59.55 59.54 33.56 29.77 16.78 29.77 42.99 59.54 59.55"
        style="fill: #a4e9fd;"
      />
      <polygon
        points="29.77 16.78 0 33.56 0 59.55 29.77 42.99 29.77 16.78"
        style="fill: #43a8d8;"
      />
    </g>
</svg>
