<svg xmlns="http://www.w3.org/2000/svg" viewBox="0 0 599.99 248.64"><path d="M751.43,557.53h0c1.5-2.2,3-4.4,4.5-6.7a110.78,110.78,0,0,0-22.2-20.7c-17.3-12.5-32.8-27.3-25.8-55,8.9-36.9,46.1-51,46.5-51.7,0,0-46.1,7.4-71.2,41-29.2,38.8-21.1,80.9,10.3,109.3,63.9,58.4,7,82-9.6,75.7,3.3,5.5,21.7,17,45.8,10.3,16.6-4.8,30.6-18.5,37.6-35.8C743.33,609.23,737.13,581.53,751.43,557.53Z" transform="translate(-665.14 -413.13)" style="fill:#798ea8"/><path d="M755.93,550.83h0c-1.5,2.2-3,4.4-4.5,6.7-14.4,24-8.1,51.7,15.9,66.5C776.23,602.53,774.73,575.23,755.93,550.83Z" transform="translate(-665.14 -413.13)" style="fill:#5c6b7c"/><path d="M787.33,480.73h0a32.1,32.1,0,1,1-32.1-32.5A32.14,32.14,0,0,1,787.33,480.73Z" transform="translate(-665.14 -413.13)" style="fill:#5c6b7c"/><path d="M806.83,431.93h0c0-10.3,12.9-17.4,14.8-18.8-5.6.7-35.8,5.2-35.8,29.9,0,18.5,19.9,24.4,19.9,44.7,0,25.8-24.3,35.1-49.8,63.1,18.8,24.4,20.3,51.7,11.4,73.1a108.71,108.71,0,0,0,13.3,5.9c6.3,1.8,27,5.5,39.8,4.1-12.8-5.1-28.7-15.9-28.7-30.3,0-29.2,51.3-63.2,51.3-100.1C843,468.53,806.83,451.53,806.83,431.93Z" transform="translate(-665.14 -413.13)" style="fill:#798ea8"/><path d="M898.33,492.93h0a5,5,0,0,0,2.6.7,31.7,31.7,0,0,0,3.3,1.1h4.4a9.35,9.35,0,0,0,3.3-.4c.7-.4,1.9-.7,2.6-1.1A9.56,9.56,0,0,0,916,491a2.78,2.78,0,0,0,.7-2.2,8.82,8.82,0,0,0-.7-3,15,15,0,0,0-2.2-2.6c-1.1-.7-2.2-1.5-3.3-2.2a30.14,30.14,0,0,1-3.7-2.2,19.52,19.52,0,0,1-4-2.6,17.93,17.93,0,0,1-3.3-3,15.68,15.68,0,0,1-3-3.7,10.92,10.92,0,0,1-1.1-4.8,9.93,9.93,0,0,1,4.4-8.5,14.23,14.23,0,0,1,4.4-2.6,15.89,15.89,0,0,1,5.9-1.1,39.37,39.37,0,0,1,12.9,2.6l-2.2,5.5c-1.1-.4-2.2-.7-4.1-1.5a21.28,21.28,0,0,0-5.6-.7,11.47,11.47,0,0,0-5.5,1.5,4,4,0,0,0-2.2,3.7,4.85,4.85,0,0,0,1.1,3,9.32,9.32,0,0,0,1.9,2.2,23.58,23.58,0,0,0,3.3,2.2,30.14,30.14,0,0,0,3.7,2.2,20.86,20.86,0,0,1,3.7,2.6,13.57,13.57,0,0,1,4.1,3,18.07,18.07,0,0,1,3,4.1,8.24,8.24,0,0,1,1.5,4.4,10.85,10.85,0,0,1-1.8,5.5,12,12,0,0,1-3.7,4.1,21.89,21.89,0,0,1-5.6,3,30.59,30.59,0,0,1-5.9.7,23.31,23.31,0,0,1-5.6-.4,14.38,14.38,0,0,1-4-.7c-1.1-.4-2.2-.7-3-1.1a10.63,10.63,0,0,1-1.9-1.1l2.2-5.2C896.93,492.53,897.63,492.53,898.33,492.93Zm29.6-23.7,12.2,31h4.4l12.9-31h-6.6l-7.7,20.3-7.8-20.3h-7.4Zm37.3,16.3h21.4a26.22,26.22,0,0,0-1.1-7.8,20.72,20.72,0,0,0-3-5.2,25.91,25.91,0,0,0-4.8-3,14.38,14.38,0,0,0-5.6-.7,18,18,0,0,0-5.9,1.1,13.79,13.79,0,0,0-4.8,3.3,14.37,14.37,0,0,0-3.3,5.2,18.1,18.1,0,0,0-1.1,6.3,17.13,17.13,0,0,0,1.1,6.7,11.8,11.8,0,0,0,3.3,4.8,13.79,13.79,0,0,0,4.8,3.3,21.74,21.74,0,0,0,6.6,1.1c1.9,0,3.7-.4,5.2-.4,1.1-.4,2.6-.4,3.3-.7,1.1-.4,1.8-.4,2.6-.7a2.57,2.57,0,0,1,1.5-.7l-1.5-4.1a19.57,19.57,0,0,1-3,1.1,24.26,24.26,0,0,1-5.9.4c-3.3,0-5.5-.7-7.4-2.6h0A12.58,12.58,0,0,1,965.23,485.53Zm13.2-4.5h-12.9a7,7,0,0,1,1.9-5.2,5.43,5.43,0,0,1,4.8-2.2,5.94,5.94,0,0,1,4.4,1.8h0A8.15,8.15,0,0,1,978.43,481Zm21,18.9v-21.1c.4,0,.7-.4,1.1-1.1a3.86,3.86,0,0,1,1.5-1.1,8,8,0,0,1,1.8-1.5,4.31,4.31,0,0,1,2.2-.4,5.1,5.1,0,0,1,2.6.4,2.36,2.36,0,0,1,1.5.7l3-5.2a5.91,5.91,0,0,0-2.2-1.5,7.58,7.58,0,0,0-3.3-.4,9.13,9.13,0,0,0-3,.4c-.7.7-1.5,1.1-2.2,1.8a4.45,4.45,0,0,0-1.8,1.8l-1.5,1.5-.4-5.2h-7v30.7h7.7Zm17.4-45.1a5,5,0,0,0-1.1,3,4.43,4.43,0,0,0,1.1,3,5,5,0,0,0,3,1.1,4.62,4.62,0,0,0,3-1.1,3.33,3.33,0,0,0,1.5-3c0-1.2-.4-1.8-1.5-3a4.43,4.43,0,0,0-3-1.1h0A5,5,0,0,0,1016.83,454.83Zm-.7,45.1h7.7v-30.7h-7.7Zm28.4-11.5a21.27,21.27,0,0,0,4.4-.7,15.4,15.4,0,0,0,4.1-1.8,6.17,6.17,0,0,0,2.6-3.3,7.84,7.84,0,0,0,1.1-4.1,8.13,8.13,0,0,0-.7-3.3c-.7-.7-1.1-1.5-1.5-1.8h7v-4.1h-12.2a4.31,4.31,0,0,1-2.2-.4H1043c-2.2,0-3.7,0-5.2.7a15,15,0,0,0-3.7,2.2,6.67,6.67,0,0,0-2.2,3.3,5.66,5.66,0,0,0-.7,3.3,8.18,8.18,0,0,0,1.1,4.4l2.6,2.6c-.7,0-1.1.4-1.8.7-.7.7-1.5,1.1-1.9,1.9s-1.1,1.5-1.1,2.2a5.94,5.94,0,0,0-.7,2.6c0,1.1.3,1.8.3,3,.4.7.7,1.1,1.1,1.8a11.41,11.41,0,0,0,1.1,1.1c.7.4,1.1.7,1.5.7-.7.4-1.1.7-1.8,1.1a15.25,15.25,0,0,0-1.9,1.8,9.56,9.56,0,0,0-1.5,2.2,10.1,10.1,0,0,0-.7,3,7.24,7.24,0,0,0,1.5,4.4,16.88,16.88,0,0,0,4.1,2.6,37.48,37.48,0,0,0,5.5,1.5,33.35,33.35,0,0,0,6.3.4,34.49,34.49,0,0,0,5.5-.7,21.08,21.08,0,0,0,5.2-2.6,16.24,16.24,0,0,0,3.7-3.7,8,8,0,0,0,1.9-4.4,10.82,10.82,0,0,0-.4-4.8,8,8,0,0,0-2.2-3.3,10.64,10.64,0,0,0-3.7-1.8,17.92,17.92,0,0,0-4.8-.7h-10.8a12.75,12.75,0,0,0-1.8-.4l-1.1-1.1a2.13,2.13,0,0,1-.7-1.5,2.36,2.36,0,0,1,.7-1.5,4.84,4.84,0,0,1,1.5-1.1,14.92,14.92,0,0,1,1.9-.4h4.7Zm-5.6,12.2h10.3a6.47,6.47,0,0,1,3.7,1.1,3.28,3.28,0,0,1,1.1,3.7,5.28,5.28,0,0,1-.7,2.6,14.59,14.59,0,0,1-2.6,1.8,20.86,20.86,0,0,1-3,1.5c-1.1,0-2.6.4-3.7.4a9.35,9.35,0,0,1-3.3-.4,10.09,10.09,0,0,1-3.3-.7c-1.1-.4-1.9-.7-2.2-1.5a2.31,2.31,0,0,1-1.1-2.2,4.31,4.31,0,0,1,.4-2.2,4.79,4.79,0,0,1,1.5-1.8,4.24,4.24,0,0,1,1.5-1.5h0A2.54,2.54,0,0,1,1038.93,500.63Zm7.4-26.9a7,7,0,0,1,1.8,1.1c.4.7.7,1.1,1.1,1.8,0,.7.3,1.1.3,1.8a5.26,5.26,0,0,1-1.5,3.7,5.91,5.91,0,0,1-4.4,1.5,4.87,4.87,0,0,1-4-1.5c-1.1-.7-1.5-2.2-1.5-3.7a3.81,3.81,0,0,1,.3-1.8c.4-.7.7-1.1,1.1-1.8a7,7,0,0,1,1.8-1.1,4.31,4.31,0,0,1,2.2-.4h0A5.53,5.53,0,0,1,1046.33,473.73Zm24.7,11.8h21.4a26.22,26.22,0,0,0-1.1-7.8,15.27,15.27,0,0,0-3.3-5.2,22.75,22.75,0,0,0-4.4-3,15.41,15.41,0,0,0-5.6-.7,15.89,15.89,0,0,0-5.9,1.1,10.37,10.37,0,0,0-4.8,3.3,14.37,14.37,0,0,0-3.3,5.2,18.1,18.1,0,0,0-1.1,6.3,19.18,19.18,0,0,0,1.1,6.7,13.56,13.56,0,0,0,3,4.8,14.37,14.37,0,0,0,5.2,3.3,18.21,18.21,0,0,0,6.6,1.1c1.9,0,3.3-.4,4.8-.4,1.5-.4,2.6-.4,3.7-.7a18.66,18.66,0,0,1,2.2-.7,3.39,3.39,0,0,1,1.8-.7l-1.8-4.1a24.55,24.55,0,0,1-3,1.1,21.25,21.25,0,0,1-5.6.4c-3.3,0-5.9-.7-7.4-2.6h0A10.88,10.88,0,0,1,1071,485.53Zm13.4-4.5h-13.3a13.51,13.51,0,0,1,1.9-5.2,5.92,5.92,0,0,1,4.8-2.2,6.34,6.34,0,0,1,4.5,1.8h0A12.85,12.85,0,0,1,1084.43,481Zm12.1,12.6-1.8,4.4c.3.4.7.4,1.5.7a18.66,18.66,0,0,0,2.2.7c1.1.4,2.2.4,3.3.7,1.5,0,3,.4,4.4.4a21.27,21.27,0,0,0,4.4-.7,21,21,0,0,0,3.7-1.8,8.46,8.46,0,0,0,2.6-3,6.47,6.47,0,0,0,1.1-3.7,5.8,5.8,0,0,0-1.1-3.7,8.21,8.21,0,0,0-2.2-2.6,10.17,10.17,0,0,0-2.6-1.8,27.05,27.05,0,0,0-2.6-1.5c-.7-.4-1.5-.7-2.2-1.1-1.1-.7-1.5-1.1-2.2-1.5a6.47,6.47,0,0,1-1.5-1.1,3.39,3.39,0,0,1-.7-1.8,2.26,2.26,0,0,1,1.5-1.8,4.25,4.25,0,0,1,3-1.1,16.17,16.17,0,0,1,4.4.7,13,13,0,0,1,3.3,1.5l1.9-4.4c-.7-.7-2.2-1.1-3.7-1.5-1.5-.7-3.7-.7-6.6-.7a16,16,0,0,0-4.4.4c-1.1.7-2.2,1.5-3.3,2.2a6.09,6.09,0,0,0-1.8,2.6,6.33,6.33,0,0,0-.7,3.7,5.66,5.66,0,0,0,.7,3.3,6.77,6.77,0,0,0,1.8,2.6,10.17,10.17,0,0,0,2.6,1.8,27.05,27.05,0,0,0,2.6,1.5c.7.4,1.5.7,2.2,1.1a5.15,5.15,0,0,1,2.2,1.5,10.63,10.63,0,0,1,1.9,1.1,3.81,3.81,0,0,1,.3,1.8,2,2,0,0,1-1.5,2.2c-.7.7-1.8.7-3,.7h-3a26.35,26.35,0,0,0-3-.7,6.26,6.26,0,0,1-2.2-.7h0C1097.23,494,1096.93,493.63,1096.53,493.63Zm-161.6,73.1L912,542l20.3-21.4h-8.9l-18.8,20.7v-20.7h-8.5v46.2h8.5v-21.4l20.3,22.2h0Zm8.5-29.9a13.3,13.3,0,0,0-5.5,3.3c-1.5,1.1-2.6,3-3.7,4.8a18.6,18.6,0,0,0-1.1,6.6,19.18,19.18,0,0,0,1.1,6.7,27.26,27.26,0,0,0,3.7,5.2,21.9,21.9,0,0,0,5.5,3,19,19,0,0,0,6.6,1.1,19.86,19.86,0,0,0,6.6-1.1,17.55,17.55,0,0,0,5.6-3,24.44,24.44,0,0,0,3.7-5.2,18.78,18.78,0,0,0,1.1-6.7,16.3,16.3,0,0,0-1.1-6.6c-1.1-1.8-2.2-3.7-3.7-4.8a13,13,0,0,0-5.6-3.3,19.86,19.86,0,0,0-6.6-1.1h0A18.21,18.21,0,0,0,943.43,536.83Zm9.9,4.4a10.63,10.63,0,0,1,3,2.6,8.77,8.77,0,0,1,1.8,3.3,17.5,17.5,0,0,1,.7,4.4,16.19,16.19,0,0,1-.7,4.4,8.77,8.77,0,0,1-1.8,3.3,10.84,10.84,0,0,1-3,2.6,9.76,9.76,0,0,1-3.3.7,12.82,12.82,0,0,1-3.7-.7,22.14,22.14,0,0,1-3-2.6,10,10,0,0,1-1.5-3.3,9.91,9.91,0,0,1-.7-4.4c0-3.3.7-5.9,2.2-7.8a7.48,7.48,0,0,1,6.6-3.3h0A18.73,18.73,0,0,1,953.33,541.23Zm64.2,3.7a9.93,9.93,0,0,0-2.2-6.6c-1.5-1.8-3.7-2.6-7-2.6a10.51,10.51,0,0,0-3.7.4c-1.1.4-2.2.7-3,1.1a7.18,7.18,0,0,0-2.2,1.5,6.47,6.47,0,0,0-1.5,1.1,6.47,6.47,0,0,0-3.3-3,9.74,9.74,0,0,0-4.8-1.1,7.35,7.35,0,0,0-3.3.4c-1.1.4-2.2.7-3,1.1s-1.5.7-2.2,1.1l-1.5,1.5-.4-3.3h-7v30.3h7.4v-22.5c.3,0,.7-.4,1.5-.7.3-.4,1.1-.7,1.5-1.1a13.36,13.36,0,0,1,1.8-.7c.7,0,1.5-.4,1.9-.4,1.8,0,3.3.7,3.7,1.5a7.84,7.84,0,0,1,1.1,4.1v19.9h7.4v-22.5c.4-.4.7-.4,1.5-.7a4.84,4.84,0,0,1,1.5-1.1c.4-.4,1.1-.4,1.9-.7.7,0,1.1-.4,1.8-.4a4.59,4.59,0,0,1,3.7,1.5,7.84,7.84,0,0,1,1.1,4.1V567h7.4v-22.1Zm52.4,0a9.93,9.93,0,0,0-2.2-6.6c-1.5-1.8-4.1-2.6-7-2.6a10.51,10.51,0,0,0-3.7.4c-1.1.4-2.2.7-3,1.1-1.1.4-1.8.7-2.2,1.5a7,7,0,0,0-1.8,1.1,7.85,7.85,0,0,0-3-3,10.32,10.32,0,0,0-5.2-1.1,9.35,9.35,0,0,0-3.3.4,22.63,22.63,0,0,0-2.6,1.1,5.44,5.44,0,0,0-2.2,1.1l-1.5,1.5-.4-3.3h-7.4v30.3h7.8v-22.5c.3,0,.7-.4,1.1-.7.7-.4,1.1-.7,1.9-1.1.3-.4,1.1-.4,1.8-.7a14.92,14.92,0,0,1,1.9-.4,4.74,4.74,0,0,1,3.7,1.5,7.74,7.74,0,0,1,.7,4.1v19.9h7.7v-22.5c.4-.4.7-.4,1.1-.7.7-.4,1.1-.7,1.8-1.1.4-.4,1.1-.4,1.5-.7.7,0,1.5-.4,2.2-.4a4.59,4.59,0,0,1,3.7,1.5,7.74,7.74,0,0,1,.7,4.1V567h7.8v-22.1Zm6.3-8.5v21.8c0,3,.7,5.2,2.2,6.6,1.5,1.8,4.1,2.6,7,2.6a13,13,0,0,0,4.1-.4c1.1-.4,2.2-.7,3.3-1.1.7-.4,1.5-.7,2.2-1.1a2.1,2.1,0,0,1,1.5-1.1v3h7.4v-30.3h-7.7v22.5s-.7.4-1.1.7a7,7,0,0,1-1.8,1.1c-.7,0-1.1.4-2.2.7-.7,0-1.5.4-2.2.4-1.9,0-3.3-.7-3.7-1.5a7.84,7.84,0,0,1-1.1-4.1v-19.9h-7.9Zm63.1,30.3v-21.8c0-2.6-.7-5.2-2.2-6.6-1.8-1.8-4-2.6-7.4-2.6a12,12,0,0,0-4,.4c-1.1.4-2.2.7-3.3,1.1-.7.4-1.8.7-2.2,1.5-.7.4-1.1.7-1.5.7l-.3-3h-7v30.3h7.4v-22.2a4.84,4.84,0,0,1,1.5-1.1,2.74,2.74,0,0,1,1.9-.7c.7-.4,1.5-.7,2.2-1.1.7,0,1.8-.4,2.6-.4a4.85,4.85,0,0,1,4.1,1.8,5.63,5.63,0,0,1,1.1,3.7v19.9h7.1Zm13.3-14.4H1174a19.57,19.57,0,0,0-1.1-7.4,13.46,13.46,0,0,0-3-5.2,10,10,0,0,0-4.8-3,15.4,15.4,0,0,0-5.5-1.1,15.89,15.89,0,0,0-5.9,1.1,12.93,12.93,0,0,0-4.8,3.3,14.37,14.37,0,0,0-3.3,5.2,21.74,21.74,0,0,0-1.1,6.6,22.89,22.89,0,0,0,1.1,6.7,13.79,13.79,0,0,0,3.3,4.8,14.33,14.33,0,0,0,4.8,3,19.86,19.86,0,0,0,6.6,1.1,21.54,21.54,0,0,0,5.2-.4c1.1,0,2.2-.4,3.3-.4a16.91,16.91,0,0,0,2.6-1.1,4,4,0,0,0,1.5-.7l-1.5-4.1a17.89,17.89,0,0,1-3.3,1.1,19.65,19.65,0,0,1-5.5.4c-3.3,0-5.9-.7-7.4-2.6h0A10.54,10.54,0,0,1,1152.63,552.33Zm13.3-4.4H1153a8.18,8.18,0,0,1,1.8-5.2,5.43,5.43,0,0,1,4.8-2.2,6.1,6.1,0,0,1,4.4,1.8h0A9.43,9.43,0,0,1,1165.93,547.93Zm21,18.8V546c0-.4.3-.7,1.1-1.1a3.12,3.12,0,0,1,1.5-1.5c.7-.4,1.1-.7,1.9-1.1a4.73,4.73,0,0,1,2.2-.7c1.1,0,1.8.4,2.6.4.7.4,1.1.4,1.5.7l3-5.2a5.44,5.44,0,0,0-2.2-1.1,6.75,6.75,0,0,0-3.3-.7,10.88,10.88,0,0,0-3,.7c-.7.4-1.5,1.1-2.2,1.5-.7.7-1.5,1.5-1.9,1.8l-1.5,1.5-.3-4.8h-7v30.3h7.6Zm-283,36.9a15.27,15.27,0,0,0-5.2,3.3,13,13,0,0,0-3.7,5.2,18.2,18.2,0,0,0-1.5,6.3A16.06,16.06,0,0,0,895,625a13,13,0,0,0,3.7,5.2,14.37,14.37,0,0,0,5.2,3.3,22.33,22.33,0,0,0,7,1.1,21.74,21.74,0,0,0,6.6-1.1,20.52,20.52,0,0,0,5.6-3.3,12.23,12.23,0,0,0,3.3-5.2,12.64,12.64,0,0,0,1.5-6.6,11.53,11.53,0,0,0-1.5-6.3,12.23,12.23,0,0,0-3.3-5.2,20.52,20.52,0,0,0-5.6-3.3,21.74,21.74,0,0,0-6.6-1.1h0A22.33,22.33,0,0,0,903.93,603.63Zm10.3,4.8a5,5,0,0,1,2.6,2.2,7.31,7.31,0,0,1,1.9,3.7,7.74,7.74,0,0,1,.7,4.1c0,1.8,0,3.3-.7,4.4a7.31,7.31,0,0,1-1.9,3.7,8,8,0,0,1-2.6,2.2,5.66,5.66,0,0,1-3.3.7,6.33,6.33,0,0,1-3.7-.7,11.08,11.08,0,0,1-3-2.2,12.89,12.89,0,0,1-1.9-3.7,18.51,18.51,0,0,1-.3-4.4,13.7,13.7,0,0,1,2.2-7.8c1.5-2.2,3.7-3,6.6-3h0A6.81,6.81,0,0,1,914.23,608.43Zm18.8,16.7a15.85,15.85,0,0,0,3.3,5.2,19.76,19.76,0,0,0,5.2,3,13.36,13.36,0,0,0,6.6,1.5,38.18,38.18,0,0,0,7.4-.7,12.47,12.47,0,0,0,3.7-1.5l-1.5-4.4c-1.1.4-2.2.7-3.3,1.1-1.1,0-3,.4-5.2.4a11.77,11.77,0,0,1-3-.7,6.67,6.67,0,0,1-3.3-2.2,23.58,23.58,0,0,1-2.2-3.3,10.79,10.79,0,0,1-.7-4.8c0-1.5,0-3.3.7-4.4a30.14,30.14,0,0,1,2.2-3.7c1.1-.7,1.8-1.5,3.3-1.8a8.19,8.19,0,0,1,3-.7,18.42,18.42,0,0,1,5.2.4c1.1.4,2.2.7,3,1.1l1.9-4.8c-.7,0-1.1-.4-1.9-.4-.3-.4-1.1-.4-1.8-.7-1.1,0-1.9-.4-3.3-.4-1.1,0-2.2-.4-3.7-.4a17.54,17.54,0,0,0-6.2,1.1,13.67,13.67,0,0,0-5.6,3.3,18.66,18.66,0,0,0-3.7,5.2,18.2,18.2,0,0,0-1.5,6.3h0A12.4,12.4,0,0,0,933,625.13Zm59.1,8.8v-21.8c0-3-.7-5.2-2.6-7a9.41,9.41,0,0,0-7-2.6,21.27,21.27,0,0,0-4.4.7,8.82,8.82,0,0,0-3,.7,15.45,15.45,0,0,0-2.2,1.5,6.47,6.47,0,0,0-1.5,1.1v-21.7l-7.7,1.1v48h7.7v-22.5c.4-.4.7-.4,1.1-.7a7,7,0,0,0,1.8-1.1,5,5,0,0,1,2.6-.7,4.31,4.31,0,0,1,2.2-.4c1.8,0,3.3.4,4,1.5a6.47,6.47,0,0,1,1.1,3.7V634h7.9Zm60.5,0-14.8-22.5a14.66,14.66,0,0,0,6-4.1,6.07,6.07,0,0,0,2.2-3.3,10.57,10.57,0,0,0,1.1-4.4,10.22,10.22,0,0,0-1.1-4.4,9.64,9.64,0,0,0-3.3-3.7,14.85,14.85,0,0,0-5.2-3,42.28,42.28,0,0,0-7.4-.7h-13.3V634h8.1v-21.1h4.8l13.3,21.8h0Zm-27.7-26.2v-14.8h4.4a21.27,21.27,0,0,1,4.4.7,12,12,0,0,1,3,1.5,9.56,9.56,0,0,1,1.5,2.2,10.1,10.1,0,0,1,.7,3,9.19,9.19,0,0,1-.7,2.6,4.69,4.69,0,0,1-1.9,2.2,5.49,5.49,0,0,1-3,1.8,12.39,12.39,0,0,1-4,.7h-4.4Zm35.8,11.8h21.4a26.22,26.22,0,0,0-1.1-7.8,13.26,13.26,0,0,0-3.3-5.2,9.89,9.89,0,0,0-4.4-3,15.4,15.4,0,0,0-5.5-1.1,10.82,10.82,0,0,0-5.9,1.5,10.37,10.37,0,0,0-4.8,3.3,12.23,12.23,0,0,0-3.3,5.2,18.1,18.1,0,0,0-1.1,6.3,19.18,19.18,0,0,0,1.1,6.7,13.56,13.56,0,0,0,3,4.8,14.37,14.37,0,0,0,5.2,3.3,18.21,18.21,0,0,0,6.6,1.1c1.8,0,3.3-.4,4.8-.4,1.5-.4,2.6-.4,3.7-.7a6.71,6.71,0,0,1,2.2-.7,5,5,0,0,1,1.9-.7l-1.9-4.1a27.46,27.46,0,0,0-3,.7,17.39,17.39,0,0,1-5.5.7,10.45,10.45,0,0,1-7.4-2.6h0C1061.43,625.13,1060.73,622.53,1060.73,619.53Zm13.3-4.8h-13.3a14.1,14.1,0,0,1,2.2-5.2,6.1,6.1,0,0,1,4.4-1.8c1.9,0,3.7.4,4.8,1.8h0C1073.23,610.73,1073.63,612.53,1074,614.73Zm26.9,7.4a16,16,0,0,0,4.4-.4,15.4,15.4,0,0,0,4.1-1.8c1.1-1.1,2.2-1.8,3-3.3a7.74,7.74,0,0,0,.7-4.1c0-1.5,0-2.6-.7-3.3a3.54,3.54,0,0,0-1.5-1.8h7v-4.1h-12.2c-.7,0-1.5-.4-2.2-.4-1.1,0-2.2-.4-4.1-.4a12.74,12.74,0,0,0-5.2,1.1,7.81,7.81,0,0,0-3.7,2.2,5.52,5.52,0,0,0-2.2,3,21.32,21.32,0,0,0-.7,3.7,5.91,5.91,0,0,0,1.5,4.4,5,5,0,0,0,2.6,2.2c-.7.4-1.5.7-2.2,1.1-.7.7-1.1,1.1-1.9,1.8a22.56,22.56,0,0,1-1.1,2.2,6.32,6.32,0,0,0-.7,2.6,5.28,5.28,0,0,0,.7,2.6,4.73,4.73,0,0,0,.7,2.2,3.86,3.86,0,0,0,1.5,1.1,1.51,1.51,0,0,0,1.1.7,7,7,0,0,1-1.8,1.1c-.4.4-1.1,1.1-1.9,1.8a7.4,7.4,0,0,0-1.5,2.2,8.65,8.65,0,0,0-.3,3c0,1.8.3,3.3,1.5,4.4a12.05,12.05,0,0,0,4,2.6,24.5,24.5,0,0,0,5.2,1.5c2.2,0,4.1.4,6.3.4a15.4,15.4,0,0,0,5.5-1.1,13.42,13.42,0,0,0,5.2-2.2c1.5-1.1,3-2.2,3.7-3.7a8,8,0,0,0,1.9-4.8,6.66,6.66,0,0,0-.4-4.4,7.71,7.71,0,0,0-5.9-5.1,10.79,10.79,0,0,0-4.8-.7h-10.8c-.3-.4-1.1-.4-1.5-.7a2.36,2.36,0,0,1-1.5-.7c-.3-.4-.3-.7-.3-1.5a2.25,2.25,0,0,1,.3-1.5c.4-.7.7-.7,1.5-1.1a3.13,3.13,0,0,1,1.9-.4c.7,0,1.1-.4,1.5-.4h3.3Zm-5.5,12.6h10.3a5.63,5.63,0,0,1,3.7,1.1c1.1.7,1.5,1.8,1.5,3.7-.4.7-.7,1.5-1.1,2.2l-2.2,2.2c-1.1.4-2.2.7-3.3,1.1a10.16,10.16,0,0,1-3.7.7,9.35,9.35,0,0,1-3.3-.4,13,13,0,0,1-3.3-.7,7.18,7.18,0,0,1-2.2-1.5,3.31,3.31,0,0,1-1.1-2.2,4.31,4.31,0,0,1,.4-2.2,4.79,4.79,0,0,1,1.5-1.8c.3-.4,1.1-1.1,1.5-1.5h0C1094.73,635,1095,634.73,1095.43,634.73Zm7.4-27a7,7,0,0,1,1.8,1.1c.7.4.7,1.1,1.1,1.8a3.25,3.25,0,0,1,.3,1.8,4.44,4.44,0,0,1-1.5,3.7c-.7,1.1-2.2,1.5-4.4,1.5a5.27,5.27,0,0,1-4-1.5,4.76,4.76,0,0,1-1.5-3.7c0-.7,0-1.5.3-1.8a4.5,4.5,0,0,1,2.9-2.9,4.73,4.73,0,0,1,2.2-.7h0A5.22,5.22,0,0,1,1102.83,607.73Zm19.5-18.8a4.25,4.25,0,0,0-1.1,3,4.14,4.14,0,0,0,1.1,3,5.29,5.29,0,0,0,3,1.1,4.62,4.62,0,0,0,3-1.1,3.75,3.75,0,0,0,0-6,4.25,4.25,0,0,0-3-1.1h0A4.85,4.85,0,0,0,1122.33,588.93Zm-.7,45h7.8v-30.7h-7.8Zm23.6-30.3a15.27,15.27,0,0,0-5.2,3.3,10.67,10.67,0,0,0-3.7,5.2,12.24,12.24,0,0,0-1.5,6.3,12.41,12.41,0,0,0,1.5,6.6,10.67,10.67,0,0,0,3.7,5.2,14.37,14.37,0,0,0,5.2,3.3,21.74,21.74,0,0,0,6.6,1.1,22.33,22.33,0,0,0,7-1.1,15.27,15.27,0,0,0,5.2-3.3,10.67,10.67,0,0,0,3.7-5.2,12.64,12.64,0,0,0,1.5-6.6,12.48,12.48,0,0,0-1.5-6.3,10.67,10.67,0,0,0-3.7-5.2,14.37,14.37,0,0,0-5.2-3.3,22.33,22.33,0,0,0-7-1.1h0A21.74,21.74,0,0,0,1145.23,603.63Zm10.3,4.8a5,5,0,0,1,2.6,2.2,10.64,10.64,0,0,1,1.8,3.7,7.74,7.74,0,0,1,.7,4.1c0,1.8,0,3.3-.7,4.4a10.64,10.64,0,0,1-1.8,3.7,8,8,0,0,1-2.6,2.2,6.33,6.33,0,0,1-3.7.7,5.66,5.66,0,0,1-3.3-.7,11.08,11.08,0,0,1-3-2.2,12.89,12.89,0,0,1-1.9-3.7,16.17,16.17,0,0,1-.7-4.4,11.51,11.51,0,0,1,2.6-7.8,7,7,0,0,1,6.2-3h0C1153.33,607.73,1154.53,607.73,1155.53,608.43Zm47.7,25.5v-21.8c0-3-.7-5.2-2.6-7a9.93,9.93,0,0,0-7-2.6,21.27,21.27,0,0,0-4.4.7,8.82,8.82,0,0,0-3,.7c-1.1.7-1.9,1.1-2.6,1.5-.3.4-1.1.7-1.1,1.1l-.4-3.3h-7.4v30.7h7.8v-22.5c.3-.4.7-.4,1.1-.7.7-.4,1.5-.7,2.2-1.1a3,3,0,0,1,2.2-.7,5.1,5.1,0,0,1,2.6-.4c1.8,0,3,.4,3.7,1.5a6.47,6.47,0,0,1,1.1,3.7V634h7.8Zm13.6-14.4h21.4a23.34,23.34,0,0,0-1.1-7.8,13.26,13.26,0,0,0-3.3-5.2c-1.1-1.5-3-2.2-4.4-3a15.4,15.4,0,0,0-5.5-1.1,10.82,10.82,0,0,0-5.9,1.5,10.37,10.37,0,0,0-4.8,3.3,12.23,12.23,0,0,0-3.3,5.2,18.1,18.1,0,0,0-1.1,6.3,19.18,19.18,0,0,0,1.1,6.7,13.56,13.56,0,0,0,3,4.8,14.37,14.37,0,0,0,5.2,3.3,18.21,18.21,0,0,0,6.6,1.1c1.8,0,3.3-.4,4.8-.4,1.5-.4,2.6-.4,3.7-.7a4.73,4.73,0,0,1,2.2-.7,3.41,3.41,0,0,1,1.9-.7l-1.9-4.1a27.46,27.46,0,0,0-3,.7,18.85,18.85,0,0,1-5.5.7,10.45,10.45,0,0,1-7.4-2.6h0C1217.53,625.13,1216.83,622.53,1216.83,619.53Zm13.3-4.8h-13.3a14.1,14.1,0,0,1,2.2-5.2c.7-1.1,2.6-1.8,4.4-1.8s3.3.4,4.4,1.8h0A9.64,9.64,0,0,1,1230.13,614.73Zm21,19.2v-21.1c.4,0,.7-.7,1.1-1.1s1.1-.7,1.5-1.5c.7-.4,1.5-.7,2.2-1.1a4.31,4.31,0,0,1,2.2-.4h2.2c.7.4,1.1.7,1.8,1.1l3-5.5c-.7-.4-1.5-.7-2.2-1.1a6.75,6.75,0,0,0-3.3-.7,8.82,8.82,0,0,0-3,.7,7.11,7.11,0,0,0-2.6,1.8,10.18,10.18,0,0,0-1.8,1.8c-.4.7-1.1,1.1-1.1,1.5l-.3-5.2h-7v30.7h7.3Z" transform="translate(-665.14 -413.13)" style="fill:#798ea8"/></svg>