<svg xmlns="http://www.w3.org/2000/svg" viewBox="0 0 187.09 25.84">
    <path
      d="M112.49,1.74h11.26c5.87,0,7.38,3.75,7.38,6.27,0,3.52-1.62,4.51-2.63,5a6.11,6.11,0,0,1,4,6,7.22,7.22,0,0,1-2.08,5c-1.36,1.36-2.67,2.21-7.58,2.21H112.49Zm5,20.33h6.18c2.43,0,3.85-1.1,3.85-3.58,0-2.16-1.81-3-3.63-3h-6.4v6.55Zm0-10.74h5.28c2,0,3.53-.79,3.53-2.74S124.91,6,122.65,6H117.5Z"
      transform="translate(-1 -1)"
      style="fill: #798ea8; fill-rule: evenodd;"
    />
    <path
      d="M157.61,1.06c-3.18,0-11.31,1.4-11.31,12.88a15,15,0,0,0,1.89,8h-8.46V1.76h-5.3V26.27h15.69V24.19a11.64,11.64,0,0,0,7.49,2.65c3.17,0,11.34-1.4,11.34-12.9S160.78,1.06,157.61,1.06Zm0,21.46c-2.7,0-6.29-1.72-6.29-8.58s3.59-8.56,6.29-8.56,6.3,1.71,6.3,8.56S160.32,22.52,157.61,22.52Z"
      transform="translate(-1 -1)"
      style="fill: #798ea8; fill-rule: evenodd;"
    />
    <polygon
      points="165.32 0.74 171.19 0.74 176.43 11.47 181.46 0.74 187.09 0.74 179.06 16.14 179.06 25.27 173.6 25.27 173.6 16.09 165.32 0.74"
      style="fill: #798ea8; fill-rule: evenodd;"
    />
    <path
      d="M74,1.74H68L61.18,20.93a8.21,8.21,0,0,0,.24-2.11c0-4.12-3.07-5.63-6.42-6.46l-5.73-1.47a2.69,2.69,0,0,1-2.43-2.71c0-2.23,2.32-2.94,4.27-2.94,4.5,0,4.9,2.59,5,3.7l4.93-.34C61,5.92,58.64.93,51.5,1c-8,.08-9.44,4.82-9.44,7.55,0,5.41,4.21,6.29,7.64,7.21l2.35.63c2.62.6,4.46,1.12,4.46,3,0,2.6-2.71,3.19-5.14,3.19-3.88,0-4.84-2.61-4.88-4L42,18.85v0c0-4.42-3.48-5.78-6.83-6.61l-5.77-1.47c-1-.24-2.42-.65-2.42-2.56C27,6,29.07,5.23,31,5.23c4.49,0,4.89,2.6,5,3.7L41,8.55C40.86,5.86,38.69.93,31.4,1c-8,.06-9.18,4.82-9.18,7.55,0,5.41,4.66,6.33,8.12,7.27l2,.53c2.6.61,4.69,1.16,4.69,3.07,0,2.6-2.65,3.19-5.08,3.19-4.67,0-5.43-2.64-5.46-4l-4.75.3v.14L15.67,1.72H9.74L1,26.25H6.39L8.1,21.19h9.06l1.58,5.06h5.58L23,22.5c1.44,2.2,4.31,4.34,9.35,4.34,1.88,0,7.81-.5,9.31-5.47,1.15,2.52,4.07,5.47,10.11,5.47,1.73,0,6.92-.42,8.91-4.42l-1.4,3.87h5.41l1.71-5.06h9L77,26.29H82.6ZM9.47,17l3.15-9.72h.07l3,9.72Zm58.28,0L70.9,7.28H71L74,17Z"
      transform="translate(-1 -1)"
      style="fill: #798ea8; fill-rule: evenodd;"
    />
    <path
      d="M93.94,26.27H88.55L97.29,1.76h5.92l8.65,24.51h-5.57l-1.59-5.06h-9ZM97,17h6.24l-3-9.7h-.07Z"
      transform="translate(-1 -1)"
      style="fill: #798ea8; fill-rule: evenodd;"
    />
</svg>