<svg
    xmlns="http://www.w3.org/2000/svg"
    xmlns:xlink="http://www.w3.org/1999/xlink"
    viewBox="0 0 469.53 516.15"
>
    <defs>
      <radialGradient
        id="a"
        cx="938.81"
        cy="777.81"
        r="11.35"
        gradientUnits="userSpaceOnUse"
      >
        <stop offset="0" stop-color="#43a8d8" stop-opacity="0.5" />
        <stop offset="1" stop-color="#a4e9fd" />
      </radialGradient>
      <radialGradient id="b" cx="929.86" cy="733.19" r="7.63" xlink:href="#a" />
      <radialGradient id="c" cx="937.54" cy="735.56" r="8.84" xlink:href="#a" />
      <radialGradient id="d" cx="941.4" cy="743.92" r="5.19" xlink:href="#a" />
      <radialGradient id="e" cx="949.34" cy="746.49" r="6.41" xlink:href="#a" />
      <radialGradient id="f" cx="957.62" cy="748.19" r="8.23" xlink:href="#a" />
      <radialGradient id="g" cx="963.39" cy="753.55" r="7" xlink:href="#a" />
      <radialGradient id="h" cx="968.67" cy="759.68" r="5.19" xlink:href="#a" />
      <radialGradient id="i" cx="974.42" cy="764.84" r="4.03" xlink:href="#a" />
      <linearGradient
        id="j"
        x1="941.81"
        y1="646.56"
        x2="967.6"
        y2="646.56"
        xlink:href="#a"
      />
      <linearGradient
        id="k"
        x1="939.79"
        y1="662.13"
        x2="995.43"
        y2="662.13"
        xlink:href="#a"
      />
      <linearGradient
        id="l"
        x1="939.01"
        y1="665.06"
        x2="976.75"
        y2="665.06"
        xlink:href="#a"
      />
      <linearGradient
        id="m"
        x1="222.85"
        y1="384.09"
        x2="239.92"
        y2="384.09"
        xlink:href="#a"
      />
      <radialGradient id="n" cx="908.8" cy="760.48" r="11.35" xlink:href="#a" />
      <linearGradient
        id="o"
        x1="940.32"
        y1="694.82"
        x2="954.11"
        y2="694.82"
        gradientTransform="translate(91.02 -109.5) rotate(6.95)"
        gradientUnits="userSpaceOnUse"
      >
        <stop offset="0" stop-color="#43a8d8" stop-opacity="0.1" />
        <stop offset="1" stop-color="#a4e9fd" />
      </linearGradient>
      <linearGradient
        id="p"
        x1="941.5"
        y1="700.39"
        x2="947.22"
        y2="700.39"
        gradientTransform="matrix(1, 0, 0, 1, 0, 0)"
        xlink:href="#o"
      />
      <linearGradient
        id="q"
        x1="979.74"
        y1="718.03"
        x2="993.53"
        y2="718.03"
        gradientTransform="translate(94.12 -114.09) rotate(6.95)"
        xlink:href="#o"
      />
      <linearGradient
        id="r"
        x1="979.74"
        y1="718.04"
        x2="993.53"
        y2="718.04"
        gradientTransform="matrix(1, 0, 0, 1, 0, 0)"
        xlink:href="#o"
      />
    </defs>
    <circle cx="262.03" cy="207.5" r="207.5" style="fill: #161e2e;" />
    <g>
      <polygon
        points="373.7 467.54 58.7 285.67 58.7 49.42 373.7 231.29 373.7 467.54"
        style="fill: #43a8d8;"
      />
      <polygon
        points="363.54 477.7 48.54 295.84 48.54 59.59 363.54 241.45 363.54 477.7"
        style="fill: #63bee4;"
      />
      <polygon
        points="353.37 487.87 38.37 306.01 38.37 69.76 353.37 251.62 353.37 487.87"
        style="fill: #84d3f1;"
      />
      <polygon
        points="343.2 498.04 28.2 316.17 28.2 79.92 343.2 261.79 343.2 498.04"
        style="fill: #a4e9fd;"
      />
    </g>
    <g>
      <g>
        <polygon
          points="308.98 372.8 227.5 325.75 227.5 337.05 308.98 384.09 308.98 372.8"
          style="fill: #214159;"
        />
        <polygon
          points="305.72 374.68 305.72 378.44 230.75 335.16 230.75 331.4 305.72 374.68"
          style="fill: #161e2e;"
        />
        <polygon
          points="308.98 372.8 312.24 370.92 230.75 323.87 227.5 325.75 308.98 372.8"
          style="fill: #1c2f43;"
        />
        <polygon
          points="312.24 370.92 308.98 372.8 308.98 384.09 312.24 382.21 312.24 370.92"
          style="fill: #161e2e;"
        />
      </g>
      <g>
        <path
          d="M1007.58,671a39,39,0,0,0-5.24,19.56v47.08a39.12,39.12,0,0,1-19.56,33.86L940.11,796v2.19l43.48-25.27a40.83,40.83,0,0,0,20.35-35.25V690.6a37.6,37.6,0,0,1,17.95-32v-1.87A39,39,0,0,0,1007.58,671Z"
          transform="translate(-716.17 -282.05)"
          style="fill: #27526e;"
        />
        <polygon
          points="152.22 474.43 223.94 516.15 223.94 513.97 152.23 472.59 152.22 474.43"
          style="fill: #214159;"
        />
      </g>
      <path
        d="M982.78,771.54a39.12,39.12,0,0,0,19.56-33.86V690.6a39.1,39.1,0,0,1,19.55-33.87l-71.7-41.4a39.15,39.15,0,0,0-19.56,33.88v39.33c0,14-7.76,34.64-19.86,41.63l-42.36,24.47L940.11,796"
        transform="translate(-716.17 -282.05)"
        style="fill: #f5f5f5;"
      />
      <path
        d="M935.14,658.91v-3.44c0-2.33,0-2.33.06-3.9v-.26a37.57,37.57,0,0,1,2.08-10.55,29.44,29.44,0,0,1,5.26-9.19l-.44-.35a30,30,0,0,0-5.36,9.35,38.64,38.64,0,0,0-2.11,10.71v.26c-.07,1.59-.07,1.59-.06,3.93v3.1Z"
        transform="translate(-716.17 -282.05)"
        style="fill: #a5a4a4; opacity: 0.4;"
      />
      <g>
        <path
          d="M965.71,655.06a21.11,21.11,0,0,1,1.89-3l-24.18-14a22.74,22.74,0,0,0-1.61,3.2Z"
          transform="translate(-716.17 -282.05)"
          style="fill: #43a8d8;"
        />
        <path
          d="M995.43,676.21a35.9,35.9,0,0,0-1,3.44l-54.61-31.52a32.86,32.86,0,0,1,.83-3.52Z"
          transform="translate(-716.17 -282.05)"
          style="fill: #a4e9fd;"
        />
        <path
          d="M976.75,673.92c0,1.32,0,2.71,0,3.84L939,656s.13-3.58.17-3.58Z"
          transform="translate(-716.17 -282.05)"
          style="fill: #43a8d8;"
        />
        <polygon
          points="239.92 387.21 239.92 390.83 222.85 380.97 222.85 377.36 239.92 387.21"
          style="fill: #a4e9fd;"
        />
      </g>
      <polygon
        points="254.79 413.77 251.38 411.8 251.38 415.41 251.38 415.41 254.79 417.38 254.79 413.77"
        style="fill: #43a8d8;"
      />
      <polygon
        points="254.79 421.36 251.38 419.38 251.38 423 254.79 424.97 254.79 421.36"
        style="fill: #a4e9fd;"
      />
      <polygon
        points="254.79 428.69 251.38 426.72 251.38 430.34 254.79 432.31 254.79 428.69"
        style="fill: #43a8d8;"
      />
      <polygon
        points="254.79 435.81 251.38 433.84 251.38 437.46 254.79 439.43 254.79 435.81"
        style="fill: #a4e9fd;"
      />
      <path
        d="M929.42,783.24c5.66,3.26,14.45,3.48,19.64.48s4.81-8.07-.85-11.33-14.45-3.49-19.64-.49S923.76,780,929.42,783.24Zm2.08-9.65c3.7-2.14,10-2,14,.35s4.31,5.95.6,8.09-10,2-14-.34S927.79,775.73,931.5,773.59Z"
        transform="translate(-716.17 -282.05)"
        style="fill: #43a8d8;"
      />
      <g>
        <path
          d="M942.93,770.39l-1.18,2.12a17,17,0,0,0-7-.13l-1.6-2.17A23.72,23.72,0,0,1,942.93,770.39Z"
          transform="translate(-716.17 -282.05)"
          style="fill: #27debf;"
        />
        <path
          d="M942.93,770.39l-1.18,2.12a17,17,0,0,0-7-.13l-1.6-2.17A23.72,23.72,0,0,1,942.93,770.39Z"
          transform="translate(-716.17 -282.05)"
          style="fill: #a4e9fd;"
        />
      </g>
      <path
        d="M929.42,783.24c5.66,3.26,14.45,3.48,19.64.48s4.81-8.07-.85-11.33-14.45-3.49-19.64-.49S923.76,780,929.42,783.24Zm2.08-9.65c3.7-2.14,10-2,14,.35s4.31,5.95.6,8.09-10,2-14-.34S927.79,775.73,931.5,773.59Z"
        transform="translate(-716.17 -282.05)"
        style="opacity: 0.5; fill: url(#a);"
      />
      <path
        d="M1003.69,660.21a.55.55,0,0,0,.49-.28.57.57,0,0,0-.2-.78l-58.05-33.49a.55.55,0,0,0-.77.21.56.56,0,0,0,.2.77l58,33.5A.55.55,0,0,0,1003.69,660.21Z"
        transform="translate(-716.17 -282.05)"
        style="fill: #a5a4a4; opacity: 0.4;"
      />
      <path
        d="M1006.19,657.53a.55.55,0,0,0,.49-.28.56.56,0,0,0-.21-.78l-58-33.49a.57.57,0,1,0-.57,1l58,33.5A.55.55,0,0,0,1006.19,657.53Z"
        transform="translate(-716.17 -282.05)"
        style="fill: #a5a4a4; opacity: 0.4;"
      />
      <g>
        <path
          d="M901.49,756.26c-3.71,2.14-3.44,5.77.6,8.1h0c4,2.33,10.32,2.49,14,.35s3.44-5.77-.6-8.1h0C911.48,754.28,905.2,754.12,901.49,756.26Z"
          transform="translate(-716.17 -282.05)"
          style="fill: none;"
        />
        <path
          d="M918.2,755.06l-2.68,1.55h0c4,2.33,4.31,6,.6,8.1s-10,2-14-.35l-2.68,1.55h0c5.66,3.26,14.45,3.48,19.64.48S923.86,758.32,918.2,755.06Z"
          transform="translate(-716.17 -282.05)"
          style="fill: #43a8d8;"
        />
        <path
          d="M902.09,764.36h0c-4-2.33-4.31-6-.6-8.1s10-2,14,.35h0l2.68-1.55h0c-5.66-3.27-14.45-3.48-19.64-.49s-4.81,8.08.85,11.34h0Z"
          transform="translate(-716.17 -282.05)"
          style="fill: #a4e9fd;"
        />
      </g>
      <polygon
        points="214.79 473.29 190.34 459.17 189.19 459.82 213.65 473.94 214.79 473.29"
        style="fill: #a5a4a4; opacity: 0.4;"
      />
      <polygon
        points="248.64 492.71 224.19 478.59 223.04 479.25 247.51 493.36 248.64 492.71"
        style="fill: #a5a4a4; opacity: 0.4;"
      />
      <path
        d="M930.27,731.75"
        transform="translate(-716.17 -282.05)"
        style="fill: #27debf;"
      />
      <g>
        <path
          d="M929,732.82a40,40,0,0,1-7.05,5.69l3.44,2a40.76,40.76,0,0,0,7.2-5.89,39.9,39.9,0,0,0,5.23-6.75l-3.41-2A40,40,0,0,1,929,732.82Z"
          transform="translate(-716.17 -282.05)"
          style="fill: #43a8d8;"
        />
        <path
          d="M937,735.51a38.54,38.54,0,0,1-8.22,6.94l3.44,2a40.94,40.94,0,0,0,8.2-7,39,39,0,0,0,6-8.79l-3.39-2A38.61,38.61,0,0,1,937,735.51Z"
          transform="translate(-716.17 -282.05)"
          style="fill: #43a8d8;"
        />
        <path
          d="M947.22,741.43l-3.42-2a39.12,39.12,0,0,1-8.22,6.94l3.44,2A41.32,41.32,0,0,0,947.22,741.43Z"
          transform="translate(-716.17 -282.05)"
          style="fill: #43a8d8;"
        />
        <path
          d="M954.05,745.37c.8-.9,1.54-1.81,2.23-2.73l-3.41-2c-.68.91-1.43,1.83-2.24,2.76a39.12,39.12,0,0,1-8.22,6.94l3.44,2A41,41,0,0,0,954.05,745.37Z"
          transform="translate(-716.17 -282.05)"
          style="fill: #43a8d8;"
        />
        <path
          d="M956.89,748a40.36,40.36,0,0,1-7.64,6.31l3.45,2a38.92,38.92,0,0,0,7.69-6.42,37,37,0,0,0,5.6-7.77l-3.41-2A41.18,41.18,0,0,1,956.89,748Z"
          transform="translate(-716.17 -282.05)"
          style="fill: #43a8d8;"
        />
        <path
          d="M962.5,753.06a36.18,36.18,0,0,1-6.42,5.18l3.44,2a35.9,35.9,0,0,0,11.18-11.35l-3.4-2A33.82,33.82,0,0,1,962.5,753.06Z"
          transform="translate(-716.17 -282.05)"
          style="fill: #43a8d8;"
        />
        <path
          d="M974.5,757.18l-3.42-2a31.91,31.91,0,0,1-3.61,3.53,44.3,44.3,0,0,1-4.62,3.41l3.45,2a38.91,38.91,0,0,0,4.32-3.2A43,43,0,0,0,974.5,757.18Z"
          transform="translate(-716.17 -282.05)"
          style="fill: #43a8d8;"
        />
        <path
          d="M979.08,763.53l-3.44-2a34.75,34.75,0,0,1-5.89,4.58l3.45,2A26.77,26.77,0,0,0,979.08,763.53Z"
          transform="translate(-716.17 -282.05)"
          style="fill: #43a8d8;"
        />
      </g>
      <polygon
        points="256.99 488.04 225.98 470.14 225.97 470.14 198.85 454.47 198.05 454.94 229.05 472.84 229.05 472.84 256.19 488.5 256.99 488.04"
        style="fill: #a5a4a4; opacity: 0.4;"
      />
      <g>
        <polygon
          points="218.05 486.76 211.41 482.92 215.48 480.57 222.13 484.4 218.05 486.76"
          style="fill: #fff;"
        />
        <ellipse
          cx="931.43"
          cy="763.81"
          rx="0.62"
          ry="0.35"
          transform="translate(-801.74 -163.75) rotate(-6.95)"
          style="fill: #a4e9fd;"
        />
        <polygon
          points="219.91 484.98 215.81 482.62 216.59 482.17 220.69 484.53 219.91 484.98"
          style="fill: #a5a4a4; opacity: 0.4;"
        />
        <polygon
          points="218.46 486.01 212.86 482.77 213.64 482.32 219.24 485.56 218.46 486.01"
          style="fill: #a5a4a4; opacity: 0.4;"
        />
      </g>
      <g>
        <polygon
          points="188.25 469.55 181.61 465.71 185.69 463.36 192.33 467.19 188.25 469.55"
          style="fill: #fff;"
        />
        <ellipse
          cx="901.64"
          cy="746.6"
          rx="0.62"
          ry="0.35"
          transform="translate(-799.88 -167.48) rotate(-6.95)"
          style="fill: #a4e9fd;"
        />
        <polygon
          points="190.11 467.77 186.01 465.41 186.8 464.96 190.89 467.32 190.11 467.77"
          style="fill: #a5a4a4; opacity: 0.4;"
        />
        <polygon
          points="188.66 468.8 183.06 465.56 183.84 465.11 189.44 468.34 188.66 468.8"
          style="fill: #a5a4a4; opacity: 0.4;"
        />
      </g>
      <path
        d="M926.93,729.67l-.92-.53c-.65.73-1.35,1.44-2.06,2.14l.95.57-.41.4-1-.56q-1.08,1-2.25,1.95l.94.53-.51.37-.9-.52c-1,.81-2.09,1.57-3.2,2.3l-.54-.32c1-.67,2.26-1.54,3.21-2.28L919,733l.5-.37,1.29.74c.78-.62,1.54-1.27,2.26-1.94l-1.27-.74.42-.4,1.27.73c.72-.69,1.42-1.4,2.08-2.13l-1.33-.78.37-.43,1.34.77c.65-.75,1.28-1.51,1.86-2.31h0l-1.42-.82.34-.45,1.42.81c.57-.79,1.12-1.61,1.65-2.47l-1.45-.84.28-.48,1.46.83c.5-.84,1-1.72,1.41-2.62l-1.42-.82.25-.51,1.42.82c.44-.94.9-2,1.29-3l.49.28c-.4,1-.83,2-1.29,3l1.06.62-.28.49-1-.59c-.44.9-.91,1.77-1.41,2.62l.9.52-.28.49-.91-.53c-.52.86-1.07,1.69-1.65,2.48l.91.54-.33.45-.91-.53,0,.06c-.58.78-1.19,1.52-1.82,2.26l.91.53-.37.44"
        transform="translate(-716.17 -282.05)"
        style="fill: #a5a4a4; opacity: 0.4;"
      />
      <polygon
        points="273.44 415.12 270.17 413.23 270.17 411.86 269.61 411.54 269.6 412.9 265.51 410.55 265.51 409.17 264.94 408.84 264.94 410.22 260.86 407.86 260.86 406.48 260.29 406.15 260.29 407.53 256.2 405.17 256.2 403.79 255.63 403.47 255.63 404.84 251.54 402.48 251.54 401.11 250.98 400.78 250.98 402.15 246.89 399.8 246.89 398.42 246.32 398.09 246.32 399.47 242.23 397.11 242.23 395.73 241.66 395.4 241.66 396.78 237.58 394.42 237.58 393.05 237.01 392.72 237.01 394.09 232.92 391.73 232.92 390.36 232.35 390.03 232.35 391.4 228.26 389.05 228.26 387.67 227.7 387.34 227.7 388.72 223.61 386.36 223.61 384.98 223.04 384.65 223.04 386.03 218.95 383.67 218.95 382.29 218.39 381.97 218.38 385.29 218.95 385.62 218.95 384.33 223.04 386.69 223.04 387.98 223.61 388.31 223.61 387.01 227.7 389.37 227.7 390.67 228.26 390.99 228.26 389.7 232.35 392.06 232.35 393.35 232.92 393.68 232.92 392.39 237.01 394.75 237.01 396.04 237.58 396.37 237.58 395.08 241.66 397.44 241.66 398.73 242.23 399.06 242.23 397.76 246.32 400.12 246.32 401.42 246.89 401.75 246.89 400.45 250.98 402.81 250.98 404.1 251.54 404.43 251.54 403.14 255.63 405.5 255.63 406.79 256.2 407.12 256.2 405.83 260.29 408.19 260.29 409.47 260.86 409.8 260.86 408.51 264.94 410.87 264.94 412.16 265.51 412.49 265.51 411.2 269.6 413.56 269.61 414.86 270.17 415.18 270.17 413.89 273.45 415.78 273.44 415.12"
        style="fill: #a5a4a4; opacity: 0.4;"
      />
      <polygon
        points="277.1 463.64 252.19 449.26 252.18 449.28 235.53 439.66 235.51 439.68 218.57 429.97 218.17 430.98 243.11 445.37 243.12 445.36 259.78 454.97 259.79 454.95 276.74 464.73 277.1 463.64"
        style="fill: #a5a4a4; opacity: 0.4;"
      />
      <polygon
        points="278.31 459.16 253.4 444.78 253.38 444.8 236.73 435.18 236.72 435.2 219.72 425.38 219.37 426.5 244.31 440.89 244.32 440.88 260.98 450.49 260.99 450.48 278.04 460.31 278.31 459.16"
        style="fill: #a5a4a4; opacity: 0.4;"
      />
      <g style="opacity: 0.5;">
        <path
          d="M929,732.82a40,40,0,0,1-7.05,5.69l3.44,2a40.76,40.76,0,0,0,7.2-5.89,39.9,39.9,0,0,0,5.23-6.75l-3.41-2A40,40,0,0,1,929,732.82Z"
          transform="translate(-716.17 -282.05)"
          style="fill: url(#b);"
        />
        <path
          d="M937,735.51a38.54,38.54,0,0,1-8.22,6.94l3.44,2a40.94,40.94,0,0,0,8.2-7,39,39,0,0,0,6-8.79l-3.39-2A38.61,38.61,0,0,1,937,735.51Z"
          transform="translate(-716.17 -282.05)"
          style="fill: url(#c);"
        />
        <path
          d="M947.22,741.43l-3.42-2a39.12,39.12,0,0,1-8.22,6.94l3.44,2A41.32,41.32,0,0,0,947.22,741.43Z"
          transform="translate(-716.17 -282.05)"
          style="fill: url(#d);"
        />
        <path
          d="M954.05,745.37c.8-.9,1.54-1.81,2.23-2.73l-3.41-2c-.68.91-1.43,1.83-2.24,2.76a39.12,39.12,0,0,1-8.22,6.94l3.44,2A41,41,0,0,0,954.05,745.37Z"
          transform="translate(-716.17 -282.05)"
          style="fill: url(#e);"
        />
        <path
          d="M956.89,748a40.36,40.36,0,0,1-7.64,6.31l3.45,2a38.92,38.92,0,0,0,7.69-6.42,37,37,0,0,0,5.6-7.77l-3.41-2A41.18,41.18,0,0,1,956.89,748Z"
          transform="translate(-716.17 -282.05)"
          style="fill: url(#f);"
        />
        <path
          d="M962.5,753.06a36.18,36.18,0,0,1-6.42,5.18l3.44,2a35.9,35.9,0,0,0,11.18-11.35l-3.4-2A33.82,33.82,0,0,1,962.5,753.06Z"
          transform="translate(-716.17 -282.05)"
          style="fill: url(#g);"
        />
        <path
          d="M974.5,757.18l-3.42-2a31.91,31.91,0,0,1-3.61,3.53,44.3,44.3,0,0,1-4.62,3.41l3.45,2a38.91,38.91,0,0,0,4.32-3.2A43,43,0,0,0,974.5,757.18Z"
          transform="translate(-716.17 -282.05)"
          style="fill: url(#h);"
        />
        <path
          d="M979.08,763.53l-3.44-2a34.75,34.75,0,0,1-5.89,4.58l3.45,2A26.77,26.77,0,0,0,979.08,763.53Z"
          transform="translate(-716.17 -282.05)"
          style="fill: url(#i);"
        />
      </g>
      <g style="opacity: 0.5;">
        <path
          d="M965.71,655.06a21.11,21.11,0,0,1,1.89-3l-24.18-14a22.74,22.74,0,0,0-1.61,3.2Z"
          transform="translate(-716.17 -282.05)"
          style="fill: url(#j);"
        />
        <path
          d="M995.43,676.21a35.9,35.9,0,0,0-1,3.44l-54.61-31.52a32.86,32.86,0,0,1,.83-3.52Z"
          transform="translate(-716.17 -282.05)"
          style="fill: url(#k);"
        />
        <path
          d="M976.75,673.92c0,1.32,0,2.71,0,3.84L939,656s.13-3.58.17-3.58Z"
          transform="translate(-716.17 -282.05)"
          style="fill: url(#l);"
        />
        <polygon
          points="239.92 387.21 239.92 390.83 222.85 380.97 222.85 377.36 239.92 387.21"
          style="fill: url(#m);"
        />
      </g>
      <path
        d="M899.41,765.91c5.66,3.26,14.45,3.48,19.64.48s4.81-8.07-.85-11.33-14.45-3.48-19.64-.49S893.75,762.65,899.41,765.91Zm2.08-9.65c3.71-2.14,10-2,14,.35s4.31,6,.6,8.1-10,2-14-.35S897.78,758.4,901.49,756.26Z"
        transform="translate(-716.17 -282.05)"
        style="opacity: 0.5; fill: url(#n);"
      />
      <polygon
        points="250.13 433.13 244.66 429.96 244.62 431.28 250.12 434.44 250.13 433.13"
        style="fill: #a5a4a4; opacity: 0.4;"
      />
      <polygon
        points="250.13 426.19 246.56 424.13 246.54 425.44 250.12 427.5 250.13 426.19"
        style="fill: #a5a4a4; opacity: 0.4;"
      />
      <polygon
        points="250.13 418.88 244.66 415.7 244.62 417.02 250.12 420.18 250.13 418.88"
        style="fill: #a5a4a4; opacity: 0.4;"
      />
      <g>
        <g>
          <ellipse
            cx="947.22"
            cy="694.84"
            rx="6.79"
            ry="12.01"
            transform="translate(-793.28 -162.34) rotate(-6.95)"
            style="fill: #43a8d8;"
          />
          <path
            d="M947.22,694.84,945.7,706a9.32,9.32,0,0,1-2.79-3,16.1,16.1,0,0,1-1.41-3Z"
            transform="translate(-716.17 -282.05)"
            style="fill: #a4e9fd;"
          />
        </g>
        <g style="opacity: 0.75;">
          <ellipse
            cx="947.22"
            cy="694.82"
            rx="6.79"
            ry="12.01"
            transform="translate(-793.28 -162.34) rotate(-6.95)"
            style="fill: url(#o);"
          />
          <path
            d="M947.22,694.82,945.69,706a9.47,9.47,0,0,1-2.78-3,15.87,15.87,0,0,1-1.41-3Z"
            transform="translate(-716.17 -282.05)"
            style="fill: url(#p);"
          />
        </g>
      </g>
      <g>
        <g style="opacity: 0.75;">
          <ellipse
            cx="986.64"
            cy="718.03"
            rx="6.79"
            ry="12.01"
            transform="translate(-795.8 -157.4) rotate(-6.95)"
            style="fill: #43a8d8;"
          />
          <path
            d="M993.38,717.21A20.13,20.13,0,0,0,992,712L986.64,718l-1.46-11.92c-3.69.45-6.08,6.2-5.29,12.74s4.5,11.55,8.2,11.1S994.18,723.75,993.38,717.21Z"
            transform="translate(-716.17 -282.05)"
            style="fill: #a4e9fd;"
          />
        </g>
        <g style="opacity: 0.75;">
          <ellipse
            cx="986.64"
            cy="718.03"
            rx="6.79"
            ry="12.01"
            transform="translate(-795.8 -157.4) rotate(-6.95)"
            style="fill: url(#q);"
          />
          <path
            d="M993.38,717.21A20.13,20.13,0,0,0,992,712L986.64,718l-1.46-11.92c-3.69.45-6.08,6.2-5.29,12.74s4.5,11.55,8.2,11.1S994.18,723.75,993.38,717.21Z"
            transform="translate(-716.17 -282.05)"
            style="fill: url(#r);"
          />
        </g>
      </g>
      <polygon
        points="250.13 411.11 246.56 409.04 246.54 410.36 250.12 412.41 250.13 411.11"
        style="fill: #a5a4a4; opacity: 0.4;"
      />
    </g>
    <g>
      <polygon
        points="174.38 265.93 70.46 205.93 70.46 130.87 174.38 190.87 174.38 265.93"
        style="fill: #161e2e;"
      />
      <polygon
        points="171.36 267.44 67.44 207.44 67.44 132.38 171.36 192.38 171.36 267.44"
        style="fill: #1c3044;"
      />
      <polygon
        points="168.34 268.94 64.42 208.94 64.42 133.89 168.34 193.89 168.34 268.94"
        style="fill: #214159;"
      />
    </g>
    <g>
      <polygon
        points="155.47 203.56 77.52 158.56 77.52 155.67 155.47 200.67 155.47 203.56"
        style="fill: #98d0ea;"
      />
      <polygon
        points="81.81 192.81 77.48 190.31 77.48 184.54 81.81 187.04 81.81 192.81"
        style="fill: #98d0ea;"
      />
      <polygon
        points="81.81 203.74 77.48 201.24 77.48 195.47 81.81 197.97 81.81 203.74"
        style="fill: #98d0ea;"
      />
      <polygon
        points="104.78 192.62 87.45 182.62 87.45 179.73 104.78 189.73 104.78 192.62"
        style="fill: #98d0ea;"
      />
      <polygon
        points="104.78 203.1 87.45 193.1 87.45 190.21 104.78 200.21 104.78 203.1"
        style="fill: #98d0ea;"
      />
      <polygon
        points="104.78 213.59 87.45 203.59 87.45 200.7 104.78 210.7 104.78 213.59"
        style="fill: #98d0ea;"
      />
      <polygon
        points="133.44 211.79 129.11 209.29 129.11 203.52 133.44 206.02 133.44 211.79"
        style="fill: #98d0ea;"
      />
      <polygon
        points="133.44 233.66 129.11 231.16 129.11 225.38 133.44 227.88 133.44 233.66"
        style="fill: #98d0ea;"
      />
      <polygon
        points="156.41 222.53 139.09 212.53 139.09 209.65 156.41 219.65 156.41 222.53"
        style="fill: #98d0ea;"
      />
      <polygon
        points="156.41 233.01 139.09 223.01 139.09 220.13 156.41 230.13 156.41 233.01"
        style="fill: #98d0ea;"
      />
      <polygon
        points="156.41 243.5 139.09 233.5 139.09 230.62 156.41 240.62 156.41 243.5"
        style="fill: #98d0ea;"
      />
      <polygon
        points="153.3 204.31 75.36 159.31 75.36 156.43 153.3 201.43 153.3 204.31"
        style="fill: #fff;"
      />
      <polygon
        points="79.64 193.57 75.31 191.07 75.31 185.29 79.64 187.79 79.64 193.57"
        style="fill: #fff;"
      />
      <polygon
        points="79.64 204.5 75.31 202 75.31 196.22 79.64 198.72 79.64 204.5"
        style="fill: #fff;"
      />
      <polygon
        points="102.61 193.37 85.29 183.37 85.29 180.49 102.61 190.49 102.61 193.37"
        style="fill: #fff;"
      />
      <polygon
        points="102.61 203.85 85.29 193.85 85.29 190.97 102.61 200.97 102.61 203.85"
        style="fill: #fff;"
      />
      <polygon
        points="102.61 214.34 85.29 204.34 85.29 201.45 102.61 211.45 102.61 214.34"
        style="fill: #fff;"
      />
      <polygon
        points="131.28 212.55 126.95 210.05 126.95 204.28 131.28 206.78 131.28 212.55"
        style="fill: #fff;"
      />
      <polygon
        points="131.28 234.41 126.95 231.91 126.95 226.14 131.28 228.64 131.28 234.41"
        style="fill: #fff;"
      />
      <polygon
        points="154.25 223.29 136.93 213.29 136.93 210.4 154.25 220.4 154.25 223.29"
        style="fill: #fff;"
      />
      <polygon
        points="154.25 233.77 136.93 223.77 136.93 220.88 154.25 230.88 154.25 233.77"
        style="fill: #fff;"
      />
      <polygon
        points="154.25 244.25 136.93 234.25 136.93 231.37 154.25 241.37 154.25 244.25"
        style="fill: #fff;"
      />
      <polygon
        points="81.81 181.88 77.48 179.38 77.48 173.61 81.81 176.11 81.81 181.88"
        style="fill: #98d0ea;"
      />
      <polygon
        points="79.64 182.63 75.31 180.13 75.31 174.36 79.64 176.86 79.64 182.63"
        style="fill: #3886ae;"
      />
      <path
        d="M797.1,458.84l-.22.17-3,2.23-1-1.82-.24-.41-.42.4.24.41,1.27,2.21.22.38.21-.16,3.16-2.39.23-.16-.45-.86Z"
        transform="translate(-716.17 -282.05)"
        style="fill: #fff;"
      />
      <polygon
        points="133.44 222.73 129.11 220.23 129.11 214.45 133.44 216.95 133.44 222.73"
        style="fill: #98d0ea;"
      />
      <polygon
        points="131.28 223.48 126.95 220.98 126.95 215.21 131.28 217.71 131.28 223.48"
        style="fill: #3886ae;"
      />
      <path
        d="M848.74,499.69l-.23.16-3,2.24-1-1.82-.23-.42-.42.4.24.42,1.26,2.2.23.39.2-.16,3.17-2.39.22-.16-.44-.86Z"
        transform="translate(-716.17 -282.05)"
        style="fill: #fff;"
      />
    </g>
    <g>
      <polygon
        points="78.61 309.11 4.32 266.22 4.32 191.16 78.61 234.05 78.61 309.11"
        style="fill: #161e2e;"
      />
      <polygon
        points="76.45 311.12 2.16 268.22 2.16 193.17 76.45 236.06 76.45 311.12"
        style="fill: #1c3044;"
      />
      <polygon
        points="74.29 313.12 0 270.23 0 195.17 74.29 238.06 74.29 313.12"
        style="fill: #214159;"
      />
    </g>
    <g>
      <ellipse
        cx="731.2"
        cy="520.87"
        rx="1.88"
        ry="3.32"
        transform="translate(-861.74 45.85) rotate(-23.05)"
        style="fill: #98d0ea;"
      />
      <ellipse
        cx="731.2"
        cy="531.81"
        rx="1.88"
        ry="3.32"
        transform="translate(-866.02 46.72) rotate(-23.05)"
        style="fill: #98d0ea;"
      />
      <ellipse
        cx="731.2"
        cy="542.74"
        rx="1.88"
        ry="3.32"
        transform="translate(-870.3 47.59) rotate(-23.05)"
        style="fill: #98d0ea;"
      />
      <polygon
        points="64.79 267.85 30.15 247.84 30.15 244.96 64.79 264.96 64.79 267.85"
        style="fill: #98d0ea;"
      />
      <polygon
        points="64.79 278.32 30.15 258.32 30.15 255.44 64.79 275.44 64.79 278.32"
        style="fill: #98d0ea;"
      />
      <polygon
        points="64.79 288.81 30.15 268.81 30.15 265.93 64.79 285.93 64.79 288.81"
        style="fill: #98d0ea;"
      />
      <ellipse
        cx="729.03"
        cy="521.63"
        rx="1.88"
        ry="3.32"
        transform="translate(-862.21 45.06) rotate(-23.05)"
        style="fill: #fff;"
      />
      <ellipse
        cx="729.03"
        cy="532.56"
        rx="1.88"
        ry="3.32"
        transform="translate(-866.49 45.93) rotate(-23.05)"
        style="fill: #fff;"
      />
      <ellipse
        cx="729.03"
        cy="543.49"
        rx="1.88"
        ry="3.32"
        transform="translate(-870.77 46.8) rotate(-23.05)"
        style="fill: #fff;"
      />
      <polygon
        points="62.63 268.6 27.99 248.6 27.99 245.71 62.63 265.71 62.63 268.6"
        style="fill: #fff;"
      />
      <polygon
        points="62.63 279.08 27.99 259.08 27.99 256.19 62.63 276.19 62.63 279.08"
        style="fill: #fff;"
      />
      <polygon
        points="62.63 289.56 27.98 269.56 27.98 266.68 62.63 286.68 62.63 289.56"
        style="fill: #fff;"
      />
      <ellipse
        cx="729.03"
        cy="532.56"
        rx="0.84"
        ry="1.48"
        transform="translate(-866.49 45.93) rotate(-23.05)"
        style="fill: #3886ae;"
      />
      <polygon
        points="64.82 249.38 12.86 219.38 12.86 216.49 64.82 246.49 64.82 249.38"
        style="fill: #98d0ea;"
      />
      <polygon
        points="62.65 250.13 10.69 220.13 10.69 217.25 62.65 247.25 62.65 250.13"
        style="fill: #fff;"
      />
    </g>
    <g>
      <polygon
        points="193.42 376.4 102.82 324.1 102.82 249.04 193.42 301.35 193.42 376.4"
        style="fill: #161e2e;"
      />
      <polygon
        points="190.78 378.14 100.19 325.83 100.19 250.77 190.78 303.08 190.78 378.14"
        style="fill: #1c3044;"
      />
      <polygon
        points="188.15 379.87 97.55 327.56 97.55 252.5 188.15 304.81 188.15 379.87"
        style="fill: #214159;"
      />
    </g>
    <polygon
      points="116.18 311.04 111.85 308.54 111.85 302.76 116.18 305.26 116.18 311.04"
      style="fill: #98d0ea;"
    />
    <polygon
      points="116.18 321.97 111.85 319.47 111.85 313.69 116.18 316.19 116.18 321.97"
      style="fill: #98d0ea;"
    />
    <polygon
      points="139.15 310.84 121.82 300.84 121.82 297.96 139.15 307.96 139.15 310.84"
      style="fill: #98d0ea;"
    />
    <polygon
      points="139.15 321.32 121.82 311.32 121.82 308.44 139.15 318.44 139.15 321.32"
      style="fill: #98d0ea;"
    />
    <polygon
      points="139.15 331.81 121.82 321.81 121.82 318.92 139.15 328.92 139.15 331.81"
      style="fill: #98d0ea;"
    />
    <polygon
      points="114.01 311.79 109.68 309.29 109.68 303.52 114.01 306.02 114.01 311.79"
      style="fill: #fff;"
    />
    <polygon
      points="114.01 322.72 109.68 320.22 109.68 314.45 114.01 316.95 114.01 322.72"
      style="fill: #fff;"
    />
    <polygon
      points="136.98 311.6 119.66 301.6 119.66 298.71 136.98 308.71 136.98 311.6"
      style="fill: #fff;"
    />
    <polygon
      points="136.98 322.07 119.66 312.07 119.66 309.19 136.98 319.19 136.98 322.07"
      style="fill: #fff;"
    />
    <polygon
      points="136.98 332.56 119.66 322.56 119.66 319.68 136.98 329.68 136.98 332.56"
      style="fill: #fff;"
    />
    <polygon
      points="116.18 300.1 111.85 297.6 111.85 291.83 116.18 294.33 116.18 300.1"
      style="fill: #98d0ea;"
    />
    <polygon
      points="114.01 300.86 109.68 298.36 109.68 292.58 114.01 295.08 114.01 300.86"
      style="fill: #3886ae;"
    />
    <path
      d="M831.47,577.06l-.23.17-3,2.23-1-1.82-.24-.41-.42.4.24.41,1.27,2.21.22.39.21-.16,3.16-2.39.23-.17-.45-.86Z"
      transform="translate(-716.17 -282.05)"
      style="fill: #fff;"
    />
    <polygon
      points="163.85 306.78 111.89 276.78 111.89 273.9 163.85 303.9 163.85 306.78"
      style="fill: #98d0ea;"
    />
    <polygon
      points="161.69 307.54 109.73 277.54 109.73 274.65 161.69 304.65 161.69 307.54"
      style="fill: #fff;"
    />
    <g>
      <polygon
        points="312.27 345.69 197.39 279.37 197.39 204.31 312.27 270.64 312.27 345.69"
        style="fill: #161e2e;"
      />
      <polygon
        points="308.93 347.02 194.06 280.69 194.06 205.64 308.93 271.96 308.93 347.02"
        style="fill: #1c3044;"
      />
      <polygon
        points="305.6 348.34 190.72 282.01 190.72 206.96 305.6 273.29 305.6 348.34"
        style="fill: #214159;"
      />
    </g>
    <polygon
      points="258.21 263.39 206.25 233.39 206.25 230.5 258.21 260.5 258.21 263.39"
      style="fill: #98d0ea;"
    />
    <polygon
      points="256.05 264.14 204.09 234.14 204.09 231.25 256.05 261.25 256.05 264.14"
      style="fill: #fff;"
    />
    <ellipse
      cx="924.59"
      cy="534.76"
      rx="1.88"
      ry="3.32"
      transform="translate(-851.74 122.68) rotate(-23.05)"
      style="fill: #98d0ea;"
    />
    <ellipse
      cx="924.59"
      cy="545.7"
      rx="1.88"
      ry="3.32"
      transform="translate(-856.02 123.55) rotate(-23.05)"
      style="fill: #98d0ea;"
    />
    <ellipse
      cx="924.59"
      cy="556.62"
      rx="1.88"
      ry="3.32"
      transform="translate(-860.3 124.43) rotate(-23.05)"
      style="fill: #98d0ea;"
    />
    <polygon
      points="258.19 281.73 223.54 261.73 223.54 258.84 258.19 278.84 258.19 281.73"
      style="fill: #98d0ea;"
    />
    <polygon
      points="258.19 292.21 223.54 272.21 223.54 269.32 258.19 289.32 258.19 292.21"
      style="fill: #98d0ea;"
    />
    <polygon
      points="258.18 302.7 223.54 282.7 223.54 279.81 258.18 299.81 258.18 302.7"
      style="fill: #98d0ea;"
    />
    <ellipse
      cx="922.42"
      cy="535.51"
      rx="1.88"
      ry="3.32"
      transform="translate(-852.21 121.89) rotate(-23.05)"
      style="fill: #fff;"
    />
    <ellipse
      cx="922.42"
      cy="546.45"
      rx="1.88"
      ry="3.32"
      transform="translate(-856.49 122.76) rotate(-23.05)"
      style="fill: #fff;"
    />
    <ellipse
      cx="922.42"
      cy="557.38"
      rx="1.88"
      ry="3.32"
      transform="translate(-860.77 123.64) rotate(-23.05)"
      style="fill: #fff;"
    />
    <polygon
      points="256.02 282.48 221.38 262.48 221.38 259.6 256.02 279.6 256.02 282.48"
      style="fill: #fff;"
    />
    <polygon
      points="256.02 292.96 221.38 272.96 221.38 270.08 256.02 290.08 256.02 292.96"
      style="fill: #fff;"
    />
    <polygon
      points="256.02 303.45 221.38 283.45 221.38 280.56 256.02 300.56 256.02 303.45"
      style="fill: #fff;"
    />
</svg>
