
  <svg xmlns="http://www.w3.org/2000/svg" viewBox="0 0 520.39 521.11">
    <path
      d="M204.85,325.58a60.77,60.77,0,0,1-30.94-8.21l5.8-13.3c9,4.83,16.68,7,24.66,7,14.75,0,20.3-7.74,20.3-17.17S220.8,278.43,202,267.55c-21-11.84-27.55-22.24-27.55-36.74,0-18.61,14.5-31.18,34.56-31.18a59.79,59.79,0,0,1,29,7.73l-5.32,12.82c-6.53-3.15-15-6.29-23.21-6.29-12.08,0-18.12,6.52-18.12,15.72s3.86,14.74,22,24.89c22.24,12.81,28.53,23.69,28.53,38,0,20.79-14.27,33.11-37,33.11"
      transform="translate(0.08 -0.02)"
      style="fill: #798ea8;"
    />
    <path
      d="M420,314.94a54.49,54.49,0,0,1-32.87,10.64c-21.52,0-42.07-12.08-42.07-61.63,0-44,18.38-64.3,45-64.3a48.76,48.76,0,0,1,28.77,9.91l-5.57,13c-6.53-4.59-13.77-7.73-22-7.73-16.44,0-28.76,12.09-28.76,47.85,0,36,13,47.38,27.31,47.38,9.43,0,16.68-2.9,24.89-7.73Z"
      transform="translate(0.08 -0.02)"
      style="fill: #798ea8;"
    />
    <path
      d="M471.24,325.58h-.73c-33.36,0-47.86-20.79-47.86-62.36,0-37,14.74-63.57,49.07-63.57h.48c33.36,0,48.11,20.78,48.11,62.61,0,36.74-15,63.32-49.07,63.32m.24-111.19c-23.69,0-31.67,20.55-31.67,48.34,0,28.29,8,48.12,31.43,48.12,23.68,0,31.66-20.56,31.66-48.12,0-28.51-8-48.34-31.42-48.34"
      transform="translate(0.08 -0.02)"
      style="fill: #798ea8;"
    />
    <path
      d="M282.31,325.83c-18.85,0-32.15-15-32.15-36.5,0-16.38,6.58-36,58.44-36H318v-4.84c0-21.27-3.14-34.56-26.35-34.56-11.6,0-22.71,3.38-35.53,7.73l-3.39-13c14.5-5.56,28.28-8.94,41.34-8.94,29,0,41.08,12.09,41.08,43.51v81.21H321.4l-2.17-16.67s-15.34,18.13-36.92,18.13m24.83-58.5c-30.48,0-39.57,6.31-39.57,20.78,0,12.69,6,22.74,19.09,22.74,11.6,0,21.49-6.72,31.36-17.9V267.4Z"
      transform="translate(0.08 -0.02)"
      style="fill: #798ea8;"
    />
    <path
      d="M34.31,257.6a228,228,0,0,1,9.19-60.4h0l-32.88-9.67h0A261.65,261.65,0,0,0,147.71,497l14.93-30.85A227.28,227.28,0,0,1,34.31,257.6Z"
      transform="translate(0.08 -0.02)"
      style="fill: #798ea8;"
    />
    <path
      d="M402.44,41.15A261,261,0,0,0,266,0h0l-.58,34.27h0A227,227,0,0,1,453.63,140.06l30.73-15.5A262.47,262.47,0,0,0,402.44,41.15Z"
      transform="translate(0.08 -0.02)"
      style="fill: #798ea8;"
    />
    <path
      d="M471.24,325.58h-.73c-33.36,0-47.86-20.79-47.86-62.36,0-37,14.74-63.57,49.07-63.57h.48c33.36,0,48.11,20.78,48.11,62.61,0,36.74-15,63.32-49.07,63.32m.24-111.19c-23.69,0-31.67,20.55-31.67,48.34,0,28.29,8,48.12,31.43,48.12,23.68,0,31.66-20.56,31.66-48.12,0-28.51-8-48.34-31.42-48.34"
      transform="translate(0.08 -0.02)"
      style="fill: #798ea8;"
    />
    <path
      d="M200.78,514.33l-.65-7-15-4.17L181,508.82,174.45,507l21.92-29.12,7.16,2,3.76,36.26Zm-2.41-29.71-10.21,14,11.76,3.27Z"
      transform="translate(0.08 -0.02)"
      style="fill: #798ea8;"
    />
    <path
      d="M236,520l-9.46-15.65-3.42,3.11-1.35,10.75-5.9-.75,4.23-33.66,5.91.75-2,16,15.19-14.34,7.31.92-15.66,14.13L243.3,521Z"
      transform="translate(0.08 -0.02)"
      style="fill: #798ea8;"
    />
    <path
      d="M273.24,521l-2.55-6.54-15.57.13-2.44,6.59h-6.76l13-34,7.43-.06L280,520.88Zm-10.52-27.89-6,16.23,12.2-.1Z"
      transform="translate(0.08 -0.02)"
      style="fill: #798ea8;"
    />
    <path
      d="M287.8,520.05l-5.37-33.5,12.46-2c10.49-1.69,18.63,4.12,20.2,13.91s-4.34,17.9-14.78,19.58Zm21.27-20.61c-1-6.43-5.87-10.91-13.31-9.72l-6.62,1.06,3.71,23.15,6.58-1c7.28-1.22,10.66-7.12,9.64-13.49Z"
      transform="translate(0.08 -0.02)"
      style="fill: #798ea8;"
    />
    <path
      d="M326.82,512.78l-10-32.41L339,473.5l1.54,5-16.52,5.1,2.58,8.36,16.19-5,1.54,5-16.18,5,2.79,9,16.52-5.1,1.55,5Z"
      transform="translate(0.08 -0.02)"
      style="fill: #798ea8;"
    />
    <path
      d="M386.49,488.89l-11.64-23.46,2.35,28.07-2.28,1.13-21-18.83,11.64,23.47-5.33,2.64-15.08-30.39,7.52-3.73,18.64,16.75-2.1-25,7.51-3.74,15.08,30.39Z"
      transform="translate(0.08 -0.02)"
      style="fill: #798ea8;"
    />
    <path
      d="M401.82,479.41l-18.77-28.26,5-3.29,18.78,28.26Z"
      transform="translate(0.08 -0.02)"
      style="fill: #798ea8;"
    />
    <path
      d="M432.24,456.54l-17.88-3.85-.09,4.62,6.9,8.36-4.59,3.78L395,443.28l4.59-3.79,10.26,12.44V431l5.69-4.69-.47,21.09L438,451.85Z"
      transform="translate(0.08 -0.02)"
      style="fill: #798ea8;"
    />
    <path
      d="M443.65,446,418.78,423l15.82-17,3.84,3.56-11.77,12.64,6.42,6,11.52-12.41,3.84,3.56-11.53,12.41,6.94,6.44,11.76-12.67,3.84,3.56Z"
      transform="translate(0.08 -0.02)"
      style="fill: #798ea8;"
    />
    <path
      d="M477.18,405.15,462.52,404l-3.44,4.87,10.35,7.3L466,421l-27.76-19.57,8.6-12.17c3.87-5.49,10-6.61,15.11-3,4.9,3.46,5.32,8.61,3.48,12.36l15.7.87Zm-18.75-13.92c-2.66-1.88-5.77-1.09-7.71,1.65L446,399.57l8.81,6.22,4.73-6.69C461.47,396.36,461.13,393.15,458.43,391.23Z"
      transform="translate(0.08 -0.02)"
      style="fill: #798ea8;"
    />
    <path
      d="M47,170.35l-2.65-5.06a14.61,14.61,0,0,0,9-7.51c2.17-4.37.87-7.12-1.18-8.14-6.38-3.17-11.2,16.47-22.36,10.93-5-2.51-6.75-8.81-3.42-15.51a17.55,17.55,0,0,1,9.91-9.21l2.47,5a13.85,13.85,0,0,0-7.9,7.09c-1.53,3.1-1,5.87,1.25,7,5.69,2.83,11-16.59,22.26-11,5.06,2.51,7.64,8.28,3.59,16.43C55.24,166,51.18,169,47,170.35Z"
      transform="translate(0.08 -0.02)"
      style="fill: #798ea8;"
    />
    <path
      d="M72.06,134.86l-35.47-8.41,3.86-5.55,28.38,7.2L52.18,104,56,98.47,76.3,128.76Z"
      transform="translate(0.08 -0.02)"
      style="fill: #798ea8;"
    />
    <path
      d="M87.08,114.55,62.24,91.43l15.85-17L81.92,78,70.13,90.66l6.4,6L88.08,84.27l3.83,3.57L80.38,100.15l6.92,6.45L99.09,94l3.83,3.57Z"
      transform="translate(0.08 -0.02)"
      style="fill: #798ea8;"
    />
    <path
      d="M123.09,80.52,109.3,75.41l-4.62,3.75,8,9.83-4.62,3.76L86.66,66.41,98.23,57c5.21-4.23,11.37-3.67,15.35,1.23,3.78,4.66,2.79,9.73,0,12.84l14.88,5.08ZM108.8,62.05c-2-2.53-5.27-2.61-7.87-.49l-6.36,5.17,6.8,8.37,6.36-5.17c2.61-2.12,3.15-5.31,1.07-7.88Z"
      transform="translate(0.08 -0.02)"
      style="fill: #798ea8;"
    />
    <path
      d="M134.33,72.58,115.79,44.15l5-3.25,18.54,28.41Z"
      transform="translate(0.08 -0.02)"
      style="fill: #798ea8;"
    />
    <path
      d="M137.29,50.15c-4.78-9.55-.75-19.24,8.07-23.66a15.87,15.87,0,0,1,15.34.18l-3.07,4.66a11,11,0,0,0-9.9-.11c-6,3-8.19,9.79-5,16.2s9.94,8.74,16,5.73c5.14-2.57,6.28-7.46,5.14-11.9l-10.78,5.4L150.74,42l16.56-8.29c5.15,10.29,2.92,19.71-6.63,24.49C152.24,62.31,142.05,59.63,137.29,50.15Z"
      transform="translate(0.08 -0.02)"
      style="fill: #798ea8;"
    />
    <path
      d="M179.88,48.72,169.37,16.46l22.11-7.19,1.62,5-16.45,5.35,2.71,8.32,16.11-5.24,1.62,5L181,32.94l2.93,9,16.45-5.35,1.62,5Z"
      transform="translate(0.08 -0.02)"
      style="fill: #798ea8;"
    />
    <path
      d="M205.83,35.54l2.49-5.15a14.54,14.54,0,0,0,11.4,2.75c4.8-.86,6.23-3.55,5.82-5.8-1.26-7-19.89.84-22.1-11.42-1-5.56,3-10.68,10.39-12a17.55,17.55,0,0,1,13.31,2.46l-2.52,5a13.81,13.81,0,0,0-10.4-2.11c-3.4.62-5.3,2.71-4.86,5.17,1.13,6.25,19.85-1.1,22.09,11.31,1,5.56-2.09,11.08-11,12.69C214.24,39.5,209.39,38.15,205.83,35.54Z"
      transform="translate(0.08 -0.02)"
      style="fill: #798ea8;"
    />
</svg>