<svg xmlns="http://www.w3.org/2000/svg" viewBox="0 0 708.66 310.97">
    <path
      d="M0,225.07,40.42,194.9C68.7,219.53,88.49,223.06,105,223.06c18.85,0,36.53-4,38.89-14.73,1.76-8.48-5.31-15.32-21.45-19.09-18.26-4.12-33.58-7.66-50.79-12.13C25.1,164.85,11.9,137.87,11.9,113.59c0-33.46,31.23-67.87,88.14-67.87,58.45,0,92.62,33.47,92.62,33.47L154.48,107.7c-18-15.55-41.24-18.5-54.08-18.5s-26.52,3.65-28.64,13c-2,9.08,6.36,16,20.86,20,16.38,4.36,31.46,8.24,54.44,14.84,34.29,9.78,57.86,24.63,57.86,59.16,0,47.37-42.07,71.88-98.63,71.88S11.55,238.73,0,225.07"
      style="fill: #798ea8;"
    />
    <path d="M221.88,0h13.2V311h-13.2Z" style="fill: #798ea8;" />
    <path
      d="M266,261.83V49H436.23V97.69H325.7v33.93h78.24v46.9H325.7v34.29H439.29v49H266"
      style="fill: #798ea8;"
    />
    <path d="M461.68,0h13.2V311h-13.2Z" style="fill: #798ea8;" />
    <path
      d="M505.75,261.83V49.14h125c35.94,0,65.05,21,65.05,53.85,0,26-16,41.24-30.52,47a16.11,16.11,0,0,1-2.48.36,17.1,17.1,0,0,1,2.48.35c25.21,8,43.36,26.28,43.36,53.85,0,35.23-29.69,57.27-66.22,57.27H505.75m60.09-47.25h58.33c10.37,0,18.74-8.37,18.74-19.44s-8.37-19.33-18.74-19.33H565.84v38.77m0-83.9h47.61c11.08,0,19.91-8.72,19.91-18.62s-8.83-18.73-19.91-18.73H565.84v37.35"
      style="fill: #798ea8;"
    />
</svg>